%TF.GenerationSoftware,KiCad,Pcbnew,7.0.5*%
%TF.CreationDate,2025-02-15T15:12:15+08:00*%
%TF.ProjectId,Display Driver,44697370-6c61-4792-9044-72697665722e,rev?*%
%TF.SameCoordinates,Original*%
%TF.FileFunction,Copper,L2,Bot*%
%TF.FilePolarity,Positive*%
%FSLAX46Y46*%
G04 Gerber Fmt 4.6, Leading zero omitted, Abs format (unit mm)*
G04 Created by KiCad (PCBNEW 7.0.5) date 2025-02-15 15:12:15*
%MOMM*%
%LPD*%
G01*
G04 APERTURE LIST*
%TA.AperFunction,ViaPad*%
%ADD10C,0.500000*%
%TD*%
%TA.AperFunction,ViaPad*%
%ADD11C,0.700000*%
%TD*%
%TA.AperFunction,ViaPad*%
%ADD12C,0.600000*%
%TD*%
%TA.AperFunction,Conductor*%
%ADD13C,0.254000*%
%TD*%
G04 APERTURE END LIST*
D10*
%TO.N,GND*%
X52324000Y-70104000D03*
X52324000Y-72136000D03*
%TO.N,+3V3*%
X52324000Y-79756000D03*
X35052000Y-76850003D03*
D11*
X67056000Y-72136000D03*
D10*
X35052000Y-76200000D03*
D12*
%TO.N,/BUSY*%
X69088000Y-86360000D03*
D10*
X39977999Y-80617999D03*
D12*
%TO.N,/RST*%
X68522313Y-85794313D03*
D10*
X40257243Y-79976107D03*
%TO.N,/D{slash}C*%
X40903961Y-79708227D03*
D12*
X67956626Y-85225000D03*
%TO.N,/CS*%
X67388320Y-84661943D03*
D10*
X41231893Y-79089790D03*
D12*
%TO.N,/SCK*%
X66824012Y-84094880D03*
D10*
X45720000Y-79756000D03*
D12*
%TO.N,/MOSI*%
X66257164Y-83530357D03*
D10*
X41028499Y-77404501D03*
%TD*%
D13*
%TO.N,GND*%
X52324000Y-72136000D02*
X52324000Y-70104000D01*
%TO.N,/BUSY*%
X68820000Y-86628000D02*
X69088000Y-86360000D01*
X45988000Y-86628000D02*
X68820000Y-86628000D01*
X39977999Y-80617999D02*
X45988000Y-86628000D01*
%TO.N,/RST*%
X46133136Y-85852000D02*
X68464626Y-85852000D01*
X40257243Y-79976107D02*
X46133136Y-85852000D01*
X68464626Y-85852000D02*
X68522313Y-85794313D01*
%TO.N,/D{slash}C*%
X46593734Y-85398000D02*
X67783626Y-85398000D01*
X40903961Y-79708227D02*
X46593734Y-85398000D01*
X67783626Y-85398000D02*
X67956626Y-85225000D01*
%TO.N,/CS*%
X67106263Y-84944000D02*
X67388320Y-84661943D01*
X47086103Y-84944000D02*
X67106263Y-84944000D01*
X41231893Y-79089790D02*
X47086103Y-84944000D01*
%TO.N,/SCK*%
X50292000Y-84328000D02*
X66590892Y-84328000D01*
X66590892Y-84328000D02*
X66824012Y-84094880D01*
X45720000Y-79756000D02*
X50292000Y-84328000D01*
%TO.N,/MOSI*%
X41028499Y-77404501D02*
X42363998Y-78740000D01*
X45720000Y-78740000D02*
X50800000Y-83820000D01*
X50800000Y-83820000D02*
X65967521Y-83820000D01*
X42363998Y-78740000D02*
X45720000Y-78740000D01*
X65967521Y-83820000D02*
X66257164Y-83530357D01*
%TD*%
%TA.AperFunction,Conductor*%
%TO.N,+3V3*%
G36*
X80761487Y-65034513D02*
G01*
X80779500Y-65078000D01*
X80779500Y-90878000D01*
X80761487Y-90921487D01*
X80718000Y-90939500D01*
X31042000Y-90939500D01*
X30998513Y-90921487D01*
X30980500Y-90878000D01*
X30980500Y-80617999D01*
X39472352Y-80617999D01*
X39492834Y-80760456D01*
X39492835Y-80760460D01*
X39552621Y-80891370D01*
X39552621Y-80891371D01*
X39552622Y-80891372D01*
X39646871Y-81000142D01*
X39767946Y-81077952D01*
X39906038Y-81118499D01*
X39919160Y-81118499D01*
X39962647Y-81136512D01*
X45688873Y-86862739D01*
X45696871Y-86872588D01*
X45706424Y-86887209D01*
X45736132Y-86910332D01*
X45738987Y-86912853D01*
X45743186Y-86917052D01*
X45761795Y-86930339D01*
X45762782Y-86931074D01*
X45805845Y-86964592D01*
X45805846Y-86964592D01*
X45805847Y-86964593D01*
X45810328Y-86967018D01*
X45810310Y-86967049D01*
X45815314Y-86969624D01*
X45815330Y-86969593D01*
X45819906Y-86971830D01*
X45819909Y-86971831D01*
X45819911Y-86971832D01*
X45872195Y-86987397D01*
X45873387Y-86987779D01*
X45889627Y-86993354D01*
X45925006Y-87005500D01*
X45925007Y-87005500D01*
X45930034Y-87006339D01*
X45930028Y-87006372D01*
X45935600Y-87007184D01*
X45935605Y-87007151D01*
X45940660Y-87007781D01*
X45995192Y-87005525D01*
X45996429Y-87005500D01*
X68774470Y-87005500D01*
X68787090Y-87006808D01*
X68804184Y-87010393D01*
X68841546Y-87005735D01*
X68845352Y-87005500D01*
X68851279Y-87005500D01*
X68851281Y-87005500D01*
X68873818Y-87001738D01*
X68875021Y-87001562D01*
X68929203Y-86994810D01*
X68929206Y-86994808D01*
X68934093Y-86993354D01*
X68934103Y-86993387D01*
X68939459Y-86991671D01*
X68939448Y-86991637D01*
X68944263Y-86989983D01*
X68944269Y-86989983D01*
X68992265Y-86964007D01*
X68993368Y-86963439D01*
X69042389Y-86939476D01*
X69046536Y-86936515D01*
X69046557Y-86936544D01*
X69051063Y-86933184D01*
X69051042Y-86933156D01*
X69058020Y-86927724D01*
X69087771Y-86915279D01*
X69087995Y-86915249D01*
X69088000Y-86915250D01*
X69231709Y-86896330D01*
X69365625Y-86840861D01*
X69480621Y-86752621D01*
X69568861Y-86637625D01*
X69624330Y-86503709D01*
X69643250Y-86360000D01*
X69624330Y-86216291D01*
X69568861Y-86082375D01*
X69480621Y-85967379D01*
X69365625Y-85879139D01*
X69231709Y-85823670D01*
X69231707Y-85823669D01*
X69231705Y-85823669D01*
X69125563Y-85809695D01*
X69084800Y-85786160D01*
X69072617Y-85756748D01*
X69058643Y-85650604D01*
X69003174Y-85516688D01*
X68914934Y-85401692D01*
X68799938Y-85313452D01*
X68666022Y-85257983D01*
X68666020Y-85257982D01*
X68666018Y-85257982D01*
X68560362Y-85244072D01*
X68519599Y-85220537D01*
X68507416Y-85191125D01*
X68492956Y-85081291D01*
X68437487Y-84947375D01*
X68349247Y-84832379D01*
X68234251Y-84744139D01*
X68100335Y-84688670D01*
X68100332Y-84688669D01*
X68100330Y-84688669D01*
X67991172Y-84674298D01*
X67950408Y-84650763D01*
X67938226Y-84621354D01*
X67924650Y-84518234D01*
X67869181Y-84384318D01*
X67780941Y-84269322D01*
X67665945Y-84181082D01*
X67532029Y-84125613D01*
X67532027Y-84125612D01*
X67532025Y-84125612D01*
X67427471Y-84111847D01*
X67386708Y-84088312D01*
X67374525Y-84058900D01*
X67360342Y-83951171D01*
X67304873Y-83817255D01*
X67216633Y-83702259D01*
X67101637Y-83614019D01*
X66967721Y-83558550D01*
X66967719Y-83558549D01*
X66967717Y-83558549D01*
X66860238Y-83544399D01*
X66819475Y-83520864D01*
X66807292Y-83491452D01*
X66800847Y-83442500D01*
X66793494Y-83386648D01*
X66738025Y-83252732D01*
X66649785Y-83137736D01*
X66534789Y-83049496D01*
X66400873Y-82994027D01*
X66400870Y-82994026D01*
X66400868Y-82994026D01*
X66297129Y-82980368D01*
X66257164Y-82975107D01*
X66257163Y-82975107D01*
X66113459Y-82994026D01*
X66113455Y-82994027D01*
X65979539Y-83049496D01*
X65979535Y-83049498D01*
X65864543Y-83137736D01*
X65776305Y-83252728D01*
X65776303Y-83252732D01*
X65720834Y-83386648D01*
X65720832Y-83386654D01*
X65720521Y-83389023D01*
X65719917Y-83390067D01*
X65719790Y-83390545D01*
X65719662Y-83390510D01*
X65696989Y-83429789D01*
X65659547Y-83442500D01*
X50981839Y-83442500D01*
X50938352Y-83424487D01*
X46019127Y-78505261D01*
X46011129Y-78495412D01*
X46006870Y-78488895D01*
X46001576Y-78480791D01*
X46001574Y-78480789D01*
X46001573Y-78480788D01*
X45971872Y-78457670D01*
X45969012Y-78455146D01*
X45964816Y-78450949D01*
X45946220Y-78437672D01*
X45945217Y-78436924D01*
X45902155Y-78403408D01*
X45902154Y-78403407D01*
X45902152Y-78403406D01*
X45897671Y-78400981D01*
X45897686Y-78400951D01*
X45892681Y-78398375D01*
X45892666Y-78398406D01*
X45888086Y-78396166D01*
X45835814Y-78380605D01*
X45834604Y-78380217D01*
X45782994Y-78362500D01*
X45777965Y-78361661D01*
X45777970Y-78361627D01*
X45772399Y-78360815D01*
X45772395Y-78360849D01*
X45767339Y-78360218D01*
X45735144Y-78361550D01*
X45712807Y-78362474D01*
X45711571Y-78362500D01*
X42545837Y-78362500D01*
X42502350Y-78344487D01*
X41543881Y-77386017D01*
X41526494Y-77351282D01*
X41513664Y-77262044D01*
X41453876Y-77131128D01*
X41359627Y-77022358D01*
X41359624Y-77022356D01*
X41359623Y-77022355D01*
X41238554Y-76944549D01*
X41238547Y-76944546D01*
X41149575Y-76918422D01*
X41100460Y-76904001D01*
X40956538Y-76904001D01*
X40818450Y-76944546D01*
X40818443Y-76944549D01*
X40697374Y-77022355D01*
X40697373Y-77022356D01*
X40603121Y-77131128D01*
X40603121Y-77131129D01*
X40543335Y-77262039D01*
X40543334Y-77262043D01*
X40522852Y-77404500D01*
X40522852Y-77404501D01*
X40543334Y-77546958D01*
X40543335Y-77546962D01*
X40603121Y-77677872D01*
X40603121Y-77677873D01*
X40603122Y-77677874D01*
X40697371Y-77786644D01*
X40818446Y-77864454D01*
X40956538Y-77905001D01*
X40969660Y-77905001D01*
X41013147Y-77923014D01*
X42064871Y-78974739D01*
X42072869Y-78984588D01*
X42082420Y-78999206D01*
X42082422Y-78999209D01*
X42112127Y-79022330D01*
X42114978Y-79024846D01*
X42119184Y-79029052D01*
X42137793Y-79042339D01*
X42138780Y-79043074D01*
X42181843Y-79076592D01*
X42181844Y-79076592D01*
X42181845Y-79076593D01*
X42186326Y-79079018D01*
X42186308Y-79079049D01*
X42191312Y-79081624D01*
X42191328Y-79081593D01*
X42195904Y-79083830D01*
X42195907Y-79083831D01*
X42195909Y-79083832D01*
X42248193Y-79099397D01*
X42249385Y-79099779D01*
X42280815Y-79110569D01*
X42301004Y-79117500D01*
X42301005Y-79117500D01*
X42306032Y-79118339D01*
X42306026Y-79118372D01*
X42311598Y-79119184D01*
X42311603Y-79119151D01*
X42316658Y-79119781D01*
X42371190Y-79117525D01*
X42372427Y-79117500D01*
X45538161Y-79117500D01*
X45581648Y-79135513D01*
X45616176Y-79170041D01*
X45634189Y-79213528D01*
X45616176Y-79257015D01*
X45590015Y-79272537D01*
X45509951Y-79296045D01*
X45509944Y-79296048D01*
X45388875Y-79373854D01*
X45388874Y-79373855D01*
X45294622Y-79482627D01*
X45294622Y-79482628D01*
X45234836Y-79613538D01*
X45234835Y-79613542D01*
X45214353Y-79755999D01*
X45214353Y-79756000D01*
X45234835Y-79898457D01*
X45234836Y-79898461D01*
X45294622Y-80029371D01*
X45294622Y-80029372D01*
X45294623Y-80029373D01*
X45388872Y-80138143D01*
X45509947Y-80215953D01*
X45648039Y-80256500D01*
X45661161Y-80256500D01*
X45704648Y-80274513D01*
X49891647Y-84461513D01*
X49909660Y-84505000D01*
X49891647Y-84548487D01*
X49848160Y-84566500D01*
X47267942Y-84566500D01*
X47224455Y-84548487D01*
X41747275Y-79071306D01*
X41729888Y-79036571D01*
X41728009Y-79023504D01*
X41717058Y-78947333D01*
X41657270Y-78816417D01*
X41563021Y-78707647D01*
X41563018Y-78707645D01*
X41563017Y-78707644D01*
X41441948Y-78629838D01*
X41441941Y-78629835D01*
X41352969Y-78603711D01*
X41303854Y-78589290D01*
X41159932Y-78589290D01*
X41021844Y-78629835D01*
X41021837Y-78629838D01*
X40900768Y-78707644D01*
X40900767Y-78707645D01*
X40806515Y-78816417D01*
X40806515Y-78816418D01*
X40746729Y-78947328D01*
X40746728Y-78947332D01*
X40726246Y-79089789D01*
X40726246Y-79089791D01*
X40739215Y-79179996D01*
X40727574Y-79225604D01*
X40697823Y-79246264D01*
X40697907Y-79246448D01*
X40696889Y-79246912D01*
X40695678Y-79247754D01*
X40693908Y-79248273D01*
X40693906Y-79248274D01*
X40572836Y-79326081D01*
X40572835Y-79326082D01*
X40478583Y-79434855D01*
X40466647Y-79460990D01*
X40432196Y-79493064D01*
X40393379Y-79494450D01*
X40329204Y-79475607D01*
X40185282Y-79475607D01*
X40047194Y-79516152D01*
X40047187Y-79516155D01*
X39926118Y-79593961D01*
X39926117Y-79593962D01*
X39831865Y-79702734D01*
X39831865Y-79702735D01*
X39772079Y-79833645D01*
X39772078Y-79833649D01*
X39751596Y-79976106D01*
X39751596Y-79976107D01*
X39771300Y-80113154D01*
X39759659Y-80158762D01*
X39743676Y-80173643D01*
X39646872Y-80235855D01*
X39552621Y-80344626D01*
X39552621Y-80344627D01*
X39492835Y-80475537D01*
X39492834Y-80475541D01*
X39472352Y-80617998D01*
X39472352Y-80617999D01*
X30980500Y-80617999D01*
X30980500Y-72136000D01*
X51818353Y-72136000D01*
X51838835Y-72278457D01*
X51838836Y-72278461D01*
X51898622Y-72409371D01*
X51898622Y-72409372D01*
X51898623Y-72409373D01*
X51992872Y-72518143D01*
X52113947Y-72595953D01*
X52252039Y-72636500D01*
X52395961Y-72636500D01*
X52534053Y-72595953D01*
X52655128Y-72518143D01*
X52749377Y-72409373D01*
X52809165Y-72278457D01*
X52829647Y-72136000D01*
X52809165Y-71993543D01*
X52749377Y-71862627D01*
X52716520Y-71824707D01*
X52701500Y-71784434D01*
X52701500Y-70455564D01*
X52716522Y-70415290D01*
X52749374Y-70377376D01*
X52749377Y-70377373D01*
X52809165Y-70246457D01*
X52829647Y-70104000D01*
X52809165Y-69961543D01*
X52749377Y-69830627D01*
X52655128Y-69721857D01*
X52655125Y-69721855D01*
X52655124Y-69721854D01*
X52534055Y-69644048D01*
X52534048Y-69644045D01*
X52445076Y-69617921D01*
X52395961Y-69603500D01*
X52252039Y-69603500D01*
X52113951Y-69644045D01*
X52113944Y-69644048D01*
X51992875Y-69721854D01*
X51992874Y-69721855D01*
X51898622Y-69830627D01*
X51898622Y-69830628D01*
X51838836Y-69961538D01*
X51838835Y-69961542D01*
X51818353Y-70103999D01*
X51818353Y-70104000D01*
X51838835Y-70246457D01*
X51838836Y-70246461D01*
X51898622Y-70377371D01*
X51898625Y-70377376D01*
X51931478Y-70415290D01*
X51946500Y-70455564D01*
X51946500Y-71784434D01*
X51931479Y-71824707D01*
X51898623Y-71862627D01*
X51898622Y-71862628D01*
X51898621Y-71862630D01*
X51838836Y-71993538D01*
X51838835Y-71993542D01*
X51818353Y-72135999D01*
X51818353Y-72136000D01*
X30980500Y-72136000D01*
X30980500Y-65078000D01*
X30998513Y-65034513D01*
X31042000Y-65016500D01*
X80718000Y-65016500D01*
X80761487Y-65034513D01*
G37*
%TD.AperFunction*%
%TD*%
M02*
