%TF.GenerationSoftware,KiCad,Pcbnew,7.0.5*%
%TF.CreationDate,2025-02-15T15:12:15+08:00*%
%TF.ProjectId,Display Driver,44697370-6c61-4792-9044-72697665722e,rev?*%
%TF.SameCoordinates,Original*%
%TF.FileFunction,Paste,Top*%
%TF.FilePolarity,Positive*%
%FSLAX46Y46*%
G04 Gerber Fmt 4.6, Leading zero omitted, Abs format (unit mm)*
G04 Created by KiCad (PCBNEW 7.0.5) date 2025-02-15 15:12:15*
%MOMM*%
%LPD*%
G01*
G04 APERTURE LIST*
G04 Aperture macros list*
%AMRoundRect*
0 Rectangle with rounded corners*
0 $1 Rounding radius*
0 $2 $3 $4 $5 $6 $7 $8 $9 X,Y pos of 4 corners*
0 Add a 4 corners polygon primitive as box body*
4,1,4,$2,$3,$4,$5,$6,$7,$8,$9,$2,$3,0*
0 Add four circle primitives for the rounded corners*
1,1,$1+$1,$2,$3*
1,1,$1+$1,$4,$5*
1,1,$1+$1,$6,$7*
1,1,$1+$1,$8,$9*
0 Add four rect primitives between the rounded corners*
20,1,$1+$1,$2,$3,$4,$5,0*
20,1,$1+$1,$4,$5,$6,$7,0*
20,1,$1+$1,$6,$7,$8,$9,0*
20,1,$1+$1,$8,$9,$2,$3,0*%
G04 Aperture macros list end*
%ADD10RoundRect,0.250000X1.500000X-0.250000X1.500000X0.250000X-1.500000X0.250000X-1.500000X-0.250000X0*%
%ADD11RoundRect,0.250001X1.449999X-0.499999X1.449999X0.499999X-1.449999X0.499999X-1.449999X-0.499999X0*%
%ADD12RoundRect,0.250000X0.250000X0.475000X-0.250000X0.475000X-0.250000X-0.475000X0.250000X-0.475000X0*%
%ADD13RoundRect,0.250000X0.262500X0.450000X-0.262500X0.450000X-0.262500X-0.450000X0.262500X-0.450000X0*%
%ADD14R,1.100000X3.700000*%
%ADD15RoundRect,0.225000X0.225000X0.375000X-0.225000X0.375000X-0.225000X-0.375000X0.225000X-0.375000X0*%
%ADD16R,1.300000X0.300000*%
%ADD17R,2.200000X1.800000*%
%ADD18RoundRect,0.225000X-0.225000X-0.375000X0.225000X-0.375000X0.225000X0.375000X-0.225000X0.375000X0*%
%ADD19RoundRect,0.112500X-0.237500X0.112500X-0.237500X-0.112500X0.237500X-0.112500X0.237500X0.112500X0*%
%ADD20RoundRect,0.250000X-0.250000X-0.475000X0.250000X-0.475000X0.250000X0.475000X-0.250000X0.475000X0*%
%ADD21RoundRect,0.250000X-0.312500X-1.075000X0.312500X-1.075000X0.312500X1.075000X-0.312500X1.075000X0*%
%ADD22RoundRect,0.250000X-0.262500X-0.450000X0.262500X-0.450000X0.262500X0.450000X-0.262500X0.450000X0*%
G04 APERTURE END LIST*
D10*
%TO.C,J2*%
X73350000Y-85232000D03*
X73350000Y-83232000D03*
X73350000Y-81232000D03*
X73350000Y-79232000D03*
X73350000Y-77232000D03*
X73350000Y-75232000D03*
X73350000Y-73232000D03*
X73350000Y-71232000D03*
D11*
X79100000Y-87582000D03*
X79100000Y-68882000D03*
%TD*%
D12*
%TO.C,C8*%
X50734000Y-75184000D03*
X48834000Y-75184000D03*
%TD*%
D13*
%TO.C,R6*%
X44092500Y-80264000D03*
X42267500Y-80264000D03*
%TD*%
D14*
%TO.C,L1*%
X59920000Y-85344000D03*
X56920000Y-85344000D03*
%TD*%
D12*
%TO.C,C3*%
X44130000Y-77724000D03*
X42230000Y-77724000D03*
%TD*%
%TO.C,C10*%
X50734000Y-70104000D03*
X48834000Y-70104000D03*
%TD*%
%TO.C,C9*%
X50734000Y-72644000D03*
X48834000Y-72644000D03*
%TD*%
%TO.C,C2*%
X44130000Y-82804000D03*
X42230000Y-82804000D03*
%TD*%
D15*
%TO.C,D3*%
X59562000Y-79852000D03*
X56262000Y-79852000D03*
%TD*%
D12*
%TO.C,C12*%
X50734000Y-82804000D03*
X48834000Y-82804000D03*
%TD*%
D16*
%TO.C,J1*%
X37852000Y-71974000D03*
X37852000Y-72474000D03*
X37852000Y-72974000D03*
X37852000Y-73474000D03*
X37852000Y-73974000D03*
X37852000Y-74474000D03*
X37852000Y-74974000D03*
X37852000Y-75474000D03*
X37852000Y-75974000D03*
X37852000Y-76474000D03*
X37852000Y-76974000D03*
X37852000Y-77474000D03*
X37852000Y-77974000D03*
X37852000Y-78474000D03*
X37852000Y-78974000D03*
X37852000Y-79474000D03*
X37852000Y-79974000D03*
X37852000Y-80474000D03*
X37852000Y-80974000D03*
X37852000Y-81474000D03*
X37852000Y-81974000D03*
X37852000Y-82474000D03*
X37852000Y-82974000D03*
X37852000Y-83474000D03*
D17*
X34602000Y-70074000D03*
X34602000Y-85374000D03*
%TD*%
D18*
%TO.C,D2*%
X56262000Y-76502000D03*
X59562000Y-76502000D03*
%TD*%
D19*
%TO.C,Q1*%
X48784000Y-84836000D03*
X48784000Y-86136000D03*
X50784000Y-85486000D03*
%TD*%
D15*
%TO.C,D1*%
X59562000Y-73152000D03*
X56262000Y-73152000D03*
%TD*%
D20*
%TO.C,C11*%
X48834000Y-80264000D03*
X50734000Y-80264000D03*
%TD*%
D21*
%TO.C,R1*%
X44257500Y-88392000D03*
X47182500Y-88392000D03*
%TD*%
D12*
%TO.C,C6*%
X44130000Y-72644000D03*
X42230000Y-72644000D03*
%TD*%
%TO.C,C4*%
X44130000Y-75184000D03*
X42230000Y-75184000D03*
%TD*%
D22*
%TO.C,R2*%
X42267500Y-85344000D03*
X44092500Y-85344000D03*
%TD*%
D12*
%TO.C,C7*%
X50734000Y-77724000D03*
X48834000Y-77724000D03*
%TD*%
M02*
