%TF.GenerationSoftware,KiCad,Pcbnew,7.0.5*%
%TF.CreationDate,2025-02-15T15:12:16+08:00*%
%TF.ProjectId,Display Driver,44697370-6c61-4792-9044-72697665722e,rev?*%
%TF.SameCoordinates,Original*%
%TF.FileFunction,Legend,Top*%
%TF.FilePolarity,Positive*%
%FSLAX46Y46*%
G04 Gerber Fmt 4.6, Leading zero omitted, Abs format (unit mm)*
G04 Created by KiCad (PCBNEW 7.0.5) date 2025-02-15 15:12:16*
%MOMM*%
%LPD*%
G01*
G04 APERTURE LIST*
%ADD10C,0.100000*%
%ADD11C,0.150000*%
%ADD12C,0.120000*%
G04 APERTURE END LIST*
D10*
X68731503Y-71141371D02*
X69102931Y-71141371D01*
X69102931Y-71141371D02*
X68902931Y-71369942D01*
X68902931Y-71369942D02*
X68988646Y-71369942D01*
X68988646Y-71369942D02*
X69045789Y-71398514D01*
X69045789Y-71398514D02*
X69074360Y-71427085D01*
X69074360Y-71427085D02*
X69102931Y-71484228D01*
X69102931Y-71484228D02*
X69102931Y-71627085D01*
X69102931Y-71627085D02*
X69074360Y-71684228D01*
X69074360Y-71684228D02*
X69045789Y-71712800D01*
X69045789Y-71712800D02*
X68988646Y-71741371D01*
X68988646Y-71741371D02*
X68817217Y-71741371D01*
X68817217Y-71741371D02*
X68760074Y-71712800D01*
X68760074Y-71712800D02*
X68731503Y-71684228D01*
X69274360Y-71141371D02*
X69474360Y-71741371D01*
X69474360Y-71741371D02*
X69674360Y-71141371D01*
X69817218Y-71141371D02*
X70188646Y-71141371D01*
X70188646Y-71141371D02*
X69988646Y-71369942D01*
X69988646Y-71369942D02*
X70074361Y-71369942D01*
X70074361Y-71369942D02*
X70131504Y-71398514D01*
X70131504Y-71398514D02*
X70160075Y-71427085D01*
X70160075Y-71427085D02*
X70188646Y-71484228D01*
X70188646Y-71484228D02*
X70188646Y-71627085D01*
X70188646Y-71627085D02*
X70160075Y-71684228D01*
X70160075Y-71684228D02*
X70131504Y-71712800D01*
X70131504Y-71712800D02*
X70074361Y-71741371D01*
X70074361Y-71741371D02*
X69902932Y-71741371D01*
X69902932Y-71741371D02*
X69845789Y-71712800D01*
X69845789Y-71712800D02*
X69817218Y-71684228D01*
X69102931Y-73101942D02*
X69045789Y-73073371D01*
X69045789Y-73073371D02*
X68960074Y-73073371D01*
X68960074Y-73073371D02*
X68874360Y-73101942D01*
X68874360Y-73101942D02*
X68817217Y-73159085D01*
X68817217Y-73159085D02*
X68788646Y-73216228D01*
X68788646Y-73216228D02*
X68760074Y-73330514D01*
X68760074Y-73330514D02*
X68760074Y-73416228D01*
X68760074Y-73416228D02*
X68788646Y-73530514D01*
X68788646Y-73530514D02*
X68817217Y-73587657D01*
X68817217Y-73587657D02*
X68874360Y-73644800D01*
X68874360Y-73644800D02*
X68960074Y-73673371D01*
X68960074Y-73673371D02*
X69017217Y-73673371D01*
X69017217Y-73673371D02*
X69102931Y-73644800D01*
X69102931Y-73644800D02*
X69131503Y-73616228D01*
X69131503Y-73616228D02*
X69131503Y-73416228D01*
X69131503Y-73416228D02*
X69017217Y-73416228D01*
X69388646Y-73673371D02*
X69388646Y-73073371D01*
X69388646Y-73073371D02*
X69731503Y-73673371D01*
X69731503Y-73673371D02*
X69731503Y-73073371D01*
X70017217Y-73673371D02*
X70017217Y-73073371D01*
X70017217Y-73073371D02*
X70160074Y-73073371D01*
X70160074Y-73073371D02*
X70245788Y-73101942D01*
X70245788Y-73101942D02*
X70302931Y-73159085D01*
X70302931Y-73159085D02*
X70331502Y-73216228D01*
X70331502Y-73216228D02*
X70360074Y-73330514D01*
X70360074Y-73330514D02*
X70360074Y-73416228D01*
X70360074Y-73416228D02*
X70331502Y-73530514D01*
X70331502Y-73530514D02*
X70302931Y-73587657D01*
X70302931Y-73587657D02*
X70245788Y-73644800D01*
X70245788Y-73644800D02*
X70160074Y-73673371D01*
X70160074Y-73673371D02*
X70017217Y-73673371D01*
X68788646Y-75605371D02*
X68788646Y-75005371D01*
X68788646Y-75005371D02*
X68988646Y-75433942D01*
X68988646Y-75433942D02*
X69188646Y-75005371D01*
X69188646Y-75005371D02*
X69188646Y-75605371D01*
X69588645Y-75005371D02*
X69702931Y-75005371D01*
X69702931Y-75005371D02*
X69760074Y-75033942D01*
X69760074Y-75033942D02*
X69817217Y-75091085D01*
X69817217Y-75091085D02*
X69845788Y-75205371D01*
X69845788Y-75205371D02*
X69845788Y-75405371D01*
X69845788Y-75405371D02*
X69817217Y-75519657D01*
X69817217Y-75519657D02*
X69760074Y-75576800D01*
X69760074Y-75576800D02*
X69702931Y-75605371D01*
X69702931Y-75605371D02*
X69588645Y-75605371D01*
X69588645Y-75605371D02*
X69531503Y-75576800D01*
X69531503Y-75576800D02*
X69474360Y-75519657D01*
X69474360Y-75519657D02*
X69445788Y-75405371D01*
X69445788Y-75405371D02*
X69445788Y-75205371D01*
X69445788Y-75205371D02*
X69474360Y-75091085D01*
X69474360Y-75091085D02*
X69531503Y-75033942D01*
X69531503Y-75033942D02*
X69588645Y-75005371D01*
X70074359Y-75576800D02*
X70160074Y-75605371D01*
X70160074Y-75605371D02*
X70302931Y-75605371D01*
X70302931Y-75605371D02*
X70360074Y-75576800D01*
X70360074Y-75576800D02*
X70388645Y-75548228D01*
X70388645Y-75548228D02*
X70417216Y-75491085D01*
X70417216Y-75491085D02*
X70417216Y-75433942D01*
X70417216Y-75433942D02*
X70388645Y-75376800D01*
X70388645Y-75376800D02*
X70360074Y-75348228D01*
X70360074Y-75348228D02*
X70302931Y-75319657D01*
X70302931Y-75319657D02*
X70188645Y-75291085D01*
X70188645Y-75291085D02*
X70131502Y-75262514D01*
X70131502Y-75262514D02*
X70102931Y-75233942D01*
X70102931Y-75233942D02*
X70074359Y-75176800D01*
X70074359Y-75176800D02*
X70074359Y-75119657D01*
X70074359Y-75119657D02*
X70102931Y-75062514D01*
X70102931Y-75062514D02*
X70131502Y-75033942D01*
X70131502Y-75033942D02*
X70188645Y-75005371D01*
X70188645Y-75005371D02*
X70331502Y-75005371D01*
X70331502Y-75005371D02*
X70417216Y-75033942D01*
X70674360Y-75605371D02*
X70674360Y-75005371D01*
X68760074Y-77508800D02*
X68845789Y-77537371D01*
X68845789Y-77537371D02*
X68988646Y-77537371D01*
X68988646Y-77537371D02*
X69045789Y-77508800D01*
X69045789Y-77508800D02*
X69074360Y-77480228D01*
X69074360Y-77480228D02*
X69102931Y-77423085D01*
X69102931Y-77423085D02*
X69102931Y-77365942D01*
X69102931Y-77365942D02*
X69074360Y-77308800D01*
X69074360Y-77308800D02*
X69045789Y-77280228D01*
X69045789Y-77280228D02*
X68988646Y-77251657D01*
X68988646Y-77251657D02*
X68874360Y-77223085D01*
X68874360Y-77223085D02*
X68817217Y-77194514D01*
X68817217Y-77194514D02*
X68788646Y-77165942D01*
X68788646Y-77165942D02*
X68760074Y-77108800D01*
X68760074Y-77108800D02*
X68760074Y-77051657D01*
X68760074Y-77051657D02*
X68788646Y-76994514D01*
X68788646Y-76994514D02*
X68817217Y-76965942D01*
X68817217Y-76965942D02*
X68874360Y-76937371D01*
X68874360Y-76937371D02*
X69017217Y-76937371D01*
X69017217Y-76937371D02*
X69102931Y-76965942D01*
X69702932Y-77480228D02*
X69674360Y-77508800D01*
X69674360Y-77508800D02*
X69588646Y-77537371D01*
X69588646Y-77537371D02*
X69531503Y-77537371D01*
X69531503Y-77537371D02*
X69445789Y-77508800D01*
X69445789Y-77508800D02*
X69388646Y-77451657D01*
X69388646Y-77451657D02*
X69360075Y-77394514D01*
X69360075Y-77394514D02*
X69331503Y-77280228D01*
X69331503Y-77280228D02*
X69331503Y-77194514D01*
X69331503Y-77194514D02*
X69360075Y-77080228D01*
X69360075Y-77080228D02*
X69388646Y-77023085D01*
X69388646Y-77023085D02*
X69445789Y-76965942D01*
X69445789Y-76965942D02*
X69531503Y-76937371D01*
X69531503Y-76937371D02*
X69588646Y-76937371D01*
X69588646Y-76937371D02*
X69674360Y-76965942D01*
X69674360Y-76965942D02*
X69702932Y-76994514D01*
X69960075Y-77537371D02*
X69960075Y-76937371D01*
X70302932Y-77537371D02*
X70045789Y-77194514D01*
X70302932Y-76937371D02*
X69960075Y-77280228D01*
X69131503Y-79412228D02*
X69102931Y-79440800D01*
X69102931Y-79440800D02*
X69017217Y-79469371D01*
X69017217Y-79469371D02*
X68960074Y-79469371D01*
X68960074Y-79469371D02*
X68874360Y-79440800D01*
X68874360Y-79440800D02*
X68817217Y-79383657D01*
X68817217Y-79383657D02*
X68788646Y-79326514D01*
X68788646Y-79326514D02*
X68760074Y-79212228D01*
X68760074Y-79212228D02*
X68760074Y-79126514D01*
X68760074Y-79126514D02*
X68788646Y-79012228D01*
X68788646Y-79012228D02*
X68817217Y-78955085D01*
X68817217Y-78955085D02*
X68874360Y-78897942D01*
X68874360Y-78897942D02*
X68960074Y-78869371D01*
X68960074Y-78869371D02*
X69017217Y-78869371D01*
X69017217Y-78869371D02*
X69102931Y-78897942D01*
X69102931Y-78897942D02*
X69131503Y-78926514D01*
X69360074Y-79440800D02*
X69445789Y-79469371D01*
X69445789Y-79469371D02*
X69588646Y-79469371D01*
X69588646Y-79469371D02*
X69645789Y-79440800D01*
X69645789Y-79440800D02*
X69674360Y-79412228D01*
X69674360Y-79412228D02*
X69702931Y-79355085D01*
X69702931Y-79355085D02*
X69702931Y-79297942D01*
X69702931Y-79297942D02*
X69674360Y-79240800D01*
X69674360Y-79240800D02*
X69645789Y-79212228D01*
X69645789Y-79212228D02*
X69588646Y-79183657D01*
X69588646Y-79183657D02*
X69474360Y-79155085D01*
X69474360Y-79155085D02*
X69417217Y-79126514D01*
X69417217Y-79126514D02*
X69388646Y-79097942D01*
X69388646Y-79097942D02*
X69360074Y-79040800D01*
X69360074Y-79040800D02*
X69360074Y-78983657D01*
X69360074Y-78983657D02*
X69388646Y-78926514D01*
X69388646Y-78926514D02*
X69417217Y-78897942D01*
X69417217Y-78897942D02*
X69474360Y-78869371D01*
X69474360Y-78869371D02*
X69617217Y-78869371D01*
X69617217Y-78869371D02*
X69702931Y-78897942D01*
X69931503Y-79069371D02*
X70360075Y-79069371D01*
X70102932Y-78812228D02*
X69931503Y-79583657D01*
X70302932Y-79326514D02*
X69874360Y-79326514D01*
X70131503Y-79583657D02*
X70302932Y-78812228D01*
X68788646Y-81401371D02*
X68788646Y-80801371D01*
X68788646Y-80801371D02*
X68931503Y-80801371D01*
X68931503Y-80801371D02*
X69017217Y-80829942D01*
X69017217Y-80829942D02*
X69074360Y-80887085D01*
X69074360Y-80887085D02*
X69102931Y-80944228D01*
X69102931Y-80944228D02*
X69131503Y-81058514D01*
X69131503Y-81058514D02*
X69131503Y-81144228D01*
X69131503Y-81144228D02*
X69102931Y-81258514D01*
X69102931Y-81258514D02*
X69074360Y-81315657D01*
X69074360Y-81315657D02*
X69017217Y-81372800D01*
X69017217Y-81372800D02*
X68931503Y-81401371D01*
X68931503Y-81401371D02*
X68788646Y-81401371D01*
X69817217Y-80772800D02*
X69302931Y-81544228D01*
X70360074Y-81344228D02*
X70331502Y-81372800D01*
X70331502Y-81372800D02*
X70245788Y-81401371D01*
X70245788Y-81401371D02*
X70188645Y-81401371D01*
X70188645Y-81401371D02*
X70102931Y-81372800D01*
X70102931Y-81372800D02*
X70045788Y-81315657D01*
X70045788Y-81315657D02*
X70017217Y-81258514D01*
X70017217Y-81258514D02*
X69988645Y-81144228D01*
X69988645Y-81144228D02*
X69988645Y-81058514D01*
X69988645Y-81058514D02*
X70017217Y-80944228D01*
X70017217Y-80944228D02*
X70045788Y-80887085D01*
X70045788Y-80887085D02*
X70102931Y-80829942D01*
X70102931Y-80829942D02*
X70188645Y-80801371D01*
X70188645Y-80801371D02*
X70245788Y-80801371D01*
X70245788Y-80801371D02*
X70331502Y-80829942D01*
X70331502Y-80829942D02*
X70360074Y-80858514D01*
X70588645Y-81001371D02*
X71017217Y-81001371D01*
X70760074Y-80744228D02*
X70588645Y-81515657D01*
X70960074Y-81258514D02*
X70531502Y-81258514D01*
X70788645Y-81515657D02*
X70960074Y-80744228D01*
X69131503Y-83333371D02*
X68931503Y-83047657D01*
X68788646Y-83333371D02*
X68788646Y-82733371D01*
X68788646Y-82733371D02*
X69017217Y-82733371D01*
X69017217Y-82733371D02*
X69074360Y-82761942D01*
X69074360Y-82761942D02*
X69102931Y-82790514D01*
X69102931Y-82790514D02*
X69131503Y-82847657D01*
X69131503Y-82847657D02*
X69131503Y-82933371D01*
X69131503Y-82933371D02*
X69102931Y-82990514D01*
X69102931Y-82990514D02*
X69074360Y-83019085D01*
X69074360Y-83019085D02*
X69017217Y-83047657D01*
X69017217Y-83047657D02*
X68788646Y-83047657D01*
X69360074Y-83304800D02*
X69445789Y-83333371D01*
X69445789Y-83333371D02*
X69588646Y-83333371D01*
X69588646Y-83333371D02*
X69645789Y-83304800D01*
X69645789Y-83304800D02*
X69674360Y-83276228D01*
X69674360Y-83276228D02*
X69702931Y-83219085D01*
X69702931Y-83219085D02*
X69702931Y-83161942D01*
X69702931Y-83161942D02*
X69674360Y-83104800D01*
X69674360Y-83104800D02*
X69645789Y-83076228D01*
X69645789Y-83076228D02*
X69588646Y-83047657D01*
X69588646Y-83047657D02*
X69474360Y-83019085D01*
X69474360Y-83019085D02*
X69417217Y-82990514D01*
X69417217Y-82990514D02*
X69388646Y-82961942D01*
X69388646Y-82961942D02*
X69360074Y-82904800D01*
X69360074Y-82904800D02*
X69360074Y-82847657D01*
X69360074Y-82847657D02*
X69388646Y-82790514D01*
X69388646Y-82790514D02*
X69417217Y-82761942D01*
X69417217Y-82761942D02*
X69474360Y-82733371D01*
X69474360Y-82733371D02*
X69617217Y-82733371D01*
X69617217Y-82733371D02*
X69702931Y-82761942D01*
X69874360Y-82733371D02*
X70217218Y-82733371D01*
X70045789Y-83333371D02*
X70045789Y-82733371D01*
X70388646Y-82933371D02*
X70817218Y-82933371D01*
X70560075Y-82676228D02*
X70388646Y-83447657D01*
X70760075Y-83190514D02*
X70331503Y-83190514D01*
X70588646Y-83447657D02*
X70760075Y-82676228D01*
X68988646Y-84951085D02*
X69074360Y-84979657D01*
X69074360Y-84979657D02*
X69102931Y-85008228D01*
X69102931Y-85008228D02*
X69131503Y-85065371D01*
X69131503Y-85065371D02*
X69131503Y-85151085D01*
X69131503Y-85151085D02*
X69102931Y-85208228D01*
X69102931Y-85208228D02*
X69074360Y-85236800D01*
X69074360Y-85236800D02*
X69017217Y-85265371D01*
X69017217Y-85265371D02*
X68788646Y-85265371D01*
X68788646Y-85265371D02*
X68788646Y-84665371D01*
X68788646Y-84665371D02*
X68988646Y-84665371D01*
X68988646Y-84665371D02*
X69045789Y-84693942D01*
X69045789Y-84693942D02*
X69074360Y-84722514D01*
X69074360Y-84722514D02*
X69102931Y-84779657D01*
X69102931Y-84779657D02*
X69102931Y-84836800D01*
X69102931Y-84836800D02*
X69074360Y-84893942D01*
X69074360Y-84893942D02*
X69045789Y-84922514D01*
X69045789Y-84922514D02*
X68988646Y-84951085D01*
X68988646Y-84951085D02*
X68788646Y-84951085D01*
X69388646Y-84665371D02*
X69388646Y-85151085D01*
X69388646Y-85151085D02*
X69417217Y-85208228D01*
X69417217Y-85208228D02*
X69445789Y-85236800D01*
X69445789Y-85236800D02*
X69502931Y-85265371D01*
X69502931Y-85265371D02*
X69617217Y-85265371D01*
X69617217Y-85265371D02*
X69674360Y-85236800D01*
X69674360Y-85236800D02*
X69702931Y-85208228D01*
X69702931Y-85208228D02*
X69731503Y-85151085D01*
X69731503Y-85151085D02*
X69731503Y-84665371D01*
X69988645Y-85236800D02*
X70074360Y-85265371D01*
X70074360Y-85265371D02*
X70217217Y-85265371D01*
X70217217Y-85265371D02*
X70274360Y-85236800D01*
X70274360Y-85236800D02*
X70302931Y-85208228D01*
X70302931Y-85208228D02*
X70331502Y-85151085D01*
X70331502Y-85151085D02*
X70331502Y-85093942D01*
X70331502Y-85093942D02*
X70302931Y-85036800D01*
X70302931Y-85036800D02*
X70274360Y-85008228D01*
X70274360Y-85008228D02*
X70217217Y-84979657D01*
X70217217Y-84979657D02*
X70102931Y-84951085D01*
X70102931Y-84951085D02*
X70045788Y-84922514D01*
X70045788Y-84922514D02*
X70017217Y-84893942D01*
X70017217Y-84893942D02*
X69988645Y-84836800D01*
X69988645Y-84836800D02*
X69988645Y-84779657D01*
X69988645Y-84779657D02*
X70017217Y-84722514D01*
X70017217Y-84722514D02*
X70045788Y-84693942D01*
X70045788Y-84693942D02*
X70102931Y-84665371D01*
X70102931Y-84665371D02*
X70245788Y-84665371D01*
X70245788Y-84665371D02*
X70331502Y-84693942D01*
X70702931Y-84979657D02*
X70702931Y-85265371D01*
X70502931Y-84665371D02*
X70702931Y-84979657D01*
X70702931Y-84979657D02*
X70902931Y-84665371D01*
D11*
%TO.C,J2*%
X78194819Y-66881333D02*
X78909104Y-66881333D01*
X78909104Y-66881333D02*
X79051961Y-66928952D01*
X79051961Y-66928952D02*
X79147200Y-67024190D01*
X79147200Y-67024190D02*
X79194819Y-67167047D01*
X79194819Y-67167047D02*
X79194819Y-67262285D01*
X78290057Y-66452761D02*
X78242438Y-66405142D01*
X78242438Y-66405142D02*
X78194819Y-66309904D01*
X78194819Y-66309904D02*
X78194819Y-66071809D01*
X78194819Y-66071809D02*
X78242438Y-65976571D01*
X78242438Y-65976571D02*
X78290057Y-65928952D01*
X78290057Y-65928952D02*
X78385295Y-65881333D01*
X78385295Y-65881333D02*
X78480533Y-65881333D01*
X78480533Y-65881333D02*
X78623390Y-65928952D01*
X78623390Y-65928952D02*
X79194819Y-66500380D01*
X79194819Y-66500380D02*
X79194819Y-65881333D01*
%TO.C,C8*%
X52157333Y-75467580D02*
X52109714Y-75515200D01*
X52109714Y-75515200D02*
X51966857Y-75562819D01*
X51966857Y-75562819D02*
X51871619Y-75562819D01*
X51871619Y-75562819D02*
X51728762Y-75515200D01*
X51728762Y-75515200D02*
X51633524Y-75419961D01*
X51633524Y-75419961D02*
X51585905Y-75324723D01*
X51585905Y-75324723D02*
X51538286Y-75134247D01*
X51538286Y-75134247D02*
X51538286Y-74991390D01*
X51538286Y-74991390D02*
X51585905Y-74800914D01*
X51585905Y-74800914D02*
X51633524Y-74705676D01*
X51633524Y-74705676D02*
X51728762Y-74610438D01*
X51728762Y-74610438D02*
X51871619Y-74562819D01*
X51871619Y-74562819D02*
X51966857Y-74562819D01*
X51966857Y-74562819D02*
X52109714Y-74610438D01*
X52109714Y-74610438D02*
X52157333Y-74658057D01*
X52728762Y-74991390D02*
X52633524Y-74943771D01*
X52633524Y-74943771D02*
X52585905Y-74896152D01*
X52585905Y-74896152D02*
X52538286Y-74800914D01*
X52538286Y-74800914D02*
X52538286Y-74753295D01*
X52538286Y-74753295D02*
X52585905Y-74658057D01*
X52585905Y-74658057D02*
X52633524Y-74610438D01*
X52633524Y-74610438D02*
X52728762Y-74562819D01*
X52728762Y-74562819D02*
X52919238Y-74562819D01*
X52919238Y-74562819D02*
X53014476Y-74610438D01*
X53014476Y-74610438D02*
X53062095Y-74658057D01*
X53062095Y-74658057D02*
X53109714Y-74753295D01*
X53109714Y-74753295D02*
X53109714Y-74800914D01*
X53109714Y-74800914D02*
X53062095Y-74896152D01*
X53062095Y-74896152D02*
X53014476Y-74943771D01*
X53014476Y-74943771D02*
X52919238Y-74991390D01*
X52919238Y-74991390D02*
X52728762Y-74991390D01*
X52728762Y-74991390D02*
X52633524Y-75039009D01*
X52633524Y-75039009D02*
X52585905Y-75086628D01*
X52585905Y-75086628D02*
X52538286Y-75181866D01*
X52538286Y-75181866D02*
X52538286Y-75372342D01*
X52538286Y-75372342D02*
X52585905Y-75467580D01*
X52585905Y-75467580D02*
X52633524Y-75515200D01*
X52633524Y-75515200D02*
X52728762Y-75562819D01*
X52728762Y-75562819D02*
X52919238Y-75562819D01*
X52919238Y-75562819D02*
X53014476Y-75515200D01*
X53014476Y-75515200D02*
X53062095Y-75467580D01*
X53062095Y-75467580D02*
X53109714Y-75372342D01*
X53109714Y-75372342D02*
X53109714Y-75181866D01*
X53109714Y-75181866D02*
X53062095Y-75086628D01*
X53062095Y-75086628D02*
X53014476Y-75039009D01*
X53014476Y-75039009D02*
X52919238Y-74991390D01*
%TO.C,R6*%
X45553333Y-80718819D02*
X45220000Y-80242628D01*
X44981905Y-80718819D02*
X44981905Y-79718819D01*
X44981905Y-79718819D02*
X45362857Y-79718819D01*
X45362857Y-79718819D02*
X45458095Y-79766438D01*
X45458095Y-79766438D02*
X45505714Y-79814057D01*
X45505714Y-79814057D02*
X45553333Y-79909295D01*
X45553333Y-79909295D02*
X45553333Y-80052152D01*
X45553333Y-80052152D02*
X45505714Y-80147390D01*
X45505714Y-80147390D02*
X45458095Y-80195009D01*
X45458095Y-80195009D02*
X45362857Y-80242628D01*
X45362857Y-80242628D02*
X44981905Y-80242628D01*
X46410476Y-79718819D02*
X46220000Y-79718819D01*
X46220000Y-79718819D02*
X46124762Y-79766438D01*
X46124762Y-79766438D02*
X46077143Y-79814057D01*
X46077143Y-79814057D02*
X45981905Y-79956914D01*
X45981905Y-79956914D02*
X45934286Y-80147390D01*
X45934286Y-80147390D02*
X45934286Y-80528342D01*
X45934286Y-80528342D02*
X45981905Y-80623580D01*
X45981905Y-80623580D02*
X46029524Y-80671200D01*
X46029524Y-80671200D02*
X46124762Y-80718819D01*
X46124762Y-80718819D02*
X46315238Y-80718819D01*
X46315238Y-80718819D02*
X46410476Y-80671200D01*
X46410476Y-80671200D02*
X46458095Y-80623580D01*
X46458095Y-80623580D02*
X46505714Y-80528342D01*
X46505714Y-80528342D02*
X46505714Y-80290247D01*
X46505714Y-80290247D02*
X46458095Y-80195009D01*
X46458095Y-80195009D02*
X46410476Y-80147390D01*
X46410476Y-80147390D02*
X46315238Y-80099771D01*
X46315238Y-80099771D02*
X46124762Y-80099771D01*
X46124762Y-80099771D02*
X46029524Y-80147390D01*
X46029524Y-80147390D02*
X45981905Y-80195009D01*
X45981905Y-80195009D02*
X45934286Y-80290247D01*
%TO.C,L1*%
X58253333Y-88798819D02*
X57777143Y-88798819D01*
X57777143Y-88798819D02*
X57777143Y-87798819D01*
X59110476Y-88798819D02*
X58539048Y-88798819D01*
X58824762Y-88798819D02*
X58824762Y-87798819D01*
X58824762Y-87798819D02*
X58729524Y-87941676D01*
X58729524Y-87941676D02*
X58634286Y-88036914D01*
X58634286Y-88036914D02*
X58539048Y-88084533D01*
%TO.C,C3*%
X45553333Y-78007580D02*
X45505714Y-78055200D01*
X45505714Y-78055200D02*
X45362857Y-78102819D01*
X45362857Y-78102819D02*
X45267619Y-78102819D01*
X45267619Y-78102819D02*
X45124762Y-78055200D01*
X45124762Y-78055200D02*
X45029524Y-77959961D01*
X45029524Y-77959961D02*
X44981905Y-77864723D01*
X44981905Y-77864723D02*
X44934286Y-77674247D01*
X44934286Y-77674247D02*
X44934286Y-77531390D01*
X44934286Y-77531390D02*
X44981905Y-77340914D01*
X44981905Y-77340914D02*
X45029524Y-77245676D01*
X45029524Y-77245676D02*
X45124762Y-77150438D01*
X45124762Y-77150438D02*
X45267619Y-77102819D01*
X45267619Y-77102819D02*
X45362857Y-77102819D01*
X45362857Y-77102819D02*
X45505714Y-77150438D01*
X45505714Y-77150438D02*
X45553333Y-77198057D01*
X45886667Y-77102819D02*
X46505714Y-77102819D01*
X46505714Y-77102819D02*
X46172381Y-77483771D01*
X46172381Y-77483771D02*
X46315238Y-77483771D01*
X46315238Y-77483771D02*
X46410476Y-77531390D01*
X46410476Y-77531390D02*
X46458095Y-77579009D01*
X46458095Y-77579009D02*
X46505714Y-77674247D01*
X46505714Y-77674247D02*
X46505714Y-77912342D01*
X46505714Y-77912342D02*
X46458095Y-78007580D01*
X46458095Y-78007580D02*
X46410476Y-78055200D01*
X46410476Y-78055200D02*
X46315238Y-78102819D01*
X46315238Y-78102819D02*
X46029524Y-78102819D01*
X46029524Y-78102819D02*
X45934286Y-78055200D01*
X45934286Y-78055200D02*
X45886667Y-78007580D01*
%TO.C,C10*%
X52189142Y-70311580D02*
X52141523Y-70359200D01*
X52141523Y-70359200D02*
X51998666Y-70406819D01*
X51998666Y-70406819D02*
X51903428Y-70406819D01*
X51903428Y-70406819D02*
X51760571Y-70359200D01*
X51760571Y-70359200D02*
X51665333Y-70263961D01*
X51665333Y-70263961D02*
X51617714Y-70168723D01*
X51617714Y-70168723D02*
X51570095Y-69978247D01*
X51570095Y-69978247D02*
X51570095Y-69835390D01*
X51570095Y-69835390D02*
X51617714Y-69644914D01*
X51617714Y-69644914D02*
X51665333Y-69549676D01*
X51665333Y-69549676D02*
X51760571Y-69454438D01*
X51760571Y-69454438D02*
X51903428Y-69406819D01*
X51903428Y-69406819D02*
X51998666Y-69406819D01*
X51998666Y-69406819D02*
X52141523Y-69454438D01*
X52141523Y-69454438D02*
X52189142Y-69502057D01*
X53141523Y-70406819D02*
X52570095Y-70406819D01*
X52855809Y-70406819D02*
X52855809Y-69406819D01*
X52855809Y-69406819D02*
X52760571Y-69549676D01*
X52760571Y-69549676D02*
X52665333Y-69644914D01*
X52665333Y-69644914D02*
X52570095Y-69692533D01*
X53760571Y-69406819D02*
X53855809Y-69406819D01*
X53855809Y-69406819D02*
X53951047Y-69454438D01*
X53951047Y-69454438D02*
X53998666Y-69502057D01*
X53998666Y-69502057D02*
X54046285Y-69597295D01*
X54046285Y-69597295D02*
X54093904Y-69787771D01*
X54093904Y-69787771D02*
X54093904Y-70025866D01*
X54093904Y-70025866D02*
X54046285Y-70216342D01*
X54046285Y-70216342D02*
X53998666Y-70311580D01*
X53998666Y-70311580D02*
X53951047Y-70359200D01*
X53951047Y-70359200D02*
X53855809Y-70406819D01*
X53855809Y-70406819D02*
X53760571Y-70406819D01*
X53760571Y-70406819D02*
X53665333Y-70359200D01*
X53665333Y-70359200D02*
X53617714Y-70311580D01*
X53617714Y-70311580D02*
X53570095Y-70216342D01*
X53570095Y-70216342D02*
X53522476Y-70025866D01*
X53522476Y-70025866D02*
X53522476Y-69787771D01*
X53522476Y-69787771D02*
X53570095Y-69597295D01*
X53570095Y-69597295D02*
X53617714Y-69502057D01*
X53617714Y-69502057D02*
X53665333Y-69454438D01*
X53665333Y-69454438D02*
X53760571Y-69406819D01*
%TO.C,C9*%
X52157333Y-72889580D02*
X52109714Y-72937200D01*
X52109714Y-72937200D02*
X51966857Y-72984819D01*
X51966857Y-72984819D02*
X51871619Y-72984819D01*
X51871619Y-72984819D02*
X51728762Y-72937200D01*
X51728762Y-72937200D02*
X51633524Y-72841961D01*
X51633524Y-72841961D02*
X51585905Y-72746723D01*
X51585905Y-72746723D02*
X51538286Y-72556247D01*
X51538286Y-72556247D02*
X51538286Y-72413390D01*
X51538286Y-72413390D02*
X51585905Y-72222914D01*
X51585905Y-72222914D02*
X51633524Y-72127676D01*
X51633524Y-72127676D02*
X51728762Y-72032438D01*
X51728762Y-72032438D02*
X51871619Y-71984819D01*
X51871619Y-71984819D02*
X51966857Y-71984819D01*
X51966857Y-71984819D02*
X52109714Y-72032438D01*
X52109714Y-72032438D02*
X52157333Y-72080057D01*
X52633524Y-72984819D02*
X52824000Y-72984819D01*
X52824000Y-72984819D02*
X52919238Y-72937200D01*
X52919238Y-72937200D02*
X52966857Y-72889580D01*
X52966857Y-72889580D02*
X53062095Y-72746723D01*
X53062095Y-72746723D02*
X53109714Y-72556247D01*
X53109714Y-72556247D02*
X53109714Y-72175295D01*
X53109714Y-72175295D02*
X53062095Y-72080057D01*
X53062095Y-72080057D02*
X53014476Y-72032438D01*
X53014476Y-72032438D02*
X52919238Y-71984819D01*
X52919238Y-71984819D02*
X52728762Y-71984819D01*
X52728762Y-71984819D02*
X52633524Y-72032438D01*
X52633524Y-72032438D02*
X52585905Y-72080057D01*
X52585905Y-72080057D02*
X52538286Y-72175295D01*
X52538286Y-72175295D02*
X52538286Y-72413390D01*
X52538286Y-72413390D02*
X52585905Y-72508628D01*
X52585905Y-72508628D02*
X52633524Y-72556247D01*
X52633524Y-72556247D02*
X52728762Y-72603866D01*
X52728762Y-72603866D02*
X52919238Y-72603866D01*
X52919238Y-72603866D02*
X53014476Y-72556247D01*
X53014476Y-72556247D02*
X53062095Y-72508628D01*
X53062095Y-72508628D02*
X53109714Y-72413390D01*
%TO.C,C2*%
X45553333Y-83125580D02*
X45505714Y-83173200D01*
X45505714Y-83173200D02*
X45362857Y-83220819D01*
X45362857Y-83220819D02*
X45267619Y-83220819D01*
X45267619Y-83220819D02*
X45124762Y-83173200D01*
X45124762Y-83173200D02*
X45029524Y-83077961D01*
X45029524Y-83077961D02*
X44981905Y-82982723D01*
X44981905Y-82982723D02*
X44934286Y-82792247D01*
X44934286Y-82792247D02*
X44934286Y-82649390D01*
X44934286Y-82649390D02*
X44981905Y-82458914D01*
X44981905Y-82458914D02*
X45029524Y-82363676D01*
X45029524Y-82363676D02*
X45124762Y-82268438D01*
X45124762Y-82268438D02*
X45267619Y-82220819D01*
X45267619Y-82220819D02*
X45362857Y-82220819D01*
X45362857Y-82220819D02*
X45505714Y-82268438D01*
X45505714Y-82268438D02*
X45553333Y-82316057D01*
X45934286Y-82316057D02*
X45981905Y-82268438D01*
X45981905Y-82268438D02*
X46077143Y-82220819D01*
X46077143Y-82220819D02*
X46315238Y-82220819D01*
X46315238Y-82220819D02*
X46410476Y-82268438D01*
X46410476Y-82268438D02*
X46458095Y-82316057D01*
X46458095Y-82316057D02*
X46505714Y-82411295D01*
X46505714Y-82411295D02*
X46505714Y-82506533D01*
X46505714Y-82506533D02*
X46458095Y-82649390D01*
X46458095Y-82649390D02*
X45886667Y-83220819D01*
X45886667Y-83220819D02*
X46505714Y-83220819D01*
%TO.C,D3*%
X60729905Y-80402819D02*
X60729905Y-79402819D01*
X60729905Y-79402819D02*
X60968000Y-79402819D01*
X60968000Y-79402819D02*
X61110857Y-79450438D01*
X61110857Y-79450438D02*
X61206095Y-79545676D01*
X61206095Y-79545676D02*
X61253714Y-79640914D01*
X61253714Y-79640914D02*
X61301333Y-79831390D01*
X61301333Y-79831390D02*
X61301333Y-79974247D01*
X61301333Y-79974247D02*
X61253714Y-80164723D01*
X61253714Y-80164723D02*
X61206095Y-80259961D01*
X61206095Y-80259961D02*
X61110857Y-80355200D01*
X61110857Y-80355200D02*
X60968000Y-80402819D01*
X60968000Y-80402819D02*
X60729905Y-80402819D01*
X61634667Y-79402819D02*
X62253714Y-79402819D01*
X62253714Y-79402819D02*
X61920381Y-79783771D01*
X61920381Y-79783771D02*
X62063238Y-79783771D01*
X62063238Y-79783771D02*
X62158476Y-79831390D01*
X62158476Y-79831390D02*
X62206095Y-79879009D01*
X62206095Y-79879009D02*
X62253714Y-79974247D01*
X62253714Y-79974247D02*
X62253714Y-80212342D01*
X62253714Y-80212342D02*
X62206095Y-80307580D01*
X62206095Y-80307580D02*
X62158476Y-80355200D01*
X62158476Y-80355200D02*
X62063238Y-80402819D01*
X62063238Y-80402819D02*
X61777524Y-80402819D01*
X61777524Y-80402819D02*
X61682286Y-80355200D01*
X61682286Y-80355200D02*
X61634667Y-80307580D01*
%TO.C,C12*%
X52189142Y-83163580D02*
X52141523Y-83211200D01*
X52141523Y-83211200D02*
X51998666Y-83258819D01*
X51998666Y-83258819D02*
X51903428Y-83258819D01*
X51903428Y-83258819D02*
X51760571Y-83211200D01*
X51760571Y-83211200D02*
X51665333Y-83115961D01*
X51665333Y-83115961D02*
X51617714Y-83020723D01*
X51617714Y-83020723D02*
X51570095Y-82830247D01*
X51570095Y-82830247D02*
X51570095Y-82687390D01*
X51570095Y-82687390D02*
X51617714Y-82496914D01*
X51617714Y-82496914D02*
X51665333Y-82401676D01*
X51665333Y-82401676D02*
X51760571Y-82306438D01*
X51760571Y-82306438D02*
X51903428Y-82258819D01*
X51903428Y-82258819D02*
X51998666Y-82258819D01*
X51998666Y-82258819D02*
X52141523Y-82306438D01*
X52141523Y-82306438D02*
X52189142Y-82354057D01*
X53141523Y-83258819D02*
X52570095Y-83258819D01*
X52855809Y-83258819D02*
X52855809Y-82258819D01*
X52855809Y-82258819D02*
X52760571Y-82401676D01*
X52760571Y-82401676D02*
X52665333Y-82496914D01*
X52665333Y-82496914D02*
X52570095Y-82544533D01*
X53522476Y-82354057D02*
X53570095Y-82306438D01*
X53570095Y-82306438D02*
X53665333Y-82258819D01*
X53665333Y-82258819D02*
X53903428Y-82258819D01*
X53903428Y-82258819D02*
X53998666Y-82306438D01*
X53998666Y-82306438D02*
X54046285Y-82354057D01*
X54046285Y-82354057D02*
X54093904Y-82449295D01*
X54093904Y-82449295D02*
X54093904Y-82544533D01*
X54093904Y-82544533D02*
X54046285Y-82687390D01*
X54046285Y-82687390D02*
X53474857Y-83258819D01*
X53474857Y-83258819D02*
X54093904Y-83258819D01*
%TO.C,J1*%
X39156819Y-78057333D02*
X39871104Y-78057333D01*
X39871104Y-78057333D02*
X40013961Y-78104952D01*
X40013961Y-78104952D02*
X40109200Y-78200190D01*
X40109200Y-78200190D02*
X40156819Y-78343047D01*
X40156819Y-78343047D02*
X40156819Y-78438285D01*
X40156819Y-77057333D02*
X40156819Y-77628761D01*
X40156819Y-77343047D02*
X39156819Y-77343047D01*
X39156819Y-77343047D02*
X39299676Y-77438285D01*
X39299676Y-77438285D02*
X39394914Y-77533523D01*
X39394914Y-77533523D02*
X39442533Y-77628761D01*
%TO.C,D2*%
X60729905Y-76750819D02*
X60729905Y-75750819D01*
X60729905Y-75750819D02*
X60968000Y-75750819D01*
X60968000Y-75750819D02*
X61110857Y-75798438D01*
X61110857Y-75798438D02*
X61206095Y-75893676D01*
X61206095Y-75893676D02*
X61253714Y-75988914D01*
X61253714Y-75988914D02*
X61301333Y-76179390D01*
X61301333Y-76179390D02*
X61301333Y-76322247D01*
X61301333Y-76322247D02*
X61253714Y-76512723D01*
X61253714Y-76512723D02*
X61206095Y-76607961D01*
X61206095Y-76607961D02*
X61110857Y-76703200D01*
X61110857Y-76703200D02*
X60968000Y-76750819D01*
X60968000Y-76750819D02*
X60729905Y-76750819D01*
X61682286Y-75846057D02*
X61729905Y-75798438D01*
X61729905Y-75798438D02*
X61825143Y-75750819D01*
X61825143Y-75750819D02*
X62063238Y-75750819D01*
X62063238Y-75750819D02*
X62158476Y-75798438D01*
X62158476Y-75798438D02*
X62206095Y-75846057D01*
X62206095Y-75846057D02*
X62253714Y-75941295D01*
X62253714Y-75941295D02*
X62253714Y-76036533D01*
X62253714Y-76036533D02*
X62206095Y-76179390D01*
X62206095Y-76179390D02*
X61634667Y-76750819D01*
X61634667Y-76750819D02*
X62253714Y-76750819D01*
%TO.C,Q1*%
X52228761Y-85894057D02*
X52133523Y-85846438D01*
X52133523Y-85846438D02*
X52038285Y-85751200D01*
X52038285Y-85751200D02*
X51895428Y-85608342D01*
X51895428Y-85608342D02*
X51800190Y-85560723D01*
X51800190Y-85560723D02*
X51704952Y-85560723D01*
X51752571Y-85798819D02*
X51657333Y-85751200D01*
X51657333Y-85751200D02*
X51562095Y-85655961D01*
X51562095Y-85655961D02*
X51514476Y-85465485D01*
X51514476Y-85465485D02*
X51514476Y-85132152D01*
X51514476Y-85132152D02*
X51562095Y-84941676D01*
X51562095Y-84941676D02*
X51657333Y-84846438D01*
X51657333Y-84846438D02*
X51752571Y-84798819D01*
X51752571Y-84798819D02*
X51943047Y-84798819D01*
X51943047Y-84798819D02*
X52038285Y-84846438D01*
X52038285Y-84846438D02*
X52133523Y-84941676D01*
X52133523Y-84941676D02*
X52181142Y-85132152D01*
X52181142Y-85132152D02*
X52181142Y-85465485D01*
X52181142Y-85465485D02*
X52133523Y-85655961D01*
X52133523Y-85655961D02*
X52038285Y-85751200D01*
X52038285Y-85751200D02*
X51943047Y-85798819D01*
X51943047Y-85798819D02*
X51752571Y-85798819D01*
X53133523Y-85798819D02*
X52562095Y-85798819D01*
X52847809Y-85798819D02*
X52847809Y-84798819D01*
X52847809Y-84798819D02*
X52752571Y-84941676D01*
X52752571Y-84941676D02*
X52657333Y-85036914D01*
X52657333Y-85036914D02*
X52562095Y-85084533D01*
%TO.C,D1*%
X60729905Y-73606819D02*
X60729905Y-72606819D01*
X60729905Y-72606819D02*
X60968000Y-72606819D01*
X60968000Y-72606819D02*
X61110857Y-72654438D01*
X61110857Y-72654438D02*
X61206095Y-72749676D01*
X61206095Y-72749676D02*
X61253714Y-72844914D01*
X61253714Y-72844914D02*
X61301333Y-73035390D01*
X61301333Y-73035390D02*
X61301333Y-73178247D01*
X61301333Y-73178247D02*
X61253714Y-73368723D01*
X61253714Y-73368723D02*
X61206095Y-73463961D01*
X61206095Y-73463961D02*
X61110857Y-73559200D01*
X61110857Y-73559200D02*
X60968000Y-73606819D01*
X60968000Y-73606819D02*
X60729905Y-73606819D01*
X62253714Y-73606819D02*
X61682286Y-73606819D01*
X61968000Y-73606819D02*
X61968000Y-72606819D01*
X61968000Y-72606819D02*
X61872762Y-72749676D01*
X61872762Y-72749676D02*
X61777524Y-72844914D01*
X61777524Y-72844914D02*
X61682286Y-72892533D01*
%TO.C,C11*%
X52189142Y-80623580D02*
X52141523Y-80671200D01*
X52141523Y-80671200D02*
X51998666Y-80718819D01*
X51998666Y-80718819D02*
X51903428Y-80718819D01*
X51903428Y-80718819D02*
X51760571Y-80671200D01*
X51760571Y-80671200D02*
X51665333Y-80575961D01*
X51665333Y-80575961D02*
X51617714Y-80480723D01*
X51617714Y-80480723D02*
X51570095Y-80290247D01*
X51570095Y-80290247D02*
X51570095Y-80147390D01*
X51570095Y-80147390D02*
X51617714Y-79956914D01*
X51617714Y-79956914D02*
X51665333Y-79861676D01*
X51665333Y-79861676D02*
X51760571Y-79766438D01*
X51760571Y-79766438D02*
X51903428Y-79718819D01*
X51903428Y-79718819D02*
X51998666Y-79718819D01*
X51998666Y-79718819D02*
X52141523Y-79766438D01*
X52141523Y-79766438D02*
X52189142Y-79814057D01*
X53141523Y-80718819D02*
X52570095Y-80718819D01*
X52855809Y-80718819D02*
X52855809Y-79718819D01*
X52855809Y-79718819D02*
X52760571Y-79861676D01*
X52760571Y-79861676D02*
X52665333Y-79956914D01*
X52665333Y-79956914D02*
X52570095Y-80004533D01*
X54093904Y-80718819D02*
X53522476Y-80718819D01*
X53808190Y-80718819D02*
X53808190Y-79718819D01*
X53808190Y-79718819D02*
X53712952Y-79861676D01*
X53712952Y-79861676D02*
X53617714Y-79956914D01*
X53617714Y-79956914D02*
X53522476Y-80004533D01*
%TO.C,R1*%
X41997333Y-88846819D02*
X41664000Y-88370628D01*
X41425905Y-88846819D02*
X41425905Y-87846819D01*
X41425905Y-87846819D02*
X41806857Y-87846819D01*
X41806857Y-87846819D02*
X41902095Y-87894438D01*
X41902095Y-87894438D02*
X41949714Y-87942057D01*
X41949714Y-87942057D02*
X41997333Y-88037295D01*
X41997333Y-88037295D02*
X41997333Y-88180152D01*
X41997333Y-88180152D02*
X41949714Y-88275390D01*
X41949714Y-88275390D02*
X41902095Y-88323009D01*
X41902095Y-88323009D02*
X41806857Y-88370628D01*
X41806857Y-88370628D02*
X41425905Y-88370628D01*
X42949714Y-88846819D02*
X42378286Y-88846819D01*
X42664000Y-88846819D02*
X42664000Y-87846819D01*
X42664000Y-87846819D02*
X42568762Y-87989676D01*
X42568762Y-87989676D02*
X42473524Y-88084914D01*
X42473524Y-88084914D02*
X42378286Y-88132533D01*
%TO.C,C6*%
X45553333Y-72952780D02*
X45505714Y-73000400D01*
X45505714Y-73000400D02*
X45362857Y-73048019D01*
X45362857Y-73048019D02*
X45267619Y-73048019D01*
X45267619Y-73048019D02*
X45124762Y-73000400D01*
X45124762Y-73000400D02*
X45029524Y-72905161D01*
X45029524Y-72905161D02*
X44981905Y-72809923D01*
X44981905Y-72809923D02*
X44934286Y-72619447D01*
X44934286Y-72619447D02*
X44934286Y-72476590D01*
X44934286Y-72476590D02*
X44981905Y-72286114D01*
X44981905Y-72286114D02*
X45029524Y-72190876D01*
X45029524Y-72190876D02*
X45124762Y-72095638D01*
X45124762Y-72095638D02*
X45267619Y-72048019D01*
X45267619Y-72048019D02*
X45362857Y-72048019D01*
X45362857Y-72048019D02*
X45505714Y-72095638D01*
X45505714Y-72095638D02*
X45553333Y-72143257D01*
X46410476Y-72048019D02*
X46220000Y-72048019D01*
X46220000Y-72048019D02*
X46124762Y-72095638D01*
X46124762Y-72095638D02*
X46077143Y-72143257D01*
X46077143Y-72143257D02*
X45981905Y-72286114D01*
X45981905Y-72286114D02*
X45934286Y-72476590D01*
X45934286Y-72476590D02*
X45934286Y-72857542D01*
X45934286Y-72857542D02*
X45981905Y-72952780D01*
X45981905Y-72952780D02*
X46029524Y-73000400D01*
X46029524Y-73000400D02*
X46124762Y-73048019D01*
X46124762Y-73048019D02*
X46315238Y-73048019D01*
X46315238Y-73048019D02*
X46410476Y-73000400D01*
X46410476Y-73000400D02*
X46458095Y-72952780D01*
X46458095Y-72952780D02*
X46505714Y-72857542D01*
X46505714Y-72857542D02*
X46505714Y-72619447D01*
X46505714Y-72619447D02*
X46458095Y-72524209D01*
X46458095Y-72524209D02*
X46410476Y-72476590D01*
X46410476Y-72476590D02*
X46315238Y-72428971D01*
X46315238Y-72428971D02*
X46124762Y-72428971D01*
X46124762Y-72428971D02*
X46029524Y-72476590D01*
X46029524Y-72476590D02*
X45981905Y-72524209D01*
X45981905Y-72524209D02*
X45934286Y-72619447D01*
%TO.C,C4*%
X45553333Y-75429580D02*
X45505714Y-75477200D01*
X45505714Y-75477200D02*
X45362857Y-75524819D01*
X45362857Y-75524819D02*
X45267619Y-75524819D01*
X45267619Y-75524819D02*
X45124762Y-75477200D01*
X45124762Y-75477200D02*
X45029524Y-75381961D01*
X45029524Y-75381961D02*
X44981905Y-75286723D01*
X44981905Y-75286723D02*
X44934286Y-75096247D01*
X44934286Y-75096247D02*
X44934286Y-74953390D01*
X44934286Y-74953390D02*
X44981905Y-74762914D01*
X44981905Y-74762914D02*
X45029524Y-74667676D01*
X45029524Y-74667676D02*
X45124762Y-74572438D01*
X45124762Y-74572438D02*
X45267619Y-74524819D01*
X45267619Y-74524819D02*
X45362857Y-74524819D01*
X45362857Y-74524819D02*
X45505714Y-74572438D01*
X45505714Y-74572438D02*
X45553333Y-74620057D01*
X46410476Y-74858152D02*
X46410476Y-75524819D01*
X46172381Y-74477200D02*
X45934286Y-75191485D01*
X45934286Y-75191485D02*
X46553333Y-75191485D01*
%TO.C,R2*%
X45553333Y-85798819D02*
X45220000Y-85322628D01*
X44981905Y-85798819D02*
X44981905Y-84798819D01*
X44981905Y-84798819D02*
X45362857Y-84798819D01*
X45362857Y-84798819D02*
X45458095Y-84846438D01*
X45458095Y-84846438D02*
X45505714Y-84894057D01*
X45505714Y-84894057D02*
X45553333Y-84989295D01*
X45553333Y-84989295D02*
X45553333Y-85132152D01*
X45553333Y-85132152D02*
X45505714Y-85227390D01*
X45505714Y-85227390D02*
X45458095Y-85275009D01*
X45458095Y-85275009D02*
X45362857Y-85322628D01*
X45362857Y-85322628D02*
X44981905Y-85322628D01*
X45934286Y-84894057D02*
X45981905Y-84846438D01*
X45981905Y-84846438D02*
X46077143Y-84798819D01*
X46077143Y-84798819D02*
X46315238Y-84798819D01*
X46315238Y-84798819D02*
X46410476Y-84846438D01*
X46410476Y-84846438D02*
X46458095Y-84894057D01*
X46458095Y-84894057D02*
X46505714Y-84989295D01*
X46505714Y-84989295D02*
X46505714Y-85084533D01*
X46505714Y-85084533D02*
X46458095Y-85227390D01*
X46458095Y-85227390D02*
X45886667Y-85798819D01*
X45886667Y-85798819D02*
X46505714Y-85798819D01*
%TO.C,C7*%
X52157333Y-78045580D02*
X52109714Y-78093200D01*
X52109714Y-78093200D02*
X51966857Y-78140819D01*
X51966857Y-78140819D02*
X51871619Y-78140819D01*
X51871619Y-78140819D02*
X51728762Y-78093200D01*
X51728762Y-78093200D02*
X51633524Y-77997961D01*
X51633524Y-77997961D02*
X51585905Y-77902723D01*
X51585905Y-77902723D02*
X51538286Y-77712247D01*
X51538286Y-77712247D02*
X51538286Y-77569390D01*
X51538286Y-77569390D02*
X51585905Y-77378914D01*
X51585905Y-77378914D02*
X51633524Y-77283676D01*
X51633524Y-77283676D02*
X51728762Y-77188438D01*
X51728762Y-77188438D02*
X51871619Y-77140819D01*
X51871619Y-77140819D02*
X51966857Y-77140819D01*
X51966857Y-77140819D02*
X52109714Y-77188438D01*
X52109714Y-77188438D02*
X52157333Y-77236057D01*
X52490667Y-77140819D02*
X53157333Y-77140819D01*
X53157333Y-77140819D02*
X52728762Y-78140819D01*
D12*
%TO.C,J2*%
X72890000Y-88292000D02*
X72890000Y-87272000D01*
X77140000Y-88292000D02*
X72890000Y-88292000D01*
X72890000Y-87272000D02*
X74490000Y-87272000D01*
X74490000Y-87272000D02*
X74490000Y-85992000D01*
X80710000Y-86572000D02*
X80710000Y-69892000D01*
X74490000Y-85992000D02*
X71600000Y-85992000D01*
X72890000Y-69192000D02*
X74490000Y-69192000D01*
X74490000Y-69192000D02*
X74490000Y-70472000D01*
X72890000Y-68172000D02*
X72890000Y-69192000D01*
X77140000Y-68172000D02*
X72890000Y-68172000D01*
%TO.C,C8*%
X50045252Y-75919000D02*
X49522748Y-75919000D01*
X50045252Y-74449000D02*
X49522748Y-74449000D01*
%TO.C,R6*%
X43407064Y-80999000D02*
X42952936Y-80999000D01*
X43407064Y-79529000D02*
X42952936Y-79529000D01*
%TO.C,L1*%
X60680000Y-87604000D02*
X60680000Y-87454000D01*
X60680000Y-87604000D02*
X56160000Y-87604000D01*
X60680000Y-83084000D02*
X60680000Y-83234000D01*
X60680000Y-83084000D02*
X56160000Y-83084000D01*
X56160000Y-87604000D02*
X56160000Y-87454000D01*
X56160000Y-83084000D02*
X56160000Y-83234000D01*
%TO.C,C3*%
X43441252Y-78459000D02*
X42918748Y-78459000D01*
X43441252Y-76989000D02*
X42918748Y-76989000D01*
%TO.C,C10*%
X50045252Y-70839000D02*
X49522748Y-70839000D01*
X50045252Y-69369000D02*
X49522748Y-69369000D01*
%TO.C,C9*%
X50045252Y-73379000D02*
X49522748Y-73379000D01*
X50045252Y-71909000D02*
X49522748Y-71909000D01*
%TO.C,C2*%
X43441252Y-83539000D02*
X42918748Y-83539000D01*
X43441252Y-82069000D02*
X42918748Y-82069000D01*
%TO.C,D3*%
X60272000Y-80852000D02*
X60272000Y-78852000D01*
X60272000Y-80852000D02*
X56262000Y-80852000D01*
X60272000Y-78852000D02*
X56262000Y-78852000D01*
%TO.C,C12*%
X50045252Y-83539000D02*
X49522748Y-83539000D01*
X50045252Y-82069000D02*
X49522748Y-82069000D01*
%TO.C,J1*%
X37302000Y-70074000D02*
X35962000Y-70074000D01*
X33242000Y-70074000D02*
X31502000Y-70074000D01*
X31502000Y-70074000D02*
X31502000Y-85374000D01*
X37302000Y-71564000D02*
X37302000Y-70074000D01*
X37302000Y-71564000D02*
X38502000Y-71564000D01*
X37302000Y-83884000D02*
X37302000Y-85374000D01*
X37302000Y-85374000D02*
X35962000Y-85374000D01*
X31502000Y-85374000D02*
X33242000Y-85374000D01*
%TO.C,D2*%
X55552000Y-75502000D02*
X55552000Y-77502000D01*
X55552000Y-75502000D02*
X59562000Y-75502000D01*
X55552000Y-77502000D02*
X59562000Y-77502000D01*
%TO.C,Q1*%
X49104000Y-84326000D02*
X50514000Y-84326000D01*
X49104000Y-86646000D02*
X50514000Y-86646000D01*
X50514000Y-84326000D02*
X50514000Y-84986000D01*
X50514000Y-85986000D02*
X50514000Y-86646000D01*
X48734000Y-84346000D02*
X48494000Y-84016000D01*
X48974000Y-84016000D01*
X48734000Y-84346000D01*
G36*
X48734000Y-84346000D02*
G01*
X48494000Y-84016000D01*
X48974000Y-84016000D01*
X48734000Y-84346000D01*
G37*
%TO.C,D1*%
X60272000Y-74152000D02*
X60272000Y-72152000D01*
X60272000Y-74152000D02*
X56262000Y-74152000D01*
X60272000Y-72152000D02*
X56262000Y-72152000D01*
%TO.C,C11*%
X49522748Y-79529000D02*
X50045252Y-79529000D01*
X49522748Y-80999000D02*
X50045252Y-80999000D01*
%TO.C,R1*%
X44996263Y-87037000D02*
X46443737Y-87037000D01*
X44996263Y-89747000D02*
X46443737Y-89747000D01*
%TO.C,C6*%
X43441252Y-73379000D02*
X42918748Y-73379000D01*
X43441252Y-71909000D02*
X42918748Y-71909000D01*
%TO.C,REF\u002A\u002A*%
G36*
X54620000Y-68710000D02*
X54620000Y-68670000D01*
X54860000Y-68670000D01*
X54860000Y-68710000D01*
X54620000Y-68710000D01*
G37*
G36*
X61340000Y-68710000D02*
X61340000Y-68670000D01*
X61580000Y-68670000D01*
X61580000Y-68710000D01*
X61340000Y-68710000D01*
G37*
G36*
X66180000Y-68710000D02*
X66180000Y-68670000D01*
X66540000Y-68670000D01*
X66540000Y-68710000D01*
X66180000Y-68710000D01*
G37*
G36*
X54620000Y-68670000D02*
X54620000Y-68630000D01*
X54860000Y-68630000D01*
X54860000Y-68670000D01*
X54620000Y-68670000D01*
G37*
G36*
X61340000Y-68670000D02*
X61340000Y-68630000D01*
X61580000Y-68630000D01*
X61580000Y-68670000D01*
X61340000Y-68670000D01*
G37*
G36*
X66060000Y-68670000D02*
X66060000Y-68630000D01*
X66660000Y-68630000D01*
X66660000Y-68670000D01*
X66060000Y-68670000D01*
G37*
G36*
X54620000Y-68630000D02*
X54620000Y-68590000D01*
X54860000Y-68590000D01*
X54860000Y-68630000D01*
X54620000Y-68630000D01*
G37*
G36*
X61340000Y-68630000D02*
X61340000Y-68590000D01*
X61580000Y-68590000D01*
X61580000Y-68630000D01*
X61340000Y-68630000D01*
G37*
G36*
X66020000Y-68630000D02*
X66020000Y-68590000D01*
X66780000Y-68590000D01*
X66780000Y-68630000D01*
X66020000Y-68630000D01*
G37*
G36*
X54620000Y-68590000D02*
X54620000Y-68550000D01*
X54860000Y-68550000D01*
X54860000Y-68590000D01*
X54620000Y-68590000D01*
G37*
G36*
X61340000Y-68590000D02*
X61340000Y-68550000D01*
X61580000Y-68550000D01*
X61580000Y-68590000D01*
X61340000Y-68590000D01*
G37*
G36*
X65980000Y-68590000D02*
X65980000Y-68550000D01*
X66860000Y-68550000D01*
X66860000Y-68590000D01*
X65980000Y-68590000D01*
G37*
G36*
X54620000Y-68550000D02*
X54620000Y-68510000D01*
X54860000Y-68510000D01*
X54860000Y-68550000D01*
X54620000Y-68550000D01*
G37*
G36*
X61340000Y-68550000D02*
X61340000Y-68510000D01*
X61580000Y-68510000D01*
X61580000Y-68550000D01*
X61340000Y-68550000D01*
G37*
G36*
X65940000Y-68550000D02*
X65940000Y-68510000D01*
X66260000Y-68510000D01*
X66260000Y-68550000D01*
X65940000Y-68550000D01*
G37*
G36*
X66460000Y-68550000D02*
X66460000Y-68510000D01*
X66860000Y-68510000D01*
X66860000Y-68550000D01*
X66460000Y-68550000D01*
G37*
G36*
X54620000Y-68510000D02*
X54620000Y-68470000D01*
X54860000Y-68470000D01*
X54860000Y-68510000D01*
X54620000Y-68510000D01*
G37*
G36*
X61340000Y-68510000D02*
X61340000Y-68470000D01*
X61580000Y-68470000D01*
X61580000Y-68510000D01*
X61340000Y-68510000D01*
G37*
G36*
X65940000Y-68510000D02*
X65940000Y-68470000D01*
X66180000Y-68470000D01*
X66180000Y-68510000D01*
X65940000Y-68510000D01*
G37*
G36*
X66580000Y-68510000D02*
X66580000Y-68470000D01*
X66860000Y-68470000D01*
X66860000Y-68510000D01*
X66580000Y-68510000D01*
G37*
G36*
X54620000Y-68470000D02*
X54620000Y-68430000D01*
X54860000Y-68430000D01*
X54860000Y-68470000D01*
X54620000Y-68470000D01*
G37*
G36*
X61340000Y-68470000D02*
X61340000Y-68430000D01*
X61580000Y-68430000D01*
X61580000Y-68470000D01*
X61340000Y-68470000D01*
G37*
G36*
X65900000Y-68470000D02*
X65900000Y-68430000D01*
X66140000Y-68430000D01*
X66140000Y-68470000D01*
X65900000Y-68470000D01*
G37*
G36*
X66660000Y-68470000D02*
X66660000Y-68430000D01*
X66900000Y-68430000D01*
X66900000Y-68470000D01*
X66660000Y-68470000D01*
G37*
G36*
X54620000Y-68430000D02*
X54620000Y-68390000D01*
X54860000Y-68390000D01*
X54860000Y-68430000D01*
X54620000Y-68430000D01*
G37*
G36*
X61340000Y-68430000D02*
X61340000Y-68390000D01*
X61580000Y-68390000D01*
X61580000Y-68430000D01*
X61340000Y-68430000D01*
G37*
G36*
X65900000Y-68430000D02*
X65900000Y-68390000D01*
X66140000Y-68390000D01*
X66140000Y-68430000D01*
X65900000Y-68430000D01*
G37*
G36*
X66700000Y-68430000D02*
X66700000Y-68390000D01*
X66900000Y-68390000D01*
X66900000Y-68430000D01*
X66700000Y-68430000D01*
G37*
G36*
X54620000Y-68390000D02*
X54620000Y-68350000D01*
X54860000Y-68350000D01*
X54860000Y-68390000D01*
X54620000Y-68390000D01*
G37*
G36*
X61340000Y-68390000D02*
X61340000Y-68350000D01*
X61580000Y-68350000D01*
X61580000Y-68390000D01*
X61340000Y-68390000D01*
G37*
G36*
X65980000Y-68390000D02*
X65980000Y-68350000D01*
X66100000Y-68350000D01*
X66100000Y-68390000D01*
X65980000Y-68390000D01*
G37*
G36*
X66700000Y-68390000D02*
X66700000Y-68350000D01*
X66900000Y-68350000D01*
X66900000Y-68390000D01*
X66700000Y-68390000D01*
G37*
G36*
X54620000Y-68350000D02*
X54620000Y-68310000D01*
X54860000Y-68310000D01*
X54860000Y-68350000D01*
X54620000Y-68350000D01*
G37*
G36*
X61340000Y-68350000D02*
X61340000Y-68310000D01*
X61580000Y-68310000D01*
X61580000Y-68350000D01*
X61340000Y-68350000D01*
G37*
G36*
X66700000Y-68350000D02*
X66700000Y-68310000D01*
X66940000Y-68310000D01*
X66940000Y-68350000D01*
X66700000Y-68350000D01*
G37*
G36*
X54620000Y-68310000D02*
X54620000Y-68230000D01*
X54860000Y-68230000D01*
X54860000Y-68310000D01*
X54620000Y-68310000D01*
G37*
G36*
X61340000Y-68310000D02*
X61340000Y-68230000D01*
X61580000Y-68230000D01*
X61580000Y-68310000D01*
X61340000Y-68310000D01*
G37*
G36*
X66740000Y-68310000D02*
X66740000Y-68230000D01*
X66940000Y-68230000D01*
X66940000Y-68310000D01*
X66740000Y-68310000D01*
G37*
G36*
X54620000Y-68230000D02*
X54620000Y-68190000D01*
X54860000Y-68190000D01*
X54860000Y-68230000D01*
X54620000Y-68230000D01*
G37*
G36*
X61340000Y-68230000D02*
X61340000Y-68190000D01*
X61580000Y-68190000D01*
X61580000Y-68230000D01*
X61340000Y-68230000D01*
G37*
G36*
X66740000Y-68230000D02*
X66740000Y-68190000D01*
X66980000Y-68190000D01*
X66980000Y-68230000D01*
X66740000Y-68230000D01*
G37*
G36*
X53500000Y-68190000D02*
X53500000Y-68150000D01*
X53980000Y-68150000D01*
X53980000Y-68190000D01*
X53500000Y-68190000D01*
G37*
G36*
X54620000Y-68190000D02*
X54620000Y-68150000D01*
X54860000Y-68150000D01*
X54860000Y-68190000D01*
X54620000Y-68190000D01*
G37*
G36*
X55140000Y-68190000D02*
X55140000Y-68150000D01*
X55380000Y-68150000D01*
X55380000Y-68190000D01*
X55140000Y-68190000D01*
G37*
G36*
X56420000Y-68190000D02*
X56420000Y-68150000D01*
X56860000Y-68150000D01*
X56860000Y-68190000D01*
X56420000Y-68190000D01*
G37*
G36*
X57580000Y-68190000D02*
X57580000Y-68150000D01*
X57780000Y-68150000D01*
X57780000Y-68190000D01*
X57580000Y-68190000D01*
G37*
G36*
X58460000Y-68190000D02*
X58460000Y-68150000D01*
X58660000Y-68150000D01*
X58660000Y-68190000D01*
X58460000Y-68190000D01*
G37*
G36*
X60220000Y-68190000D02*
X60220000Y-68150000D01*
X60660000Y-68150000D01*
X60660000Y-68190000D01*
X60220000Y-68190000D01*
G37*
G36*
X61340000Y-68190000D02*
X61340000Y-68150000D01*
X61580000Y-68150000D01*
X61580000Y-68190000D01*
X61340000Y-68190000D01*
G37*
G36*
X61860000Y-68190000D02*
X61860000Y-68150000D01*
X62100000Y-68150000D01*
X62100000Y-68190000D01*
X61860000Y-68190000D01*
G37*
G36*
X62900000Y-68190000D02*
X62900000Y-68150000D01*
X63140000Y-68150000D01*
X63140000Y-68190000D01*
X62900000Y-68190000D01*
G37*
G36*
X63860000Y-68190000D02*
X63860000Y-68150000D01*
X64340000Y-68150000D01*
X64340000Y-68190000D01*
X63860000Y-68190000D01*
G37*
G36*
X65020000Y-68190000D02*
X65020000Y-68150000D01*
X65260000Y-68150000D01*
X65260000Y-68190000D01*
X65020000Y-68190000D01*
G37*
G36*
X66180000Y-68190000D02*
X66180000Y-68150000D01*
X66460000Y-68150000D01*
X66460000Y-68190000D01*
X66180000Y-68190000D01*
G37*
G36*
X66740000Y-68190000D02*
X66740000Y-68150000D01*
X66980000Y-68150000D01*
X66980000Y-68190000D01*
X66740000Y-68190000D01*
G37*
G36*
X53420000Y-68150000D02*
X53420000Y-68110000D01*
X54060000Y-68110000D01*
X54060000Y-68150000D01*
X53420000Y-68150000D01*
G37*
G36*
X54620000Y-68150000D02*
X54620000Y-68110000D01*
X54860000Y-68110000D01*
X54860000Y-68150000D01*
X54620000Y-68150000D01*
G37*
G36*
X55020000Y-68150000D02*
X55020000Y-68110000D01*
X55460000Y-68110000D01*
X55460000Y-68150000D01*
X55020000Y-68150000D01*
G37*
G36*
X56340000Y-68150000D02*
X56340000Y-68110000D01*
X57020000Y-68110000D01*
X57020000Y-68150000D01*
X56340000Y-68150000D01*
G37*
G36*
X57580000Y-68150000D02*
X57580000Y-68110000D01*
X57780000Y-68110000D01*
X57780000Y-68150000D01*
X57580000Y-68150000D01*
G37*
G36*
X58460000Y-68150000D02*
X58460000Y-68110000D01*
X58660000Y-68110000D01*
X58660000Y-68150000D01*
X58460000Y-68150000D01*
G37*
G36*
X60140000Y-68150000D02*
X60140000Y-68110000D01*
X60820000Y-68110000D01*
X60820000Y-68150000D01*
X60140000Y-68150000D01*
G37*
G36*
X61340000Y-68150000D02*
X61340000Y-68110000D01*
X61580000Y-68110000D01*
X61580000Y-68150000D01*
X61340000Y-68150000D01*
G37*
G36*
X61740000Y-68150000D02*
X61740000Y-68110000D01*
X62180000Y-68110000D01*
X62180000Y-68150000D01*
X61740000Y-68150000D01*
G37*
G36*
X62900000Y-68150000D02*
X62900000Y-68110000D01*
X63140000Y-68110000D01*
X63140000Y-68150000D01*
X62900000Y-68150000D01*
G37*
G36*
X63780000Y-68150000D02*
X63780000Y-68110000D01*
X64420000Y-68110000D01*
X64420000Y-68150000D01*
X63780000Y-68150000D01*
G37*
G36*
X65020000Y-68150000D02*
X65020000Y-68110000D01*
X65260000Y-68110000D01*
X65260000Y-68150000D01*
X65020000Y-68150000D01*
G37*
G36*
X66060000Y-68150000D02*
X66060000Y-68110000D01*
X66580000Y-68110000D01*
X66580000Y-68150000D01*
X66060000Y-68150000D01*
G37*
G36*
X66780000Y-68150000D02*
X66780000Y-68110000D01*
X66980000Y-68110000D01*
X66980000Y-68150000D01*
X66780000Y-68150000D01*
G37*
G36*
X53340000Y-68110000D02*
X53340000Y-68070000D01*
X54100000Y-68070000D01*
X54100000Y-68110000D01*
X53340000Y-68110000D01*
G37*
G36*
X54620000Y-68110000D02*
X54620000Y-68070000D01*
X54860000Y-68070000D01*
X54860000Y-68110000D01*
X54620000Y-68110000D01*
G37*
G36*
X54980000Y-68110000D02*
X54980000Y-68070000D01*
X55540000Y-68070000D01*
X55540000Y-68110000D01*
X54980000Y-68110000D01*
G37*
G36*
X56300000Y-68110000D02*
X56300000Y-68070000D01*
X57060000Y-68070000D01*
X57060000Y-68110000D01*
X56300000Y-68110000D01*
G37*
G36*
X57580000Y-68110000D02*
X57580000Y-68070000D01*
X57780000Y-68070000D01*
X57780000Y-68110000D01*
X57580000Y-68110000D01*
G37*
G36*
X58460000Y-68110000D02*
X58460000Y-68070000D01*
X58660000Y-68070000D01*
X58660000Y-68110000D01*
X58460000Y-68110000D01*
G37*
G36*
X60100000Y-68110000D02*
X60100000Y-68070000D01*
X60860000Y-68070000D01*
X60860000Y-68110000D01*
X60100000Y-68110000D01*
G37*
G36*
X61340000Y-68110000D02*
X61340000Y-68070000D01*
X61580000Y-68070000D01*
X61580000Y-68110000D01*
X61340000Y-68110000D01*
G37*
G36*
X61700000Y-68110000D02*
X61700000Y-68070000D01*
X62260000Y-68070000D01*
X62260000Y-68110000D01*
X61700000Y-68110000D01*
G37*
G36*
X62900000Y-68110000D02*
X62900000Y-68070000D01*
X63140000Y-68070000D01*
X63140000Y-68110000D01*
X62900000Y-68110000D01*
G37*
G36*
X63740000Y-68110000D02*
X63740000Y-68070000D01*
X64460000Y-68070000D01*
X64460000Y-68110000D01*
X63740000Y-68110000D01*
G37*
G36*
X65020000Y-68110000D02*
X65020000Y-68070000D01*
X65260000Y-68070000D01*
X65260000Y-68110000D01*
X65020000Y-68110000D01*
G37*
G36*
X66020000Y-68110000D02*
X66020000Y-68070000D01*
X66620000Y-68070000D01*
X66620000Y-68110000D01*
X66020000Y-68110000D01*
G37*
G36*
X66780000Y-68110000D02*
X66780000Y-68070000D01*
X66980000Y-68070000D01*
X66980000Y-68110000D01*
X66780000Y-68110000D01*
G37*
G36*
X53300000Y-68070000D02*
X53300000Y-68030000D01*
X54180000Y-68030000D01*
X54180000Y-68070000D01*
X53300000Y-68070000D01*
G37*
G36*
X54620000Y-68070000D02*
X54620000Y-68030000D01*
X54860000Y-68030000D01*
X54860000Y-68070000D01*
X54620000Y-68070000D01*
G37*
G36*
X54940000Y-68070000D02*
X54940000Y-68030000D01*
X55660000Y-68030000D01*
X55660000Y-68070000D01*
X54940000Y-68070000D01*
G37*
G36*
X56220000Y-68070000D02*
X56220000Y-68030000D01*
X57100000Y-68030000D01*
X57100000Y-68070000D01*
X56220000Y-68070000D01*
G37*
G36*
X57580000Y-68070000D02*
X57580000Y-68030000D01*
X57780000Y-68030000D01*
X57780000Y-68070000D01*
X57580000Y-68070000D01*
G37*
G36*
X58460000Y-68070000D02*
X58460000Y-68030000D01*
X58660000Y-68030000D01*
X58660000Y-68070000D01*
X58460000Y-68070000D01*
G37*
G36*
X60020000Y-68070000D02*
X60020000Y-68030000D01*
X60900000Y-68030000D01*
X60900000Y-68070000D01*
X60020000Y-68070000D01*
G37*
G36*
X61340000Y-68070000D02*
X61340000Y-68030000D01*
X61580000Y-68030000D01*
X61580000Y-68070000D01*
X61340000Y-68070000D01*
G37*
G36*
X61660000Y-68070000D02*
X61660000Y-68030000D01*
X62380000Y-68030000D01*
X62380000Y-68070000D01*
X61660000Y-68070000D01*
G37*
G36*
X62900000Y-68070000D02*
X62900000Y-68030000D01*
X63140000Y-68030000D01*
X63140000Y-68070000D01*
X62900000Y-68070000D01*
G37*
G36*
X63660000Y-68070000D02*
X63660000Y-68030000D01*
X64540000Y-68030000D01*
X64540000Y-68070000D01*
X63660000Y-68070000D01*
G37*
G36*
X65020000Y-68070000D02*
X65020000Y-68030000D01*
X65260000Y-68030000D01*
X65260000Y-68070000D01*
X65020000Y-68070000D01*
G37*
G36*
X65980000Y-68070000D02*
X65980000Y-68030000D01*
X66660000Y-68030000D01*
X66660000Y-68070000D01*
X65980000Y-68070000D01*
G37*
G36*
X66780000Y-68070000D02*
X66780000Y-68030000D01*
X66980000Y-68030000D01*
X66980000Y-68070000D01*
X66780000Y-68070000D01*
G37*
G36*
X53260000Y-68030000D02*
X53260000Y-67990000D01*
X54220000Y-67990000D01*
X54220000Y-68030000D01*
X53260000Y-68030000D01*
G37*
G36*
X54620000Y-68030000D02*
X54620000Y-67990000D01*
X54860000Y-67990000D01*
X54860000Y-68030000D01*
X54620000Y-68030000D01*
G37*
G36*
X54900000Y-68030000D02*
X54900000Y-67990000D01*
X55700000Y-67990000D01*
X55700000Y-68030000D01*
X54900000Y-68030000D01*
G37*
G36*
X56180000Y-68030000D02*
X56180000Y-67990000D01*
X56540000Y-67990000D01*
X56540000Y-68030000D01*
X56180000Y-68030000D01*
G37*
G36*
X56820000Y-68030000D02*
X56820000Y-67990000D01*
X57140000Y-67990000D01*
X57140000Y-68030000D01*
X56820000Y-68030000D01*
G37*
G36*
X57580000Y-68030000D02*
X57580000Y-67990000D01*
X57780000Y-67990000D01*
X57780000Y-68030000D01*
X57580000Y-68030000D01*
G37*
G36*
X58460000Y-68030000D02*
X58460000Y-67990000D01*
X58660000Y-67990000D01*
X58660000Y-68030000D01*
X58460000Y-68030000D01*
G37*
G36*
X59980000Y-68030000D02*
X59980000Y-67990000D01*
X60300000Y-67990000D01*
X60300000Y-68030000D01*
X59980000Y-68030000D01*
G37*
G36*
X60620000Y-68030000D02*
X60620000Y-67990000D01*
X60940000Y-67990000D01*
X60940000Y-68030000D01*
X60620000Y-68030000D01*
G37*
G36*
X61340000Y-68030000D02*
X61340000Y-67990000D01*
X61580000Y-67990000D01*
X61580000Y-68030000D01*
X61340000Y-68030000D01*
G37*
G36*
X61620000Y-68030000D02*
X61620000Y-67990000D01*
X62420000Y-67990000D01*
X62420000Y-68030000D01*
X61620000Y-68030000D01*
G37*
G36*
X62900000Y-68030000D02*
X62900000Y-67990000D01*
X63140000Y-67990000D01*
X63140000Y-68030000D01*
X62900000Y-68030000D01*
G37*
G36*
X63620000Y-68030000D02*
X63620000Y-67990000D01*
X64580000Y-67990000D01*
X64580000Y-68030000D01*
X63620000Y-68030000D01*
G37*
G36*
X65020000Y-68030000D02*
X65020000Y-67990000D01*
X65260000Y-67990000D01*
X65260000Y-68030000D01*
X65020000Y-68030000D01*
G37*
G36*
X65940000Y-68030000D02*
X65940000Y-67990000D01*
X66700000Y-67990000D01*
X66700000Y-68030000D01*
X65940000Y-68030000D01*
G37*
G36*
X66780000Y-68030000D02*
X66780000Y-67990000D01*
X66980000Y-67990000D01*
X66980000Y-68030000D01*
X66780000Y-68030000D01*
G37*
G36*
X53220000Y-67990000D02*
X53220000Y-67950000D01*
X54220000Y-67950000D01*
X54220000Y-67990000D01*
X53220000Y-67990000D01*
G37*
G36*
X54620000Y-67990000D02*
X54620000Y-67950000D01*
X55700000Y-67950000D01*
X55700000Y-67990000D01*
X54620000Y-67990000D01*
G37*
G36*
X56180000Y-67990000D02*
X56180000Y-67950000D01*
X56460000Y-67950000D01*
X56460000Y-67990000D01*
X56180000Y-67990000D01*
G37*
G36*
X56900000Y-67990000D02*
X56900000Y-67950000D01*
X57140000Y-67950000D01*
X57140000Y-67990000D01*
X56900000Y-67990000D01*
G37*
G36*
X57580000Y-67990000D02*
X57580000Y-67950000D01*
X57780000Y-67950000D01*
X57780000Y-67990000D01*
X57580000Y-67990000D01*
G37*
G36*
X58460000Y-67990000D02*
X58460000Y-67950000D01*
X58660000Y-67950000D01*
X58660000Y-67990000D01*
X58460000Y-67990000D01*
G37*
G36*
X59980000Y-67990000D02*
X59980000Y-67950000D01*
X60260000Y-67950000D01*
X60260000Y-67990000D01*
X59980000Y-67990000D01*
G37*
G36*
X60700000Y-67990000D02*
X60700000Y-67950000D01*
X60940000Y-67950000D01*
X60940000Y-67990000D01*
X60700000Y-67990000D01*
G37*
G36*
X61340000Y-67990000D02*
X61340000Y-67950000D01*
X62420000Y-67950000D01*
X62420000Y-67990000D01*
X61340000Y-67990000D01*
G37*
G36*
X62900000Y-67990000D02*
X62900000Y-67950000D01*
X63140000Y-67950000D01*
X63140000Y-67990000D01*
X62900000Y-67990000D01*
G37*
G36*
X63620000Y-67990000D02*
X63620000Y-67950000D01*
X64580000Y-67950000D01*
X64580000Y-67990000D01*
X63620000Y-67990000D01*
G37*
G36*
X65020000Y-67990000D02*
X65020000Y-67950000D01*
X65260000Y-67950000D01*
X65260000Y-67990000D01*
X65020000Y-67990000D01*
G37*
G36*
X65900000Y-67990000D02*
X65900000Y-67950000D01*
X66740000Y-67950000D01*
X66740000Y-67990000D01*
X65900000Y-67990000D01*
G37*
G36*
X66780000Y-67990000D02*
X66780000Y-67950000D01*
X66980000Y-67950000D01*
X66980000Y-67990000D01*
X66780000Y-67990000D01*
G37*
G36*
X53220000Y-67950000D02*
X53220000Y-67910000D01*
X54260000Y-67910000D01*
X54260000Y-67950000D01*
X53220000Y-67950000D01*
G37*
G36*
X54620000Y-67950000D02*
X54620000Y-67910000D01*
X55700000Y-67910000D01*
X55700000Y-67950000D01*
X54620000Y-67950000D01*
G37*
G36*
X56140000Y-67950000D02*
X56140000Y-67910000D01*
X56420000Y-67910000D01*
X56420000Y-67950000D01*
X56140000Y-67950000D01*
G37*
G36*
X56940000Y-67950000D02*
X56940000Y-67910000D01*
X57180000Y-67910000D01*
X57180000Y-67950000D01*
X56940000Y-67950000D01*
G37*
G36*
X57580000Y-67950000D02*
X57580000Y-67910000D01*
X57780000Y-67910000D01*
X57780000Y-67950000D01*
X57580000Y-67950000D01*
G37*
G36*
X58460000Y-67950000D02*
X58460000Y-67910000D01*
X58660000Y-67910000D01*
X58660000Y-67950000D01*
X58460000Y-67950000D01*
G37*
G36*
X59940000Y-67950000D02*
X59940000Y-67910000D01*
X60220000Y-67910000D01*
X60220000Y-67950000D01*
X59940000Y-67950000D01*
G37*
G36*
X60740000Y-67950000D02*
X60740000Y-67910000D01*
X60980000Y-67910000D01*
X60980000Y-67950000D01*
X60740000Y-67950000D01*
G37*
G36*
X61340000Y-67950000D02*
X61340000Y-67910000D01*
X62420000Y-67910000D01*
X62420000Y-67950000D01*
X61340000Y-67950000D01*
G37*
G36*
X62900000Y-67950000D02*
X62900000Y-67910000D01*
X63140000Y-67910000D01*
X63140000Y-67950000D01*
X62900000Y-67950000D01*
G37*
G36*
X63580000Y-67950000D02*
X63580000Y-67910000D01*
X64620000Y-67910000D01*
X64620000Y-67950000D01*
X63580000Y-67950000D01*
G37*
G36*
X65020000Y-67950000D02*
X65020000Y-67910000D01*
X65260000Y-67910000D01*
X65260000Y-67950000D01*
X65020000Y-67950000D01*
G37*
G36*
X65900000Y-67950000D02*
X65900000Y-67910000D01*
X66740000Y-67910000D01*
X66740000Y-67950000D01*
X65900000Y-67950000D01*
G37*
G36*
X66780000Y-67950000D02*
X66780000Y-67910000D01*
X66980000Y-67910000D01*
X66980000Y-67950000D01*
X66780000Y-67950000D01*
G37*
G36*
X53180000Y-67910000D02*
X53180000Y-67870000D01*
X54260000Y-67870000D01*
X54260000Y-67910000D01*
X53180000Y-67910000D01*
G37*
G36*
X54620000Y-67910000D02*
X54620000Y-67870000D01*
X55700000Y-67870000D01*
X55700000Y-67910000D01*
X54620000Y-67910000D01*
G37*
G36*
X56140000Y-67910000D02*
X56140000Y-67870000D01*
X56380000Y-67870000D01*
X56380000Y-67910000D01*
X56140000Y-67910000D01*
G37*
G36*
X56980000Y-67910000D02*
X56980000Y-67870000D01*
X57220000Y-67870000D01*
X57220000Y-67910000D01*
X56980000Y-67910000D01*
G37*
G36*
X57580000Y-67910000D02*
X57580000Y-67870000D01*
X57780000Y-67870000D01*
X57780000Y-67910000D01*
X57580000Y-67910000D01*
G37*
G36*
X58460000Y-67910000D02*
X58460000Y-67870000D01*
X58660000Y-67870000D01*
X58660000Y-67910000D01*
X58460000Y-67910000D01*
G37*
G36*
X59900000Y-67910000D02*
X59900000Y-67870000D01*
X60180000Y-67870000D01*
X60180000Y-67910000D01*
X59900000Y-67910000D01*
G37*
G36*
X60780000Y-67910000D02*
X60780000Y-67870000D01*
X61020000Y-67870000D01*
X61020000Y-67910000D01*
X60780000Y-67910000D01*
G37*
G36*
X61340000Y-67910000D02*
X61340000Y-67870000D01*
X62420000Y-67870000D01*
X62420000Y-67910000D01*
X61340000Y-67910000D01*
G37*
G36*
X63580000Y-67910000D02*
X63580000Y-67870000D01*
X64620000Y-67870000D01*
X64620000Y-67910000D01*
X63580000Y-67910000D01*
G37*
G36*
X65020000Y-67910000D02*
X65020000Y-67870000D01*
X65260000Y-67870000D01*
X65260000Y-67910000D01*
X65020000Y-67910000D01*
G37*
G36*
X65900000Y-67910000D02*
X65900000Y-67870000D01*
X66980000Y-67870000D01*
X66980000Y-67910000D01*
X65900000Y-67910000D01*
G37*
G36*
X53180000Y-67870000D02*
X53180000Y-67830000D01*
X54300000Y-67830000D01*
X54300000Y-67870000D01*
X53180000Y-67870000D01*
G37*
G36*
X54620000Y-67870000D02*
X54620000Y-67830000D01*
X55740000Y-67830000D01*
X55740000Y-67870000D01*
X54620000Y-67870000D01*
G37*
G36*
X56100000Y-67870000D02*
X56100000Y-67830000D01*
X56340000Y-67830000D01*
X56340000Y-67870000D01*
X56100000Y-67870000D01*
G37*
G36*
X57020000Y-67870000D02*
X57020000Y-67830000D01*
X57100000Y-67830000D01*
X57100000Y-67870000D01*
X57020000Y-67870000D01*
G37*
G36*
X57580000Y-67870000D02*
X57580000Y-67830000D01*
X57780000Y-67830000D01*
X57780000Y-67870000D01*
X57580000Y-67870000D01*
G37*
G36*
X58460000Y-67870000D02*
X58460000Y-67830000D01*
X58660000Y-67830000D01*
X58660000Y-67870000D01*
X58460000Y-67870000D01*
G37*
G36*
X59900000Y-67870000D02*
X59900000Y-67830000D01*
X60140000Y-67830000D01*
X60140000Y-67870000D01*
X59900000Y-67870000D01*
G37*
G36*
X60820000Y-67870000D02*
X60820000Y-67830000D01*
X60900000Y-67830000D01*
X60900000Y-67870000D01*
X60820000Y-67870000D01*
G37*
G36*
X61340000Y-67870000D02*
X61340000Y-67830000D01*
X62460000Y-67830000D01*
X62460000Y-67870000D01*
X61340000Y-67870000D01*
G37*
G36*
X63540000Y-67870000D02*
X63540000Y-67830000D01*
X64660000Y-67830000D01*
X64660000Y-67870000D01*
X63540000Y-67870000D01*
G37*
G36*
X65020000Y-67870000D02*
X65020000Y-67830000D01*
X65260000Y-67830000D01*
X65260000Y-67870000D01*
X65020000Y-67870000D01*
G37*
G36*
X65860000Y-67870000D02*
X65860000Y-67830000D01*
X66980000Y-67830000D01*
X66980000Y-67870000D01*
X65860000Y-67870000D01*
G37*
G36*
X53140000Y-67830000D02*
X53140000Y-67790000D01*
X54300000Y-67790000D01*
X54300000Y-67830000D01*
X53140000Y-67830000D01*
G37*
G36*
X54620000Y-67830000D02*
X54620000Y-67790000D01*
X55740000Y-67790000D01*
X55740000Y-67830000D01*
X54620000Y-67830000D01*
G37*
G36*
X56100000Y-67830000D02*
X56100000Y-67790000D01*
X56340000Y-67790000D01*
X56340000Y-67830000D01*
X56100000Y-67830000D01*
G37*
G36*
X57580000Y-67830000D02*
X57580000Y-67790000D01*
X57780000Y-67790000D01*
X57780000Y-67830000D01*
X57580000Y-67830000D01*
G37*
G36*
X58460000Y-67830000D02*
X58460000Y-67790000D01*
X58660000Y-67790000D01*
X58660000Y-67830000D01*
X58460000Y-67830000D01*
G37*
G36*
X59860000Y-67830000D02*
X59860000Y-67790000D01*
X60140000Y-67790000D01*
X60140000Y-67830000D01*
X59860000Y-67830000D01*
G37*
G36*
X61340000Y-67830000D02*
X61340000Y-67790000D01*
X62460000Y-67790000D01*
X62460000Y-67830000D01*
X61340000Y-67830000D01*
G37*
G36*
X63540000Y-67830000D02*
X63540000Y-67790000D01*
X64700000Y-67790000D01*
X64700000Y-67830000D01*
X63540000Y-67830000D01*
G37*
G36*
X65020000Y-67830000D02*
X65020000Y-67790000D01*
X65260000Y-67790000D01*
X65260000Y-67830000D01*
X65020000Y-67830000D01*
G37*
G36*
X65860000Y-67830000D02*
X65860000Y-67790000D01*
X66980000Y-67790000D01*
X66980000Y-67830000D01*
X65860000Y-67830000D01*
G37*
G36*
X53140000Y-67790000D02*
X53140000Y-67750000D01*
X54300000Y-67750000D01*
X54300000Y-67790000D01*
X53140000Y-67790000D01*
G37*
G36*
X54620000Y-67790000D02*
X54620000Y-67750000D01*
X55740000Y-67750000D01*
X55740000Y-67790000D01*
X54620000Y-67790000D01*
G37*
G36*
X56060000Y-67790000D02*
X56060000Y-67750000D01*
X56300000Y-67750000D01*
X56300000Y-67790000D01*
X56060000Y-67790000D01*
G37*
G36*
X57580000Y-67790000D02*
X57580000Y-67750000D01*
X57780000Y-67750000D01*
X57780000Y-67790000D01*
X57580000Y-67790000D01*
G37*
G36*
X58460000Y-67790000D02*
X58460000Y-67750000D01*
X58660000Y-67750000D01*
X58660000Y-67790000D01*
X58460000Y-67790000D01*
G37*
G36*
X59860000Y-67790000D02*
X59860000Y-67750000D01*
X60100000Y-67750000D01*
X60100000Y-67790000D01*
X59860000Y-67790000D01*
G37*
G36*
X61340000Y-67790000D02*
X61340000Y-67750000D01*
X62460000Y-67750000D01*
X62460000Y-67790000D01*
X61340000Y-67790000D01*
G37*
G36*
X63500000Y-67790000D02*
X63500000Y-67750000D01*
X64700000Y-67750000D01*
X64700000Y-67790000D01*
X63500000Y-67790000D01*
G37*
G36*
X65020000Y-67790000D02*
X65020000Y-67750000D01*
X65260000Y-67750000D01*
X65260000Y-67790000D01*
X65020000Y-67790000D01*
G37*
G36*
X65860000Y-67790000D02*
X65860000Y-67750000D01*
X66980000Y-67750000D01*
X66980000Y-67790000D01*
X65860000Y-67790000D01*
G37*
G36*
X53140000Y-67750000D02*
X53140000Y-67710000D01*
X54340000Y-67710000D01*
X54340000Y-67750000D01*
X53140000Y-67750000D01*
G37*
G36*
X54620000Y-67750000D02*
X54620000Y-67710000D01*
X55740000Y-67710000D01*
X55740000Y-67750000D01*
X54620000Y-67750000D01*
G37*
G36*
X56060000Y-67750000D02*
X56060000Y-67710000D01*
X56300000Y-67710000D01*
X56300000Y-67750000D01*
X56060000Y-67750000D01*
G37*
G36*
X57580000Y-67750000D02*
X57580000Y-67710000D01*
X57780000Y-67710000D01*
X57780000Y-67750000D01*
X57580000Y-67750000D01*
G37*
G36*
X58460000Y-67750000D02*
X58460000Y-67710000D01*
X58660000Y-67710000D01*
X58660000Y-67750000D01*
X58460000Y-67750000D01*
G37*
G36*
X59860000Y-67750000D02*
X59860000Y-67710000D01*
X60100000Y-67710000D01*
X60100000Y-67750000D01*
X59860000Y-67750000D01*
G37*
G36*
X61340000Y-67750000D02*
X61340000Y-67710000D01*
X62460000Y-67710000D01*
X62460000Y-67750000D01*
X61340000Y-67750000D01*
G37*
G36*
X63500000Y-67750000D02*
X63500000Y-67710000D01*
X64700000Y-67710000D01*
X64700000Y-67750000D01*
X63500000Y-67750000D01*
G37*
G36*
X65020000Y-67750000D02*
X65020000Y-67710000D01*
X65260000Y-67710000D01*
X65260000Y-67750000D01*
X65020000Y-67750000D01*
G37*
G36*
X65860000Y-67750000D02*
X65860000Y-67710000D01*
X66980000Y-67710000D01*
X66980000Y-67750000D01*
X65860000Y-67750000D01*
G37*
G36*
X53140000Y-67710000D02*
X53140000Y-67590000D01*
X54340000Y-67590000D01*
X54340000Y-67710000D01*
X53140000Y-67710000D01*
G37*
G36*
X54620000Y-67710000D02*
X54620000Y-67590000D01*
X55780000Y-67590000D01*
X55780000Y-67710000D01*
X54620000Y-67710000D01*
G37*
G36*
X56060000Y-67710000D02*
X56060000Y-67590000D01*
X56300000Y-67590000D01*
X56300000Y-67710000D01*
X56060000Y-67710000D01*
G37*
G36*
X57580000Y-67710000D02*
X57580000Y-67590000D01*
X57780000Y-67590000D01*
X57780000Y-67710000D01*
X57580000Y-67710000D01*
G37*
G36*
X58460000Y-67710000D02*
X58460000Y-67590000D01*
X58660000Y-67590000D01*
X58660000Y-67710000D01*
X58460000Y-67710000D01*
G37*
G36*
X59860000Y-67710000D02*
X59860000Y-67590000D01*
X60100000Y-67590000D01*
X60100000Y-67710000D01*
X59860000Y-67710000D01*
G37*
G36*
X61340000Y-67710000D02*
X61340000Y-67590000D01*
X62500000Y-67590000D01*
X62500000Y-67710000D01*
X61340000Y-67710000D01*
G37*
G36*
X63500000Y-67710000D02*
X63500000Y-67590000D01*
X64700000Y-67590000D01*
X64700000Y-67710000D01*
X63500000Y-67710000D01*
G37*
G36*
X65020000Y-67710000D02*
X65020000Y-67590000D01*
X65260000Y-67590000D01*
X65260000Y-67710000D01*
X65020000Y-67710000D01*
G37*
G36*
X65820000Y-67710000D02*
X65820000Y-67590000D01*
X66980000Y-67590000D01*
X66980000Y-67710000D01*
X65820000Y-67710000D01*
G37*
G36*
X53140000Y-67590000D02*
X53140000Y-67550000D01*
X54340000Y-67550000D01*
X54340000Y-67590000D01*
X53140000Y-67590000D01*
G37*
G36*
X54620000Y-67590000D02*
X54620000Y-67550000D01*
X55780000Y-67550000D01*
X55780000Y-67590000D01*
X54620000Y-67590000D01*
G37*
G36*
X56060000Y-67590000D02*
X56060000Y-67550000D01*
X56300000Y-67550000D01*
X56300000Y-67590000D01*
X56060000Y-67590000D01*
G37*
G36*
X57580000Y-67590000D02*
X57580000Y-67550000D01*
X57780000Y-67550000D01*
X57780000Y-67590000D01*
X57580000Y-67590000D01*
G37*
G36*
X58460000Y-67590000D02*
X58460000Y-67550000D01*
X58660000Y-67550000D01*
X58660000Y-67590000D01*
X58460000Y-67590000D01*
G37*
G36*
X58980000Y-67590000D02*
X58980000Y-67550000D01*
X59620000Y-67550000D01*
X59620000Y-67590000D01*
X58980000Y-67590000D01*
G37*
G36*
X59860000Y-67590000D02*
X59860000Y-67550000D01*
X60060000Y-67550000D01*
X60060000Y-67590000D01*
X59860000Y-67590000D01*
G37*
G36*
X61340000Y-67590000D02*
X61340000Y-67550000D01*
X62500000Y-67550000D01*
X62500000Y-67590000D01*
X61340000Y-67590000D01*
G37*
G36*
X63500000Y-67590000D02*
X63500000Y-67550000D01*
X64700000Y-67550000D01*
X64700000Y-67590000D01*
X63500000Y-67590000D01*
G37*
G36*
X65020000Y-67590000D02*
X65020000Y-67550000D01*
X65260000Y-67550000D01*
X65260000Y-67590000D01*
X65020000Y-67590000D01*
G37*
G36*
X65820000Y-67590000D02*
X65820000Y-67550000D01*
X66980000Y-67550000D01*
X66980000Y-67590000D01*
X65820000Y-67590000D01*
G37*
G36*
X53100000Y-67550000D02*
X53100000Y-67510000D01*
X54340000Y-67510000D01*
X54340000Y-67550000D01*
X53100000Y-67550000D01*
G37*
G36*
X54620000Y-67550000D02*
X54620000Y-67510000D01*
X55820000Y-67510000D01*
X55820000Y-67550000D01*
X54620000Y-67550000D01*
G37*
G36*
X56060000Y-67550000D02*
X56060000Y-67510000D01*
X57260000Y-67510000D01*
X57260000Y-67550000D01*
X56060000Y-67550000D01*
G37*
G36*
X57580000Y-67550000D02*
X57580000Y-67510000D01*
X57780000Y-67510000D01*
X57780000Y-67550000D01*
X57580000Y-67550000D01*
G37*
G36*
X58460000Y-67550000D02*
X58460000Y-67510000D01*
X58660000Y-67510000D01*
X58660000Y-67550000D01*
X58460000Y-67550000D01*
G37*
G36*
X58980000Y-67550000D02*
X58980000Y-67510000D01*
X59620000Y-67510000D01*
X59620000Y-67550000D01*
X58980000Y-67550000D01*
G37*
G36*
X59820000Y-67550000D02*
X59820000Y-67510000D01*
X61060000Y-67510000D01*
X61060000Y-67550000D01*
X59820000Y-67550000D01*
G37*
G36*
X61340000Y-67550000D02*
X61340000Y-67510000D01*
X62540000Y-67510000D01*
X62540000Y-67550000D01*
X61340000Y-67550000D01*
G37*
G36*
X63500000Y-67550000D02*
X63500000Y-67510000D01*
X64700000Y-67510000D01*
X64700000Y-67550000D01*
X63500000Y-67550000D01*
G37*
G36*
X65020000Y-67550000D02*
X65020000Y-67510000D01*
X65260000Y-67510000D01*
X65260000Y-67550000D01*
X65020000Y-67550000D01*
G37*
G36*
X65820000Y-67550000D02*
X65820000Y-67510000D01*
X66980000Y-67510000D01*
X66980000Y-67550000D01*
X65820000Y-67550000D01*
G37*
G36*
X53100000Y-67510000D02*
X53100000Y-67470000D01*
X54340000Y-67470000D01*
X54340000Y-67510000D01*
X53100000Y-67510000D01*
G37*
G36*
X54620000Y-67510000D02*
X54620000Y-67470000D01*
X55820000Y-67470000D01*
X55820000Y-67510000D01*
X54620000Y-67510000D01*
G37*
G36*
X56020000Y-67510000D02*
X56020000Y-67470000D01*
X57260000Y-67470000D01*
X57260000Y-67510000D01*
X56020000Y-67510000D01*
G37*
G36*
X57580000Y-67510000D02*
X57580000Y-67470000D01*
X57780000Y-67470000D01*
X57780000Y-67510000D01*
X57580000Y-67510000D01*
G37*
G36*
X58460000Y-67510000D02*
X58460000Y-67470000D01*
X58660000Y-67470000D01*
X58660000Y-67510000D01*
X58460000Y-67510000D01*
G37*
G36*
X58980000Y-67510000D02*
X58980000Y-67470000D01*
X59620000Y-67470000D01*
X59620000Y-67510000D01*
X58980000Y-67510000D01*
G37*
G36*
X59820000Y-67510000D02*
X59820000Y-67470000D01*
X61060000Y-67470000D01*
X61060000Y-67510000D01*
X59820000Y-67510000D01*
G37*
G36*
X61340000Y-67510000D02*
X61340000Y-67470000D01*
X62540000Y-67470000D01*
X62540000Y-67510000D01*
X61340000Y-67510000D01*
G37*
G36*
X63500000Y-67510000D02*
X63500000Y-67470000D01*
X64740000Y-67470000D01*
X64740000Y-67510000D01*
X63500000Y-67510000D01*
G37*
G36*
X65020000Y-67510000D02*
X65020000Y-67470000D01*
X65260000Y-67470000D01*
X65260000Y-67510000D01*
X65020000Y-67510000D01*
G37*
G36*
X65820000Y-67510000D02*
X65820000Y-67470000D01*
X66980000Y-67470000D01*
X66980000Y-67510000D01*
X65820000Y-67510000D01*
G37*
G36*
X53140000Y-67470000D02*
X53140000Y-67430000D01*
X54340000Y-67430000D01*
X54340000Y-67470000D01*
X53140000Y-67470000D01*
G37*
G36*
X54620000Y-67470000D02*
X54620000Y-67430000D01*
X55820000Y-67430000D01*
X55820000Y-67470000D01*
X54620000Y-67470000D01*
G37*
G36*
X56020000Y-67470000D02*
X56020000Y-67430000D01*
X57260000Y-67430000D01*
X57260000Y-67470000D01*
X56020000Y-67470000D01*
G37*
G36*
X57580000Y-67470000D02*
X57580000Y-67430000D01*
X57780000Y-67430000D01*
X57780000Y-67470000D01*
X57580000Y-67470000D01*
G37*
G36*
X58460000Y-67470000D02*
X58460000Y-67430000D01*
X58660000Y-67430000D01*
X58660000Y-67470000D01*
X58460000Y-67470000D01*
G37*
G36*
X58980000Y-67470000D02*
X58980000Y-67430000D01*
X59620000Y-67430000D01*
X59620000Y-67470000D01*
X58980000Y-67470000D01*
G37*
G36*
X59820000Y-67470000D02*
X59820000Y-67430000D01*
X61060000Y-67430000D01*
X61060000Y-67470000D01*
X59820000Y-67470000D01*
G37*
G36*
X61340000Y-67470000D02*
X61340000Y-67430000D01*
X62540000Y-67430000D01*
X62540000Y-67470000D01*
X61340000Y-67470000D01*
G37*
G36*
X63500000Y-67470000D02*
X63500000Y-67430000D01*
X64700000Y-67430000D01*
X64700000Y-67470000D01*
X63500000Y-67470000D01*
G37*
G36*
X65020000Y-67470000D02*
X65020000Y-67430000D01*
X65260000Y-67430000D01*
X65260000Y-67470000D01*
X65020000Y-67470000D01*
G37*
G36*
X65820000Y-67470000D02*
X65820000Y-67430000D01*
X66980000Y-67430000D01*
X66980000Y-67470000D01*
X65820000Y-67470000D01*
G37*
G36*
X53140000Y-67430000D02*
X53140000Y-67390000D01*
X54340000Y-67390000D01*
X54340000Y-67430000D01*
X53140000Y-67430000D01*
G37*
G36*
X54620000Y-67430000D02*
X54620000Y-67390000D01*
X55820000Y-67390000D01*
X55820000Y-67430000D01*
X54620000Y-67430000D01*
G37*
G36*
X56060000Y-67430000D02*
X56060000Y-67390000D01*
X57220000Y-67390000D01*
X57220000Y-67430000D01*
X56060000Y-67430000D01*
G37*
G36*
X57580000Y-67430000D02*
X57580000Y-67390000D01*
X57780000Y-67390000D01*
X57780000Y-67430000D01*
X57580000Y-67430000D01*
G37*
G36*
X58460000Y-67430000D02*
X58460000Y-67390000D01*
X58660000Y-67390000D01*
X58660000Y-67430000D01*
X58460000Y-67430000D01*
G37*
G36*
X58980000Y-67430000D02*
X58980000Y-67390000D01*
X59620000Y-67390000D01*
X59620000Y-67430000D01*
X58980000Y-67430000D01*
G37*
G36*
X59860000Y-67430000D02*
X59860000Y-67390000D01*
X61020000Y-67390000D01*
X61020000Y-67430000D01*
X59860000Y-67430000D01*
G37*
G36*
X61340000Y-67430000D02*
X61340000Y-67390000D01*
X62540000Y-67390000D01*
X62540000Y-67430000D01*
X61340000Y-67430000D01*
G37*
G36*
X63500000Y-67430000D02*
X63500000Y-67390000D01*
X64700000Y-67390000D01*
X64700000Y-67430000D01*
X63500000Y-67430000D01*
G37*
G36*
X65020000Y-67430000D02*
X65020000Y-67390000D01*
X65260000Y-67390000D01*
X65260000Y-67430000D01*
X65020000Y-67430000D01*
G37*
G36*
X65820000Y-67430000D02*
X65820000Y-67390000D01*
X66980000Y-67390000D01*
X66980000Y-67430000D01*
X65820000Y-67430000D01*
G37*
G36*
X53140000Y-67390000D02*
X53140000Y-67350000D01*
X54340000Y-67350000D01*
X54340000Y-67390000D01*
X53140000Y-67390000D01*
G37*
G36*
X54620000Y-67390000D02*
X54620000Y-67350000D01*
X55820000Y-67350000D01*
X55820000Y-67390000D01*
X54620000Y-67390000D01*
G37*
G36*
X56060000Y-67390000D02*
X56060000Y-67350000D01*
X57220000Y-67350000D01*
X57220000Y-67390000D01*
X56060000Y-67390000D01*
G37*
G36*
X57580000Y-67390000D02*
X57580000Y-67350000D01*
X57780000Y-67350000D01*
X57780000Y-67390000D01*
X57580000Y-67390000D01*
G37*
G36*
X58460000Y-67390000D02*
X58460000Y-67350000D01*
X58660000Y-67350000D01*
X58660000Y-67390000D01*
X58460000Y-67390000D01*
G37*
G36*
X59860000Y-67390000D02*
X59860000Y-67350000D01*
X61020000Y-67350000D01*
X61020000Y-67390000D01*
X59860000Y-67390000D01*
G37*
G36*
X61340000Y-67390000D02*
X61340000Y-67350000D01*
X62540000Y-67350000D01*
X62540000Y-67390000D01*
X61340000Y-67390000D01*
G37*
G36*
X63500000Y-67390000D02*
X63500000Y-67350000D01*
X64700000Y-67350000D01*
X64700000Y-67390000D01*
X63500000Y-67390000D01*
G37*
G36*
X65020000Y-67390000D02*
X65020000Y-67350000D01*
X65260000Y-67350000D01*
X65260000Y-67390000D01*
X65020000Y-67390000D01*
G37*
G36*
X65820000Y-67390000D02*
X65820000Y-67350000D01*
X66980000Y-67350000D01*
X66980000Y-67390000D01*
X65820000Y-67390000D01*
G37*
G36*
X53140000Y-67350000D02*
X53140000Y-67310000D01*
X54340000Y-67310000D01*
X54340000Y-67350000D01*
X53140000Y-67350000D01*
G37*
G36*
X54620000Y-67350000D02*
X54620000Y-67310000D01*
X55780000Y-67310000D01*
X55780000Y-67350000D01*
X54620000Y-67350000D01*
G37*
G36*
X56060000Y-67350000D02*
X56060000Y-67310000D01*
X57220000Y-67310000D01*
X57220000Y-67350000D01*
X56060000Y-67350000D01*
G37*
G36*
X57580000Y-67350000D02*
X57580000Y-67310000D01*
X57820000Y-67310000D01*
X57820000Y-67350000D01*
X57580000Y-67350000D01*
G37*
G36*
X58460000Y-67350000D02*
X58460000Y-67310000D01*
X58660000Y-67310000D01*
X58660000Y-67350000D01*
X58460000Y-67350000D01*
G37*
G36*
X59860000Y-67350000D02*
X59860000Y-67310000D01*
X61020000Y-67310000D01*
X61020000Y-67350000D01*
X59860000Y-67350000D01*
G37*
G36*
X61340000Y-67350000D02*
X61340000Y-67310000D01*
X62500000Y-67310000D01*
X62500000Y-67350000D01*
X61340000Y-67350000D01*
G37*
G36*
X63540000Y-67350000D02*
X63540000Y-67310000D01*
X64700000Y-67310000D01*
X64700000Y-67350000D01*
X63540000Y-67350000D01*
G37*
G36*
X65020000Y-67350000D02*
X65020000Y-67310000D01*
X65260000Y-67310000D01*
X65260000Y-67350000D01*
X65020000Y-67350000D01*
G37*
G36*
X65820000Y-67350000D02*
X65820000Y-67310000D01*
X66980000Y-67310000D01*
X66980000Y-67350000D01*
X65820000Y-67350000D01*
G37*
G36*
X53180000Y-67310000D02*
X53180000Y-67270000D01*
X54340000Y-67270000D01*
X54340000Y-67310000D01*
X53180000Y-67310000D01*
G37*
G36*
X54620000Y-67310000D02*
X54620000Y-67270000D01*
X55780000Y-67270000D01*
X55780000Y-67310000D01*
X54620000Y-67310000D01*
G37*
G36*
X56060000Y-67310000D02*
X56060000Y-67270000D01*
X57220000Y-67270000D01*
X57220000Y-67310000D01*
X56060000Y-67310000D01*
G37*
G36*
X57580000Y-67310000D02*
X57580000Y-67270000D01*
X57820000Y-67270000D01*
X57820000Y-67310000D01*
X57580000Y-67310000D01*
G37*
G36*
X58460000Y-67310000D02*
X58460000Y-67270000D01*
X58660000Y-67270000D01*
X58660000Y-67310000D01*
X58460000Y-67310000D01*
G37*
G36*
X59860000Y-67310000D02*
X59860000Y-67270000D01*
X61020000Y-67270000D01*
X61020000Y-67310000D01*
X59860000Y-67310000D01*
G37*
G36*
X61340000Y-67310000D02*
X61340000Y-67270000D01*
X62500000Y-67270000D01*
X62500000Y-67310000D01*
X61340000Y-67310000D01*
G37*
G36*
X63540000Y-67310000D02*
X63540000Y-67270000D01*
X64700000Y-67270000D01*
X64700000Y-67310000D01*
X63540000Y-67310000D01*
G37*
G36*
X65020000Y-67310000D02*
X65020000Y-67270000D01*
X65260000Y-67270000D01*
X65260000Y-67310000D01*
X65020000Y-67310000D01*
G37*
G36*
X65820000Y-67310000D02*
X65820000Y-67270000D01*
X66980000Y-67270000D01*
X66980000Y-67310000D01*
X65820000Y-67310000D01*
G37*
G36*
X53180000Y-67270000D02*
X53180000Y-67230000D01*
X54340000Y-67230000D01*
X54340000Y-67270000D01*
X53180000Y-67270000D01*
G37*
G36*
X54620000Y-67270000D02*
X54620000Y-67230000D01*
X55780000Y-67230000D01*
X55780000Y-67270000D01*
X54620000Y-67270000D01*
G37*
G36*
X56060000Y-67270000D02*
X56060000Y-67230000D01*
X57180000Y-67230000D01*
X57180000Y-67270000D01*
X56060000Y-67270000D01*
G37*
G36*
X57580000Y-67270000D02*
X57580000Y-67230000D01*
X57820000Y-67230000D01*
X57820000Y-67270000D01*
X57580000Y-67270000D01*
G37*
G36*
X58420000Y-67270000D02*
X58420000Y-67230000D01*
X58660000Y-67230000D01*
X58660000Y-67270000D01*
X58420000Y-67270000D01*
G37*
G36*
X59860000Y-67270000D02*
X59860000Y-67230000D01*
X60980000Y-67230000D01*
X60980000Y-67270000D01*
X59860000Y-67270000D01*
G37*
G36*
X61340000Y-67270000D02*
X61340000Y-67230000D01*
X62500000Y-67230000D01*
X62500000Y-67270000D01*
X61340000Y-67270000D01*
G37*
G36*
X63540000Y-67270000D02*
X63540000Y-67230000D01*
X64700000Y-67230000D01*
X64700000Y-67270000D01*
X63540000Y-67270000D01*
G37*
G36*
X65020000Y-67270000D02*
X65020000Y-67230000D01*
X65260000Y-67230000D01*
X65260000Y-67270000D01*
X65020000Y-67270000D01*
G37*
G36*
X65860000Y-67270000D02*
X65860000Y-67230000D01*
X66980000Y-67230000D01*
X66980000Y-67270000D01*
X65860000Y-67270000D01*
G37*
G36*
X53180000Y-67230000D02*
X53180000Y-67190000D01*
X54300000Y-67190000D01*
X54300000Y-67230000D01*
X53180000Y-67230000D01*
G37*
G36*
X54620000Y-67230000D02*
X54620000Y-67190000D01*
X55780000Y-67190000D01*
X55780000Y-67230000D01*
X54620000Y-67230000D01*
G37*
G36*
X56060000Y-67230000D02*
X56060000Y-67190000D01*
X57180000Y-67190000D01*
X57180000Y-67230000D01*
X56060000Y-67230000D01*
G37*
G36*
X57580000Y-67230000D02*
X57580000Y-67190000D01*
X57820000Y-67190000D01*
X57820000Y-67230000D01*
X57580000Y-67230000D01*
G37*
G36*
X58420000Y-67230000D02*
X58420000Y-67190000D01*
X58660000Y-67190000D01*
X58660000Y-67230000D01*
X58420000Y-67230000D01*
G37*
G36*
X59860000Y-67230000D02*
X59860000Y-67190000D01*
X60980000Y-67190000D01*
X60980000Y-67230000D01*
X59860000Y-67230000D01*
G37*
G36*
X61340000Y-67230000D02*
X61340000Y-67190000D01*
X62500000Y-67190000D01*
X62500000Y-67230000D01*
X61340000Y-67230000D01*
G37*
G36*
X63580000Y-67230000D02*
X63580000Y-67190000D01*
X64700000Y-67190000D01*
X64700000Y-67230000D01*
X63580000Y-67230000D01*
G37*
G36*
X65020000Y-67230000D02*
X65020000Y-67190000D01*
X65300000Y-67190000D01*
X65300000Y-67230000D01*
X65020000Y-67230000D01*
G37*
G36*
X65860000Y-67230000D02*
X65860000Y-67190000D01*
X66980000Y-67190000D01*
X66980000Y-67230000D01*
X65860000Y-67230000D01*
G37*
G36*
X53220000Y-67190000D02*
X53220000Y-67150000D01*
X54300000Y-67150000D01*
X54300000Y-67190000D01*
X53220000Y-67190000D01*
G37*
G36*
X54620000Y-67190000D02*
X54620000Y-67150000D01*
X55780000Y-67150000D01*
X55780000Y-67190000D01*
X54620000Y-67190000D01*
G37*
G36*
X56060000Y-67190000D02*
X56060000Y-67150000D01*
X57180000Y-67150000D01*
X57180000Y-67190000D01*
X56060000Y-67190000D01*
G37*
G36*
X57580000Y-67190000D02*
X57580000Y-67150000D01*
X57820000Y-67150000D01*
X57820000Y-67190000D01*
X57580000Y-67190000D01*
G37*
G36*
X58420000Y-67190000D02*
X58420000Y-67150000D01*
X58660000Y-67150000D01*
X58660000Y-67190000D01*
X58420000Y-67190000D01*
G37*
G36*
X59860000Y-67190000D02*
X59860000Y-67150000D01*
X60980000Y-67150000D01*
X60980000Y-67190000D01*
X59860000Y-67190000D01*
G37*
G36*
X61340000Y-67190000D02*
X61340000Y-67150000D01*
X62500000Y-67150000D01*
X62500000Y-67190000D01*
X61340000Y-67190000D01*
G37*
G36*
X63580000Y-67190000D02*
X63580000Y-67150000D01*
X64700000Y-67150000D01*
X64700000Y-67190000D01*
X63580000Y-67190000D01*
G37*
G36*
X65020000Y-67190000D02*
X65020000Y-67150000D01*
X65300000Y-67150000D01*
X65300000Y-67190000D01*
X65020000Y-67190000D01*
G37*
G36*
X65860000Y-67190000D02*
X65860000Y-67150000D01*
X66980000Y-67150000D01*
X66980000Y-67190000D01*
X65860000Y-67190000D01*
G37*
G36*
X53220000Y-67150000D02*
X53220000Y-67110000D01*
X54300000Y-67110000D01*
X54300000Y-67150000D01*
X53220000Y-67150000D01*
G37*
G36*
X54620000Y-67150000D02*
X54620000Y-67110000D01*
X55780000Y-67110000D01*
X55780000Y-67150000D01*
X54620000Y-67150000D01*
G37*
G36*
X56100000Y-67150000D02*
X56100000Y-67110000D01*
X57180000Y-67110000D01*
X57180000Y-67150000D01*
X56100000Y-67150000D01*
G37*
G36*
X57580000Y-67150000D02*
X57580000Y-67110000D01*
X57860000Y-67110000D01*
X57860000Y-67150000D01*
X57580000Y-67150000D01*
G37*
G36*
X58420000Y-67150000D02*
X58420000Y-67110000D01*
X58660000Y-67110000D01*
X58660000Y-67150000D01*
X58420000Y-67150000D01*
G37*
G36*
X59900000Y-67150000D02*
X59900000Y-67110000D01*
X60940000Y-67110000D01*
X60940000Y-67150000D01*
X59900000Y-67150000D01*
G37*
G36*
X61340000Y-67150000D02*
X61340000Y-67110000D01*
X62500000Y-67110000D01*
X62500000Y-67150000D01*
X61340000Y-67150000D01*
G37*
G36*
X63580000Y-67150000D02*
X63580000Y-67110000D01*
X64660000Y-67110000D01*
X64660000Y-67150000D01*
X63580000Y-67150000D01*
G37*
G36*
X65020000Y-67150000D02*
X65020000Y-67110000D01*
X65300000Y-67110000D01*
X65300000Y-67150000D01*
X65020000Y-67150000D01*
G37*
G36*
X65860000Y-67150000D02*
X65860000Y-67110000D01*
X66980000Y-67110000D01*
X66980000Y-67150000D01*
X65860000Y-67150000D01*
G37*
G36*
X53220000Y-67110000D02*
X53220000Y-67070000D01*
X54260000Y-67070000D01*
X54260000Y-67110000D01*
X53220000Y-67110000D01*
G37*
G36*
X54620000Y-67110000D02*
X54620000Y-67070000D01*
X55740000Y-67070000D01*
X55740000Y-67110000D01*
X54620000Y-67110000D01*
G37*
G36*
X56140000Y-67110000D02*
X56140000Y-67070000D01*
X57140000Y-67070000D01*
X57140000Y-67110000D01*
X56140000Y-67110000D01*
G37*
G36*
X57580000Y-67110000D02*
X57580000Y-67070000D01*
X57860000Y-67070000D01*
X57860000Y-67110000D01*
X57580000Y-67110000D01*
G37*
G36*
X58420000Y-67110000D02*
X58420000Y-67070000D01*
X58660000Y-67070000D01*
X58660000Y-67110000D01*
X58420000Y-67110000D01*
G37*
G36*
X59900000Y-67110000D02*
X59900000Y-67070000D01*
X60940000Y-67070000D01*
X60940000Y-67110000D01*
X59900000Y-67110000D01*
G37*
G36*
X61340000Y-67110000D02*
X61340000Y-67070000D01*
X62460000Y-67070000D01*
X62460000Y-67110000D01*
X61340000Y-67110000D01*
G37*
G36*
X63580000Y-67110000D02*
X63580000Y-67070000D01*
X64660000Y-67070000D01*
X64660000Y-67110000D01*
X63580000Y-67110000D01*
G37*
G36*
X65020000Y-67110000D02*
X65020000Y-67070000D01*
X65340000Y-67070000D01*
X65340000Y-67110000D01*
X65020000Y-67110000D01*
G37*
G36*
X65900000Y-67110000D02*
X65900000Y-67070000D01*
X66980000Y-67070000D01*
X66980000Y-67110000D01*
X65900000Y-67110000D01*
G37*
G36*
X53220000Y-67070000D02*
X53220000Y-67030000D01*
X54260000Y-67030000D01*
X54260000Y-67070000D01*
X53220000Y-67070000D01*
G37*
G36*
X54620000Y-67070000D02*
X54620000Y-67030000D01*
X55740000Y-67030000D01*
X55740000Y-67070000D01*
X54620000Y-67070000D01*
G37*
G36*
X56140000Y-67070000D02*
X56140000Y-67030000D01*
X57140000Y-67030000D01*
X57140000Y-67070000D01*
X56140000Y-67070000D01*
G37*
G36*
X57580000Y-67070000D02*
X57580000Y-67030000D01*
X57900000Y-67030000D01*
X57900000Y-67070000D01*
X57580000Y-67070000D01*
G37*
G36*
X58380000Y-67070000D02*
X58380000Y-67030000D01*
X58660000Y-67030000D01*
X58660000Y-67070000D01*
X58380000Y-67070000D01*
G37*
G36*
X59940000Y-67070000D02*
X59940000Y-67030000D01*
X60940000Y-67030000D01*
X60940000Y-67070000D01*
X59940000Y-67070000D01*
G37*
G36*
X61340000Y-67070000D02*
X61340000Y-67030000D01*
X62460000Y-67030000D01*
X62460000Y-67070000D01*
X61340000Y-67070000D01*
G37*
G36*
X63620000Y-67070000D02*
X63620000Y-67030000D01*
X64620000Y-67030000D01*
X64620000Y-67070000D01*
X63620000Y-67070000D01*
G37*
G36*
X65020000Y-67070000D02*
X65020000Y-67030000D01*
X65220000Y-67030000D01*
X65220000Y-67070000D01*
X65020000Y-67070000D01*
G37*
G36*
X65260000Y-67070000D02*
X65260000Y-67030000D01*
X65380000Y-67030000D01*
X65380000Y-67070000D01*
X65260000Y-67070000D01*
G37*
G36*
X65900000Y-67070000D02*
X65900000Y-67030000D01*
X66980000Y-67030000D01*
X66980000Y-67070000D01*
X65900000Y-67070000D01*
G37*
G36*
X53260000Y-67030000D02*
X53260000Y-66990000D01*
X54220000Y-66990000D01*
X54220000Y-67030000D01*
X53260000Y-67030000D01*
G37*
G36*
X54620000Y-67030000D02*
X54620000Y-66990000D01*
X55700000Y-66990000D01*
X55700000Y-67030000D01*
X54620000Y-67030000D01*
G37*
G36*
X56180000Y-67030000D02*
X56180000Y-66990000D01*
X57140000Y-66990000D01*
X57140000Y-67030000D01*
X56180000Y-67030000D01*
G37*
G36*
X57580000Y-67030000D02*
X57580000Y-66990000D01*
X57780000Y-66990000D01*
X57780000Y-67030000D01*
X57580000Y-67030000D01*
G37*
G36*
X57820000Y-67030000D02*
X57820000Y-66990000D01*
X57980000Y-66990000D01*
X57980000Y-67030000D01*
X57820000Y-67030000D01*
G37*
G36*
X58380000Y-67030000D02*
X58380000Y-66990000D01*
X58620000Y-66990000D01*
X58620000Y-67030000D01*
X58380000Y-67030000D01*
G37*
G36*
X59980000Y-67030000D02*
X59980000Y-66990000D01*
X60940000Y-66990000D01*
X60940000Y-67030000D01*
X59980000Y-67030000D01*
G37*
G36*
X61340000Y-67030000D02*
X61340000Y-66990000D01*
X62420000Y-66990000D01*
X62420000Y-67030000D01*
X61340000Y-67030000D01*
G37*
G36*
X63620000Y-67030000D02*
X63620000Y-66990000D01*
X64620000Y-66990000D01*
X64620000Y-67030000D01*
X63620000Y-67030000D01*
G37*
G36*
X65020000Y-67030000D02*
X65020000Y-66990000D01*
X65220000Y-66990000D01*
X65220000Y-67030000D01*
X65020000Y-67030000D01*
G37*
G36*
X65260000Y-67030000D02*
X65260000Y-66990000D01*
X65420000Y-66990000D01*
X65420000Y-67030000D01*
X65260000Y-67030000D01*
G37*
G36*
X65940000Y-67030000D02*
X65940000Y-66990000D01*
X66740000Y-66990000D01*
X66740000Y-67030000D01*
X65940000Y-67030000D01*
G37*
G36*
X66780000Y-67030000D02*
X66780000Y-66990000D01*
X66980000Y-66990000D01*
X66980000Y-67030000D01*
X66780000Y-67030000D01*
G37*
G36*
X53260000Y-66990000D02*
X53260000Y-66950000D01*
X54220000Y-66950000D01*
X54220000Y-66990000D01*
X53260000Y-66990000D01*
G37*
G36*
X54620000Y-66990000D02*
X54620000Y-66950000D01*
X54860000Y-66950000D01*
X54860000Y-66990000D01*
X54620000Y-66990000D01*
G37*
G36*
X54900000Y-66990000D02*
X54900000Y-66950000D01*
X55700000Y-66950000D01*
X55700000Y-66990000D01*
X54900000Y-66990000D01*
G37*
G36*
X56180000Y-66990000D02*
X56180000Y-66950000D01*
X57100000Y-66950000D01*
X57100000Y-66990000D01*
X56180000Y-66990000D01*
G37*
G36*
X57580000Y-66990000D02*
X57580000Y-66950000D01*
X57780000Y-66950000D01*
X57780000Y-66990000D01*
X57580000Y-66990000D01*
G37*
G36*
X57820000Y-66990000D02*
X57820000Y-66950000D01*
X58060000Y-66950000D01*
X58060000Y-66990000D01*
X57820000Y-66990000D01*
G37*
G36*
X58300000Y-66990000D02*
X58300000Y-66950000D01*
X58620000Y-66950000D01*
X58620000Y-66990000D01*
X58300000Y-66990000D01*
G37*
G36*
X59980000Y-66990000D02*
X59980000Y-66950000D01*
X60900000Y-66950000D01*
X60900000Y-66990000D01*
X59980000Y-66990000D01*
G37*
G36*
X61340000Y-66990000D02*
X61340000Y-66950000D01*
X61580000Y-66950000D01*
X61580000Y-66990000D01*
X61340000Y-66990000D01*
G37*
G36*
X61620000Y-66990000D02*
X61620000Y-66950000D01*
X62420000Y-66950000D01*
X62420000Y-66990000D01*
X61620000Y-66990000D01*
G37*
G36*
X63620000Y-66990000D02*
X63620000Y-66950000D01*
X64580000Y-66950000D01*
X64580000Y-66990000D01*
X63620000Y-66990000D01*
G37*
G36*
X65020000Y-66990000D02*
X65020000Y-66950000D01*
X65220000Y-66950000D01*
X65220000Y-66990000D01*
X65020000Y-66990000D01*
G37*
G36*
X65300000Y-66990000D02*
X65300000Y-66950000D01*
X65660000Y-66950000D01*
X65660000Y-66990000D01*
X65300000Y-66990000D01*
G37*
G36*
X65940000Y-66990000D02*
X65940000Y-66950000D01*
X66740000Y-66950000D01*
X66740000Y-66990000D01*
X65940000Y-66990000D01*
G37*
G36*
X66780000Y-66990000D02*
X66780000Y-66950000D01*
X66980000Y-66950000D01*
X66980000Y-66990000D01*
X66780000Y-66990000D01*
G37*
G36*
X53300000Y-66950000D02*
X53300000Y-66910000D01*
X54180000Y-66910000D01*
X54180000Y-66950000D01*
X53300000Y-66950000D01*
G37*
G36*
X54620000Y-66950000D02*
X54620000Y-66910000D01*
X54860000Y-66910000D01*
X54860000Y-66950000D01*
X54620000Y-66950000D01*
G37*
G36*
X54940000Y-66950000D02*
X54940000Y-66910000D01*
X55660000Y-66910000D01*
X55660000Y-66950000D01*
X54940000Y-66950000D01*
G37*
G36*
X56220000Y-66950000D02*
X56220000Y-66910000D01*
X57060000Y-66910000D01*
X57060000Y-66950000D01*
X56220000Y-66950000D01*
G37*
G36*
X57580000Y-66950000D02*
X57580000Y-66910000D01*
X57780000Y-66910000D01*
X57780000Y-66950000D01*
X57580000Y-66950000D01*
G37*
G36*
X57860000Y-66950000D02*
X57860000Y-66910000D01*
X58580000Y-66910000D01*
X58580000Y-66950000D01*
X57860000Y-66950000D01*
G37*
G36*
X60020000Y-66950000D02*
X60020000Y-66910000D01*
X60860000Y-66910000D01*
X60860000Y-66950000D01*
X60020000Y-66950000D01*
G37*
G36*
X61340000Y-66950000D02*
X61340000Y-66910000D01*
X61580000Y-66910000D01*
X61580000Y-66950000D01*
X61340000Y-66950000D01*
G37*
G36*
X61660000Y-66950000D02*
X61660000Y-66910000D01*
X62380000Y-66910000D01*
X62380000Y-66950000D01*
X61660000Y-66950000D01*
G37*
G36*
X63700000Y-66950000D02*
X63700000Y-66910000D01*
X64540000Y-66910000D01*
X64540000Y-66950000D01*
X63700000Y-66950000D01*
G37*
G36*
X65020000Y-66950000D02*
X65020000Y-66910000D01*
X65220000Y-66910000D01*
X65220000Y-66950000D01*
X65020000Y-66950000D01*
G37*
G36*
X65300000Y-66950000D02*
X65300000Y-66910000D01*
X65660000Y-66910000D01*
X65660000Y-66950000D01*
X65300000Y-66950000D01*
G37*
G36*
X65980000Y-66950000D02*
X65980000Y-66910000D01*
X66700000Y-66910000D01*
X66700000Y-66950000D01*
X65980000Y-66950000D01*
G37*
G36*
X66780000Y-66950000D02*
X66780000Y-66910000D01*
X66980000Y-66910000D01*
X66980000Y-66950000D01*
X66780000Y-66950000D01*
G37*
G36*
X53420000Y-66910000D02*
X53420000Y-66870000D01*
X54100000Y-66870000D01*
X54100000Y-66910000D01*
X53420000Y-66910000D01*
G37*
G36*
X54620000Y-66910000D02*
X54620000Y-66870000D01*
X54860000Y-66870000D01*
X54860000Y-66910000D01*
X54620000Y-66910000D01*
G37*
G36*
X54980000Y-66910000D02*
X54980000Y-66870000D01*
X55620000Y-66870000D01*
X55620000Y-66910000D01*
X54980000Y-66910000D01*
G37*
G36*
X56300000Y-66910000D02*
X56300000Y-66870000D01*
X56940000Y-66870000D01*
X56940000Y-66910000D01*
X56300000Y-66910000D01*
G37*
G36*
X57580000Y-66910000D02*
X57580000Y-66870000D01*
X57780000Y-66870000D01*
X57780000Y-66910000D01*
X57580000Y-66910000D01*
G37*
G36*
X57900000Y-66910000D02*
X57900000Y-66870000D01*
X58580000Y-66870000D01*
X58580000Y-66910000D01*
X57900000Y-66910000D01*
G37*
G36*
X60100000Y-66910000D02*
X60100000Y-66870000D01*
X60740000Y-66870000D01*
X60740000Y-66910000D01*
X60100000Y-66910000D01*
G37*
G36*
X61340000Y-66910000D02*
X61340000Y-66870000D01*
X61580000Y-66870000D01*
X61580000Y-66910000D01*
X61340000Y-66910000D01*
G37*
G36*
X61700000Y-66910000D02*
X61700000Y-66870000D01*
X62340000Y-66870000D01*
X62340000Y-66910000D01*
X61700000Y-66910000D01*
G37*
G36*
X63780000Y-66910000D02*
X63780000Y-66870000D01*
X64500000Y-66870000D01*
X64500000Y-66910000D01*
X63780000Y-66910000D01*
G37*
G36*
X65020000Y-66910000D02*
X65020000Y-66870000D01*
X65220000Y-66870000D01*
X65220000Y-66910000D01*
X65020000Y-66910000D01*
G37*
G36*
X65340000Y-66910000D02*
X65340000Y-66870000D01*
X65660000Y-66870000D01*
X65660000Y-66910000D01*
X65340000Y-66910000D01*
G37*
G36*
X66020000Y-66910000D02*
X66020000Y-66870000D01*
X66660000Y-66870000D01*
X66660000Y-66910000D01*
X66020000Y-66910000D01*
G37*
G36*
X66780000Y-66910000D02*
X66780000Y-66870000D01*
X66980000Y-66870000D01*
X66980000Y-66910000D01*
X66780000Y-66910000D01*
G37*
G36*
X53540000Y-66870000D02*
X53540000Y-66830000D01*
X54060000Y-66830000D01*
X54060000Y-66870000D01*
X53540000Y-66870000D01*
G37*
G36*
X54620000Y-66870000D02*
X54620000Y-66830000D01*
X54860000Y-66830000D01*
X54860000Y-66870000D01*
X54620000Y-66870000D01*
G37*
G36*
X55020000Y-66870000D02*
X55020000Y-66830000D01*
X55580000Y-66830000D01*
X55580000Y-66870000D01*
X55020000Y-66870000D01*
G37*
G36*
X56340000Y-66870000D02*
X56340000Y-66830000D01*
X56860000Y-66830000D01*
X56860000Y-66870000D01*
X56340000Y-66870000D01*
G37*
G36*
X57580000Y-66870000D02*
X57580000Y-66830000D01*
X57780000Y-66830000D01*
X57780000Y-66870000D01*
X57580000Y-66870000D01*
G37*
G36*
X57940000Y-66870000D02*
X57940000Y-66830000D01*
X58500000Y-66830000D01*
X58500000Y-66870000D01*
X57940000Y-66870000D01*
G37*
G36*
X60140000Y-66870000D02*
X60140000Y-66830000D01*
X60660000Y-66830000D01*
X60660000Y-66870000D01*
X60140000Y-66870000D01*
G37*
G36*
X61340000Y-66870000D02*
X61340000Y-66830000D01*
X61580000Y-66830000D01*
X61580000Y-66870000D01*
X61340000Y-66870000D01*
G37*
G36*
X61740000Y-66870000D02*
X61740000Y-66830000D01*
X62300000Y-66830000D01*
X62300000Y-66870000D01*
X61740000Y-66870000D01*
G37*
G36*
X63900000Y-66870000D02*
X63900000Y-66830000D01*
X64420000Y-66830000D01*
X64420000Y-66870000D01*
X63900000Y-66870000D01*
G37*
G36*
X65020000Y-66870000D02*
X65020000Y-66830000D01*
X65220000Y-66830000D01*
X65220000Y-66870000D01*
X65020000Y-66870000D01*
G37*
G36*
X65340000Y-66870000D02*
X65340000Y-66830000D01*
X65660000Y-66830000D01*
X65660000Y-66870000D01*
X65340000Y-66870000D01*
G37*
G36*
X66060000Y-66870000D02*
X66060000Y-66830000D01*
X66620000Y-66830000D01*
X66620000Y-66870000D01*
X66060000Y-66870000D01*
G37*
G36*
X66780000Y-66870000D02*
X66780000Y-66830000D01*
X66980000Y-66830000D01*
X66980000Y-66870000D01*
X66780000Y-66870000D01*
G37*
G36*
X53620000Y-66830000D02*
X53620000Y-66790000D01*
X53980000Y-66790000D01*
X53980000Y-66830000D01*
X53620000Y-66830000D01*
G37*
G36*
X54620000Y-66830000D02*
X54620000Y-66790000D01*
X54860000Y-66790000D01*
X54860000Y-66830000D01*
X54620000Y-66830000D01*
G37*
G36*
X55100000Y-66830000D02*
X55100000Y-66790000D01*
X55500000Y-66790000D01*
X55500000Y-66830000D01*
X55100000Y-66830000D01*
G37*
G36*
X56420000Y-66830000D02*
X56420000Y-66790000D01*
X56740000Y-66790000D01*
X56740000Y-66830000D01*
X56420000Y-66830000D01*
G37*
G36*
X57540000Y-66830000D02*
X57540000Y-66790000D01*
X57780000Y-66790000D01*
X57780000Y-66830000D01*
X57540000Y-66830000D01*
G37*
G36*
X58020000Y-66830000D02*
X58020000Y-66790000D01*
X58460000Y-66790000D01*
X58460000Y-66830000D01*
X58020000Y-66830000D01*
G37*
G36*
X60220000Y-66830000D02*
X60220000Y-66790000D01*
X60540000Y-66790000D01*
X60540000Y-66830000D01*
X60220000Y-66830000D01*
G37*
G36*
X61340000Y-66830000D02*
X61340000Y-66790000D01*
X61580000Y-66790000D01*
X61580000Y-66830000D01*
X61340000Y-66830000D01*
G37*
G36*
X61820000Y-66830000D02*
X61820000Y-66790000D01*
X62220000Y-66790000D01*
X62220000Y-66830000D01*
X61820000Y-66830000D01*
G37*
G36*
X64020000Y-66830000D02*
X64020000Y-66790000D01*
X64340000Y-66790000D01*
X64340000Y-66830000D01*
X64020000Y-66830000D01*
G37*
G36*
X65020000Y-66830000D02*
X65020000Y-66790000D01*
X65220000Y-66790000D01*
X65220000Y-66830000D01*
X65020000Y-66830000D01*
G37*
G36*
X65420000Y-66830000D02*
X65420000Y-66790000D01*
X65660000Y-66790000D01*
X65660000Y-66830000D01*
X65420000Y-66830000D01*
G37*
G36*
X66140000Y-66830000D02*
X66140000Y-66790000D01*
X66500000Y-66790000D01*
X66500000Y-66830000D01*
X66140000Y-66830000D01*
G37*
G36*
X66780000Y-66830000D02*
X66780000Y-66790000D01*
X66980000Y-66790000D01*
X66980000Y-66830000D01*
X66780000Y-66830000D01*
G37*
%TO.C,C4*%
X43441252Y-75919000D02*
X42918748Y-75919000D01*
X43441252Y-74449000D02*
X42918748Y-74449000D01*
%TO.C,R2*%
X42952936Y-84609000D02*
X43407064Y-84609000D01*
X42952936Y-86079000D02*
X43407064Y-86079000D01*
%TO.C,C7*%
X50045252Y-78459000D02*
X49522748Y-78459000D01*
X50045252Y-76989000D02*
X49522748Y-76989000D01*
%TD*%
M02*
