%TF.GenerationSoftware,KiCad,Pcbnew,7.0.5*%
%TF.CreationDate,2025-02-15T15:12:15+08:00*%
%TF.ProjectId,Display Driver,44697370-6c61-4792-9044-72697665722e,rev?*%
%TF.SameCoordinates,Original*%
%TF.FileFunction,Copper,L1,Top*%
%TF.FilePolarity,Positive*%
%FSLAX46Y46*%
G04 Gerber Fmt 4.6, Leading zero omitted, Abs format (unit mm)*
G04 Created by KiCad (PCBNEW 7.0.5) date 2025-02-15 15:12:15*
%MOMM*%
%LPD*%
G01*
G04 APERTURE LIST*
G04 Aperture macros list*
%AMRoundRect*
0 Rectangle with rounded corners*
0 $1 Rounding radius*
0 $2 $3 $4 $5 $6 $7 $8 $9 X,Y pos of 4 corners*
0 Add a 4 corners polygon primitive as box body*
4,1,4,$2,$3,$4,$5,$6,$7,$8,$9,$2,$3,0*
0 Add four circle primitives for the rounded corners*
1,1,$1+$1,$2,$3*
1,1,$1+$1,$4,$5*
1,1,$1+$1,$6,$7*
1,1,$1+$1,$8,$9*
0 Add four rect primitives between the rounded corners*
20,1,$1+$1,$2,$3,$4,$5,0*
20,1,$1+$1,$4,$5,$6,$7,0*
20,1,$1+$1,$6,$7,$8,$9,0*
20,1,$1+$1,$8,$9,$2,$3,0*%
G04 Aperture macros list end*
%TA.AperFunction,SMDPad,CuDef*%
%ADD10RoundRect,0.250000X1.500000X-0.250000X1.500000X0.250000X-1.500000X0.250000X-1.500000X-0.250000X0*%
%TD*%
%TA.AperFunction,SMDPad,CuDef*%
%ADD11RoundRect,0.250001X1.449999X-0.499999X1.449999X0.499999X-1.449999X0.499999X-1.449999X-0.499999X0*%
%TD*%
%TA.AperFunction,SMDPad,CuDef*%
%ADD12RoundRect,0.250000X0.250000X0.475000X-0.250000X0.475000X-0.250000X-0.475000X0.250000X-0.475000X0*%
%TD*%
%TA.AperFunction,SMDPad,CuDef*%
%ADD13RoundRect,0.250000X0.262500X0.450000X-0.262500X0.450000X-0.262500X-0.450000X0.262500X-0.450000X0*%
%TD*%
%TA.AperFunction,SMDPad,CuDef*%
%ADD14R,1.100000X3.700000*%
%TD*%
%TA.AperFunction,SMDPad,CuDef*%
%ADD15RoundRect,0.225000X0.225000X0.375000X-0.225000X0.375000X-0.225000X-0.375000X0.225000X-0.375000X0*%
%TD*%
%TA.AperFunction,SMDPad,CuDef*%
%ADD16R,1.300000X0.300000*%
%TD*%
%TA.AperFunction,SMDPad,CuDef*%
%ADD17R,2.200000X1.800000*%
%TD*%
%TA.AperFunction,SMDPad,CuDef*%
%ADD18RoundRect,0.225000X-0.225000X-0.375000X0.225000X-0.375000X0.225000X0.375000X-0.225000X0.375000X0*%
%TD*%
%TA.AperFunction,SMDPad,CuDef*%
%ADD19RoundRect,0.112500X-0.237500X0.112500X-0.237500X-0.112500X0.237500X-0.112500X0.237500X0.112500X0*%
%TD*%
%TA.AperFunction,SMDPad,CuDef*%
%ADD20RoundRect,0.250000X-0.250000X-0.475000X0.250000X-0.475000X0.250000X0.475000X-0.250000X0.475000X0*%
%TD*%
%TA.AperFunction,SMDPad,CuDef*%
%ADD21RoundRect,0.250000X-0.312500X-1.075000X0.312500X-1.075000X0.312500X1.075000X-0.312500X1.075000X0*%
%TD*%
%TA.AperFunction,SMDPad,CuDef*%
%ADD22RoundRect,0.250000X-0.262500X-0.450000X0.262500X-0.450000X0.262500X0.450000X-0.262500X0.450000X0*%
%TD*%
%TA.AperFunction,ViaPad*%
%ADD23C,0.500000*%
%TD*%
%TA.AperFunction,ViaPad*%
%ADD24C,0.700000*%
%TD*%
%TA.AperFunction,ViaPad*%
%ADD25C,0.600000*%
%TD*%
%TA.AperFunction,Conductor*%
%ADD26C,0.254000*%
%TD*%
%TA.AperFunction,Conductor*%
%ADD27C,0.635000*%
%TD*%
%TA.AperFunction,Conductor*%
%ADD28C,0.200000*%
%TD*%
%TA.AperFunction,Conductor*%
%ADD29C,0.381000*%
%TD*%
G04 APERTURE END LIST*
D10*
%TO.P,J2,1,Pin_1*%
%TO.N,/BUSY*%
X73350000Y-85232000D03*
%TO.P,J2,2,Pin_2*%
%TO.N,/RST*%
X73350000Y-83232000D03*
%TO.P,J2,3,Pin_3*%
%TO.N,/D{slash}C*%
X73350000Y-81232000D03*
%TO.P,J2,4,Pin_4*%
%TO.N,/CS*%
X73350000Y-79232000D03*
%TO.P,J2,5,Pin_5*%
%TO.N,/SCK*%
X73350000Y-77232000D03*
%TO.P,J2,6,Pin_6*%
%TO.N,/MOSI*%
X73350000Y-75232000D03*
%TO.P,J2,7,Pin_7*%
%TO.N,GND*%
X73350000Y-73232000D03*
%TO.P,J2,8,Pin_8*%
%TO.N,+3V3*%
X73350000Y-71232000D03*
D11*
%TO.P,J2,MP*%
%TO.N,N/C*%
X79100000Y-87582000D03*
X79100000Y-68882000D03*
%TD*%
D12*
%TO.P,C8,1*%
%TO.N,GND*%
X50734000Y-75184000D03*
%TO.P,C8,2*%
%TO.N,Net-(J1-Pin_3)*%
X48834000Y-75184000D03*
%TD*%
D13*
%TO.P,R6,1*%
%TO.N,GND*%
X44092500Y-80264000D03*
%TO.P,R6,2*%
%TO.N,Net-(J1-Pin_17)*%
X42267500Y-80264000D03*
%TD*%
D14*
%TO.P,L1,1,1*%
%TO.N,+3V3*%
X59920000Y-85344000D03*
%TO.P,L1,2,2*%
%TO.N,Net-(D1-A)*%
X56920000Y-85344000D03*
%TD*%
D12*
%TO.P,C3,1*%
%TO.N,GND*%
X44130000Y-77724000D03*
%TO.P,C3,2*%
%TO.N,+3V3*%
X42230000Y-77724000D03*
%TD*%
%TO.P,C10,1*%
%TO.N,GND*%
X50734000Y-70104000D03*
%TO.P,C10,2*%
%TO.N,Net-(J1-Pin_1)*%
X48834000Y-70104000D03*
%TD*%
%TO.P,C9,1*%
%TO.N,GND*%
X50734000Y-72644000D03*
%TO.P,C9,2*%
%TO.N,/PREVGL*%
X48834000Y-72644000D03*
%TD*%
%TO.P,C2,1*%
%TO.N,GND*%
X44130000Y-82804000D03*
%TO.P,C2,2*%
%TO.N,Net-(J1-Pin_20)*%
X42230000Y-82804000D03*
%TD*%
D15*
%TO.P,D3,1,K*%
%TO.N,GND*%
X59562000Y-79852000D03*
%TO.P,D3,2,A*%
%TO.N,Net-(D2-K)*%
X56262000Y-79852000D03*
%TD*%
D12*
%TO.P,C12,1*%
%TO.N,Net-(D2-K)*%
X50734000Y-82804000D03*
%TO.P,C12,2*%
%TO.N,Net-(D1-A)*%
X48834000Y-82804000D03*
%TD*%
D16*
%TO.P,J1,1,Pin_1*%
%TO.N,Net-(J1-Pin_1)*%
X37852000Y-71974000D03*
%TO.P,J1,2,Pin_2*%
%TO.N,/PREVGL*%
X37852000Y-72474000D03*
%TO.P,J1,3,Pin_3*%
%TO.N,Net-(J1-Pin_3)*%
X37852000Y-72974000D03*
%TO.P,J1,4,Pin_4*%
%TO.N,/PREVGH*%
X37852000Y-73474000D03*
%TO.P,J1,5,Pin_5*%
%TO.N,Net-(J1-Pin_5)*%
X37852000Y-73974000D03*
%TO.P,J1,6,Pin_6*%
%TO.N,unconnected-(J1-Pin_6-Pad6)*%
X37852000Y-74474000D03*
%TO.P,J1,7,Pin_7*%
%TO.N,Net-(J1-Pin_7)*%
X37852000Y-74974000D03*
%TO.P,J1,8,Pin_8*%
%TO.N,GND*%
X37852000Y-75474000D03*
%TO.P,J1,9,Pin_9*%
%TO.N,+3V3*%
X37852000Y-75974000D03*
%TO.P,J1,10,Pin_10*%
X37852000Y-76474000D03*
%TO.P,J1,11,Pin_11*%
%TO.N,/MOSI*%
X37852000Y-76974000D03*
%TO.P,J1,12,Pin_12*%
%TO.N,/SCK*%
X37852000Y-77474000D03*
%TO.P,J1,13,Pin_13*%
%TO.N,/CS*%
X37852000Y-77974000D03*
%TO.P,J1,14,Pin_14*%
%TO.N,/D{slash}C*%
X37852000Y-78474000D03*
%TO.P,J1,15,Pin_15*%
%TO.N,/RST*%
X37852000Y-78974000D03*
%TO.P,J1,16,Pin_16*%
%TO.N,/BUSY*%
X37852000Y-79474000D03*
%TO.P,J1,17,Pin_17*%
%TO.N,Net-(J1-Pin_17)*%
X37852000Y-79974000D03*
%TO.P,J1,18,Pin_18*%
%TO.N,unconnected-(J1-Pin_18-Pad18)*%
X37852000Y-80474000D03*
%TO.P,J1,19,Pin_19*%
%TO.N,unconnected-(J1-Pin_19-Pad19)*%
X37852000Y-80974000D03*
%TO.P,J1,20,Pin_20*%
%TO.N,Net-(J1-Pin_20)*%
X37852000Y-81474000D03*
%TO.P,J1,21,Pin_21*%
%TO.N,unconnected-(J1-Pin_21-Pad21)*%
X37852000Y-81974000D03*
%TO.P,J1,22,Pin_22*%
%TO.N,/RESE*%
X37852000Y-82474000D03*
%TO.P,J1,23,Pin_23*%
%TO.N,/GDR*%
X37852000Y-82974000D03*
%TO.P,J1,24,Pin_24*%
%TO.N,unconnected-(J1-Pin_24-Pad24)*%
X37852000Y-83474000D03*
D17*
%TO.P,J1,MP*%
%TO.N,N/C*%
X34602000Y-70074000D03*
X34602000Y-85374000D03*
%TD*%
D18*
%TO.P,D2,1,K*%
%TO.N,Net-(D2-K)*%
X56262000Y-76502000D03*
%TO.P,D2,2,A*%
%TO.N,/PREVGL*%
X59562000Y-76502000D03*
%TD*%
D19*
%TO.P,Q1,1,G*%
%TO.N,/GDR*%
X48784000Y-84836000D03*
%TO.P,Q1,2,S*%
%TO.N,/RESE*%
X48784000Y-86136000D03*
%TO.P,Q1,3,D*%
%TO.N,Net-(D1-A)*%
X50784000Y-85486000D03*
%TD*%
D15*
%TO.P,D1,1,K*%
%TO.N,/PREVGH*%
X59562000Y-73152000D03*
%TO.P,D1,2,A*%
%TO.N,Net-(D1-A)*%
X56262000Y-73152000D03*
%TD*%
D20*
%TO.P,C11,1*%
%TO.N,GND*%
X48834000Y-80264000D03*
%TO.P,C11,2*%
%TO.N,+3V3*%
X50734000Y-80264000D03*
%TD*%
D21*
%TO.P,R1,1*%
%TO.N,GND*%
X44257500Y-88392000D03*
%TO.P,R1,2*%
%TO.N,/RESE*%
X47182500Y-88392000D03*
%TD*%
D12*
%TO.P,C6,1*%
%TO.N,GND*%
X44130000Y-72644000D03*
%TO.P,C6,2*%
%TO.N,Net-(J1-Pin_5)*%
X42230000Y-72644000D03*
%TD*%
%TO.P,C4,1*%
%TO.N,GND*%
X44130000Y-75184000D03*
%TO.P,C4,2*%
%TO.N,Net-(J1-Pin_7)*%
X42230000Y-75184000D03*
%TD*%
D22*
%TO.P,R2,1*%
%TO.N,GND*%
X42267500Y-85344000D03*
%TO.P,R2,2*%
%TO.N,/GDR*%
X44092500Y-85344000D03*
%TD*%
D12*
%TO.P,C7,1*%
%TO.N,GND*%
X50734000Y-77724000D03*
%TO.P,C7,2*%
%TO.N,/PREVGH*%
X48834000Y-77724000D03*
%TD*%
D23*
%TO.N,GND*%
X52324000Y-70104000D03*
X52324000Y-72136000D03*
%TO.N,+3V3*%
X52324000Y-79756000D03*
X35052000Y-76850003D03*
D24*
X67056000Y-72136000D03*
D23*
X35052000Y-76200000D03*
D25*
%TO.N,/BUSY*%
X69088000Y-86360000D03*
D23*
X39977999Y-80617999D03*
D25*
%TO.N,/RST*%
X68522313Y-85794313D03*
D23*
X40257243Y-79976107D03*
%TO.N,/D{slash}C*%
X40903961Y-79708227D03*
D25*
X67956626Y-85225000D03*
%TO.N,/CS*%
X67388320Y-84661943D03*
D23*
X41231893Y-79089790D03*
D25*
%TO.N,/SCK*%
X66824012Y-84094880D03*
D23*
X45720000Y-79756000D03*
D25*
%TO.N,/MOSI*%
X66257164Y-83530357D03*
D23*
X41028499Y-77404501D03*
%TD*%
D26*
%TO.N,GND*%
X52324000Y-70104000D02*
X51816000Y-69596000D01*
X51242000Y-69596000D02*
X50734000Y-70104000D01*
X50734000Y-72644000D02*
X51816000Y-72644000D01*
X51816000Y-72644000D02*
X52324000Y-72136000D01*
X51816000Y-69596000D02*
X51242000Y-69596000D01*
%TO.N,Net-(J1-Pin_5)*%
X39818000Y-73974000D02*
X41148000Y-72644000D01*
X41148000Y-72644000D02*
X42230000Y-72644000D01*
X37852000Y-73974000D02*
X39818000Y-73974000D01*
%TO.N,+3V3*%
X37852000Y-75974000D02*
X40414000Y-75974000D01*
X37852000Y-76474000D02*
X35428003Y-76474000D01*
D27*
X73350000Y-71232000D02*
X75804000Y-71232000D01*
X67960000Y-71232000D02*
X67056000Y-72136000D01*
X59920000Y-87352000D02*
X59920000Y-85344000D01*
X75184000Y-88392000D02*
X60960000Y-88392000D01*
D26*
X40914000Y-76474000D02*
X41148000Y-76708000D01*
D27*
X60960000Y-88392000D02*
X59920000Y-87352000D01*
X76708000Y-86868000D02*
X75184000Y-88392000D01*
D26*
X37852000Y-75974000D02*
X35278000Y-75974000D01*
X35278000Y-75974000D02*
X35052000Y-76200000D01*
X50734000Y-80264000D02*
X51816000Y-80264000D01*
D27*
X75804000Y-71232000D02*
X76708000Y-72136000D01*
D26*
X51816000Y-80264000D02*
X52324000Y-79756000D01*
X37852000Y-76474000D02*
X37852000Y-75974000D01*
D28*
X59920000Y-85344000D02*
X59944000Y-85344000D01*
D27*
X73350000Y-71232000D02*
X67960000Y-71232000D01*
D26*
X35428003Y-76474000D02*
X35052000Y-76850003D01*
X37852000Y-76474000D02*
X40914000Y-76474000D01*
D27*
X76708000Y-72136000D02*
X76708000Y-86868000D01*
D26*
X40414000Y-75974000D02*
X41148000Y-76708000D01*
X42164000Y-77724000D02*
X42230000Y-77724000D01*
X41148000Y-76708000D02*
X42164000Y-77724000D01*
%TO.N,Net-(J1-Pin_20)*%
X40705945Y-82804000D02*
X42230000Y-82804000D01*
X39375945Y-81474000D02*
X40705945Y-82804000D01*
X37852000Y-81474000D02*
X39375945Y-81474000D01*
%TO.N,/PREVGH*%
X51816000Y-74168000D02*
X54356000Y-71628000D01*
X40640000Y-72375896D02*
X40640000Y-69596000D01*
X60960000Y-72644000D02*
X60452000Y-73152000D01*
X60452000Y-73152000D02*
X59562000Y-73152000D01*
X45212000Y-68580000D02*
X45720000Y-69088000D01*
X37852000Y-73474000D02*
X39541896Y-73474000D01*
X49312000Y-76672000D02*
X51344000Y-76672000D01*
X60960000Y-72136000D02*
X60960000Y-72644000D01*
X48834000Y-77150000D02*
X49312000Y-76672000D01*
X45720000Y-76708000D02*
X46736000Y-77724000D01*
X39541896Y-73474000D02*
X40640000Y-72375896D01*
X46736000Y-77724000D02*
X48834000Y-77724000D01*
X60452000Y-71628000D02*
X60960000Y-72136000D01*
X51344000Y-76672000D02*
X51816000Y-76200000D01*
X48834000Y-77724000D02*
X48834000Y-77150000D01*
X45720000Y-69088000D02*
X45720000Y-76708000D01*
X41656000Y-68580000D02*
X45212000Y-68580000D01*
X51816000Y-76200000D02*
X51816000Y-74168000D01*
X40640000Y-69596000D02*
X41656000Y-68580000D01*
X54356000Y-71628000D02*
X60452000Y-71628000D01*
%TO.N,/PREVGL*%
X46736000Y-72136000D02*
X47244000Y-72644000D01*
X39678000Y-69273896D02*
X41387896Y-67564000D01*
X39678000Y-72053792D02*
X39678000Y-69273896D01*
X45480104Y-67564000D02*
X46736000Y-68819896D01*
X61468000Y-75692000D02*
X61468000Y-72001948D01*
X60640052Y-71174000D02*
X50304000Y-71174000D01*
X50304000Y-71174000D02*
X48834000Y-72644000D01*
X46736000Y-68819896D02*
X46736000Y-72136000D01*
X39257792Y-72474000D02*
X39678000Y-72053792D01*
X60658000Y-76502000D02*
X61468000Y-75692000D01*
X47244000Y-72644000D02*
X48834000Y-72644000D01*
X59562000Y-76502000D02*
X60658000Y-76502000D01*
X37852000Y-72474000D02*
X39257792Y-72474000D01*
X61468000Y-72001948D02*
X60640052Y-71174000D01*
X41387896Y-67564000D02*
X45480104Y-67564000D01*
D29*
%TO.N,Net-(D2-K)*%
X56262000Y-79852000D02*
X55784000Y-79852000D01*
X52832000Y-82804000D02*
X50734000Y-82804000D01*
X55784000Y-79852000D02*
X52832000Y-82804000D01*
X56262000Y-76502000D02*
X56262000Y-79852000D01*
D26*
%TO.N,Net-(D1-A)*%
X48834000Y-83886000D02*
X50434001Y-85486000D01*
X53340000Y-74676000D02*
X54864000Y-73152000D01*
X49312000Y-81752000D02*
X52360000Y-81752000D01*
X48834000Y-82804000D02*
X48834000Y-82230000D01*
X52466000Y-85486000D02*
X52608000Y-85344000D01*
X48834000Y-82804000D02*
X48834000Y-83886000D01*
X50434001Y-85486000D02*
X50784000Y-85486000D01*
X52360000Y-81752000D02*
X53340000Y-80772000D01*
X54864000Y-73152000D02*
X56262000Y-73152000D01*
X48834000Y-82230000D02*
X49312000Y-81752000D01*
X50784000Y-85486000D02*
X52466000Y-85486000D01*
X52608000Y-85344000D02*
X56920000Y-85344000D01*
X53340000Y-80772000D02*
X53340000Y-74676000D01*
%TO.N,/GDR*%
X39286000Y-82974000D02*
X37852000Y-82974000D01*
X40132000Y-85344000D02*
X40132000Y-83820000D01*
X44092500Y-85344000D02*
X44092500Y-85955500D01*
X40132000Y-83820000D02*
X39286000Y-82974000D01*
X43180000Y-86868000D02*
X41656000Y-86868000D01*
X41656000Y-86868000D02*
X40132000Y-85344000D01*
D29*
X44600500Y-84836000D02*
X44092500Y-85344000D01*
D26*
X44092500Y-85955500D02*
X43180000Y-86868000D01*
D29*
X48784000Y-84836000D02*
X44600500Y-84836000D01*
D26*
%TO.N,/RESE*%
X36576000Y-87884000D02*
X36576000Y-82796000D01*
X36576000Y-82796000D02*
X36898000Y-82474000D01*
X47182500Y-89977500D02*
X46736000Y-90424000D01*
X36898000Y-82474000D02*
X37852000Y-82474000D01*
X47182500Y-88392000D02*
X47182500Y-86421500D01*
X46736000Y-90424000D02*
X39116000Y-90424000D01*
X47182500Y-86421500D02*
X47468000Y-86136000D01*
X47182500Y-88392000D02*
X47182500Y-89977500D01*
X39116000Y-90424000D02*
X36576000Y-87884000D01*
X47468000Y-86136000D02*
X48784000Y-86136000D01*
%TO.N,/BUSY*%
X38806000Y-79474000D02*
X39949999Y-80617999D01*
X37852000Y-79474000D02*
X38806000Y-79474000D01*
X70216000Y-85232000D02*
X73350000Y-85232000D01*
X69088000Y-86360000D02*
X70216000Y-85232000D01*
X39949999Y-80617999D02*
X39977999Y-80617999D01*
%TO.N,/RST*%
X39255136Y-78974000D02*
X40257243Y-79976107D01*
X71084626Y-83232000D02*
X73350000Y-83232000D01*
X68522313Y-85794313D02*
X71084626Y-83232000D01*
X37852000Y-78974000D02*
X39255136Y-78974000D01*
%TO.N,/D{slash}C*%
X39669734Y-78474000D02*
X40903961Y-79708227D01*
X37852000Y-78474000D02*
X39669734Y-78474000D01*
X67956626Y-85225000D02*
X71949626Y-81232000D01*
X71949626Y-81232000D02*
X73350000Y-81232000D01*
%TO.N,/CS*%
X67388320Y-84503680D02*
X70612000Y-81280000D01*
X37852000Y-77974000D02*
X40116103Y-77974000D01*
X67388320Y-84661943D02*
X67388320Y-84503680D01*
X70612000Y-79756000D02*
X71136000Y-79232000D01*
X40116103Y-77974000D02*
X41231893Y-79089790D01*
X71136000Y-79232000D02*
X73350000Y-79232000D01*
X70612000Y-81280000D02*
X70612000Y-79756000D01*
%TO.N,/SCK*%
X71104000Y-77232000D02*
X73350000Y-77232000D01*
X41470895Y-78512790D02*
X41857105Y-78899000D01*
X70104000Y-80814892D02*
X70104000Y-78232000D01*
X44863000Y-78899000D02*
X45720000Y-79756000D01*
X41296945Y-78512790D02*
X41470895Y-78512790D01*
X70104000Y-78232000D02*
X71104000Y-77232000D01*
X37852000Y-77474000D02*
X40258155Y-77474000D01*
X41857105Y-78899000D02*
X44863000Y-78899000D01*
X66824012Y-84094880D02*
X70104000Y-80814892D01*
X40258155Y-77474000D02*
X41296945Y-78512790D01*
%TO.N,/MOSI*%
X69650000Y-80137521D02*
X69650000Y-76654000D01*
X66257164Y-83530357D02*
X69650000Y-80137521D01*
X69650000Y-76654000D02*
X71072000Y-75232000D01*
X37852000Y-76974000D02*
X40597998Y-76974000D01*
X40597998Y-76974000D02*
X41028499Y-77404501D01*
X71072000Y-75232000D02*
X73350000Y-75232000D01*
%TO.N,Net-(J1-Pin_7)*%
X37852000Y-74974000D02*
X40938000Y-74974000D01*
X40938000Y-74974000D02*
X41148000Y-75184000D01*
X41148000Y-75184000D02*
X42230000Y-75184000D01*
%TO.N,Net-(J1-Pin_3)*%
X46228000Y-68953948D02*
X46228000Y-74168000D01*
X46228000Y-74168000D02*
X47244000Y-75184000D01*
X41521948Y-68072000D02*
X45346052Y-68072000D01*
X40132000Y-72241844D02*
X40132000Y-69461948D01*
X40132000Y-69461948D02*
X41521948Y-68072000D01*
X45346052Y-68072000D02*
X46228000Y-68953948D01*
X37852000Y-72974000D02*
X39399844Y-72974000D01*
X47244000Y-75184000D02*
X48834000Y-75184000D01*
X39399844Y-72974000D02*
X40132000Y-72241844D01*
%TO.N,Net-(J1-Pin_1)*%
X47752000Y-69193844D02*
X45668156Y-67110000D01*
X39224000Y-71519740D02*
X38769740Y-71974000D01*
X39224000Y-69085844D02*
X39224000Y-71519740D01*
X48514000Y-70104000D02*
X47752000Y-69342000D01*
X48834000Y-70104000D02*
X48514000Y-70104000D01*
X47752000Y-69342000D02*
X47752000Y-69193844D01*
X38769740Y-71974000D02*
X37852000Y-71974000D01*
X45668156Y-67110000D02*
X41199843Y-67110000D01*
X41199843Y-67110000D02*
X39224000Y-69085844D01*
%TO.N,Net-(J1-Pin_17)*%
X38663948Y-79974000D02*
X39034974Y-80345026D01*
X39034974Y-80490976D02*
X39823998Y-81280000D01*
X40132000Y-81280000D02*
X41148000Y-80264000D01*
X39823998Y-81280000D02*
X40132000Y-81280000D01*
X41148000Y-80264000D02*
X42267500Y-80264000D01*
X37852000Y-79974000D02*
X38663948Y-79974000D01*
X39034974Y-80345026D02*
X39034974Y-80490976D01*
%TD*%
%TA.AperFunction,Conductor*%
%TO.N,GND*%
G36*
X53793647Y-71569513D02*
G01*
X53811660Y-71613000D01*
X53793647Y-71656487D01*
X51581259Y-73868873D01*
X51571413Y-73876869D01*
X51556793Y-73886421D01*
X51556791Y-73886423D01*
X51533670Y-73916128D01*
X51531148Y-73918985D01*
X51526948Y-73923185D01*
X51513677Y-73941771D01*
X51512919Y-73942788D01*
X51479410Y-73985842D01*
X51476984Y-73990326D01*
X51476954Y-73990310D01*
X51474377Y-73995317D01*
X51474406Y-73995332D01*
X51472168Y-73999908D01*
X51456603Y-74052191D01*
X51456215Y-74053400D01*
X51438500Y-74105004D01*
X51437661Y-74110035D01*
X51437627Y-74110029D01*
X51436815Y-74115600D01*
X51436849Y-74115605D01*
X51436218Y-74120660D01*
X51437378Y-74148674D01*
X51438474Y-74175192D01*
X51438500Y-74176427D01*
X51438500Y-74301795D01*
X51420487Y-74345282D01*
X51377000Y-74363295D01*
X51340144Y-74351028D01*
X51226091Y-74265648D01*
X51226086Y-74265646D01*
X51091380Y-74215403D01*
X51031826Y-74209000D01*
X50984000Y-74209000D01*
X50984000Y-76159000D01*
X51031826Y-76159000D01*
X51091380Y-76152596D01*
X51206319Y-76109726D01*
X51253359Y-76111405D01*
X51285433Y-76145856D01*
X51283754Y-76192896D01*
X51271298Y-76210835D01*
X51205647Y-76276487D01*
X51162160Y-76294500D01*
X49357530Y-76294500D01*
X49344909Y-76293191D01*
X49327817Y-76289607D01*
X49327816Y-76289607D01*
X49290455Y-76294264D01*
X49286650Y-76294500D01*
X49280719Y-76294500D01*
X49267080Y-76296775D01*
X49258206Y-76298256D01*
X49256950Y-76298439D01*
X49202798Y-76305190D01*
X49197912Y-76306645D01*
X49197902Y-76306613D01*
X49192539Y-76308331D01*
X49192550Y-76308362D01*
X49187732Y-76310015D01*
X49139749Y-76335982D01*
X49138620Y-76336564D01*
X49089612Y-76360523D01*
X49085462Y-76363486D01*
X49085442Y-76363459D01*
X49080929Y-76366823D01*
X49080950Y-76366850D01*
X49076927Y-76369980D01*
X49039970Y-76410126D01*
X49039090Y-76411043D01*
X48719645Y-76730487D01*
X48676158Y-76748500D01*
X48536127Y-76748500D01*
X48476518Y-76754908D01*
X48476514Y-76754909D01*
X48341671Y-76805203D01*
X48341666Y-76805205D01*
X48226454Y-76891454D01*
X48140205Y-77006666D01*
X48140203Y-77006671D01*
X48089910Y-77141512D01*
X48089910Y-77141514D01*
X48089909Y-77141517D01*
X48083500Y-77201127D01*
X48083500Y-77201128D01*
X48083500Y-77285000D01*
X48065487Y-77328487D01*
X48022000Y-77346500D01*
X46917839Y-77346500D01*
X46874352Y-77328487D01*
X46115513Y-76569647D01*
X46097500Y-76526160D01*
X46097500Y-74719839D01*
X46115513Y-74676352D01*
X46159000Y-74658339D01*
X46202487Y-74676352D01*
X46944873Y-75418739D01*
X46952871Y-75428588D01*
X46962422Y-75443206D01*
X46962424Y-75443209D01*
X46992129Y-75466330D01*
X46994980Y-75468846D01*
X46999186Y-75473052D01*
X47017795Y-75486339D01*
X47018782Y-75487074D01*
X47061845Y-75520592D01*
X47061846Y-75520592D01*
X47061847Y-75520593D01*
X47066328Y-75523018D01*
X47066310Y-75523049D01*
X47071314Y-75525624D01*
X47071330Y-75525593D01*
X47075906Y-75527830D01*
X47075909Y-75527831D01*
X47075911Y-75527832D01*
X47128195Y-75543397D01*
X47129387Y-75543779D01*
X47158132Y-75553647D01*
X47181006Y-75561500D01*
X47181007Y-75561500D01*
X47186034Y-75562339D01*
X47186028Y-75562372D01*
X47191600Y-75563184D01*
X47191605Y-75563151D01*
X47196660Y-75563781D01*
X47251192Y-75561525D01*
X47252429Y-75561500D01*
X48022001Y-75561500D01*
X48065488Y-75579513D01*
X48083501Y-75623000D01*
X48083501Y-75706872D01*
X48089908Y-75766481D01*
X48089909Y-75766485D01*
X48130068Y-75874155D01*
X48140114Y-75901091D01*
X48140203Y-75901328D01*
X48140205Y-75901333D01*
X48169905Y-75941007D01*
X48226454Y-76016546D01*
X48281218Y-76057542D01*
X48341074Y-76102351D01*
X48341669Y-76102796D01*
X48476517Y-76153091D01*
X48536127Y-76159500D01*
X49131872Y-76159499D01*
X49191483Y-76153091D01*
X49326331Y-76102796D01*
X49441546Y-76016546D01*
X49527796Y-75901331D01*
X49578091Y-75766483D01*
X49584500Y-75706873D01*
X49584500Y-75434000D01*
X49984000Y-75434000D01*
X49984000Y-75706825D01*
X49990403Y-75766380D01*
X50040646Y-75901086D01*
X50040648Y-75901091D01*
X50126811Y-76016188D01*
X50241908Y-76102351D01*
X50241913Y-76102353D01*
X50376619Y-76152596D01*
X50436174Y-76159000D01*
X50484000Y-76159000D01*
X50484000Y-75434000D01*
X49984000Y-75434000D01*
X49584500Y-75434000D01*
X49584499Y-74934000D01*
X49984000Y-74934000D01*
X50484000Y-74934000D01*
X50484000Y-74209000D01*
X50436174Y-74209000D01*
X50376619Y-74215403D01*
X50241913Y-74265646D01*
X50241908Y-74265648D01*
X50126811Y-74351811D01*
X50040648Y-74466908D01*
X50040646Y-74466913D01*
X49990403Y-74601619D01*
X49984000Y-74661174D01*
X49984000Y-74934000D01*
X49584499Y-74934000D01*
X49584499Y-74661128D01*
X49578091Y-74601517D01*
X49527796Y-74466669D01*
X49515907Y-74450788D01*
X49501233Y-74431185D01*
X49441546Y-74351454D01*
X49353411Y-74285476D01*
X49326333Y-74265205D01*
X49326328Y-74265203D01*
X49191487Y-74214910D01*
X49191485Y-74214909D01*
X49191483Y-74214909D01*
X49131873Y-74208500D01*
X49131871Y-74208500D01*
X48536127Y-74208500D01*
X48476518Y-74214908D01*
X48476514Y-74214909D01*
X48341671Y-74265203D01*
X48341666Y-74265205D01*
X48226454Y-74351454D01*
X48140205Y-74466666D01*
X48140203Y-74466671D01*
X48089910Y-74601512D01*
X48089910Y-74601514D01*
X48089909Y-74601517D01*
X48086050Y-74637408D01*
X48083500Y-74661128D01*
X48083500Y-74745000D01*
X48065487Y-74788487D01*
X48022000Y-74806500D01*
X47425839Y-74806500D01*
X47382352Y-74788487D01*
X46623513Y-74029647D01*
X46605500Y-73986160D01*
X46605500Y-72687839D01*
X46623513Y-72644352D01*
X46667000Y-72626339D01*
X46710487Y-72644352D01*
X46944870Y-72878735D01*
X46952868Y-72888583D01*
X46953860Y-72890102D01*
X46962424Y-72903209D01*
X46992137Y-72926336D01*
X46994992Y-72928857D01*
X46999186Y-72933051D01*
X47017786Y-72946332D01*
X47018787Y-72947079D01*
X47061843Y-72980591D01*
X47066326Y-72983017D01*
X47066310Y-72983046D01*
X47071320Y-72985625D01*
X47071335Y-72985595D01*
X47075910Y-72987832D01*
X47128185Y-73003394D01*
X47129398Y-73003782D01*
X47181006Y-73021500D01*
X47181009Y-73021500D01*
X47186034Y-73022339D01*
X47186028Y-73022372D01*
X47191596Y-73023184D01*
X47191601Y-73023150D01*
X47196659Y-73023780D01*
X47196659Y-73023779D01*
X47196660Y-73023780D01*
X47251178Y-73021525D01*
X47252413Y-73021500D01*
X48022001Y-73021500D01*
X48065488Y-73039513D01*
X48083501Y-73083000D01*
X48083501Y-73166872D01*
X48089908Y-73226481D01*
X48089909Y-73226485D01*
X48133287Y-73342786D01*
X48140204Y-73361331D01*
X48226454Y-73476546D01*
X48298940Y-73530809D01*
X48341074Y-73562351D01*
X48341669Y-73562796D01*
X48476517Y-73613091D01*
X48536127Y-73619500D01*
X49131872Y-73619499D01*
X49191483Y-73613091D01*
X49326331Y-73562796D01*
X49441546Y-73476546D01*
X49527796Y-73361331D01*
X49578091Y-73226483D01*
X49584500Y-73166873D01*
X49584500Y-72894000D01*
X49984000Y-72894000D01*
X49984000Y-73166825D01*
X49990403Y-73226380D01*
X50040646Y-73361086D01*
X50040648Y-73361091D01*
X50126811Y-73476188D01*
X50241908Y-73562351D01*
X50241913Y-73562353D01*
X50376619Y-73612596D01*
X50436174Y-73619000D01*
X50484000Y-73619000D01*
X50484000Y-72894000D01*
X50984000Y-72894000D01*
X50984000Y-73619000D01*
X51031826Y-73619000D01*
X51091380Y-73612596D01*
X51226086Y-73562353D01*
X51226091Y-73562351D01*
X51341188Y-73476188D01*
X51427351Y-73361091D01*
X51427353Y-73361086D01*
X51477596Y-73226380D01*
X51484000Y-73166825D01*
X51484000Y-72894000D01*
X50984000Y-72894000D01*
X50484000Y-72894000D01*
X49984000Y-72894000D01*
X49584500Y-72894000D01*
X49584499Y-72452838D01*
X49602511Y-72409353D01*
X49879015Y-72132850D01*
X49922500Y-72114838D01*
X49965987Y-72132851D01*
X49984000Y-72176338D01*
X49984000Y-72394000D01*
X51484000Y-72394000D01*
X51484000Y-72121174D01*
X51477596Y-72061619D01*
X51427353Y-71926913D01*
X51427351Y-71926908D01*
X51341188Y-71811811D01*
X51226091Y-71725648D01*
X51226086Y-71725646D01*
X51091380Y-71675403D01*
X51079706Y-71674148D01*
X51038393Y-71651589D01*
X51025132Y-71606426D01*
X51047691Y-71565113D01*
X51086280Y-71551500D01*
X53750160Y-71551500D01*
X53793647Y-71569513D01*
G37*
%TD.AperFunction*%
%TA.AperFunction,Conductor*%
G36*
X80761487Y-65034513D02*
G01*
X80779500Y-65078000D01*
X80779500Y-67844842D01*
X80761487Y-67888329D01*
X80718000Y-67906342D01*
X80696509Y-67902465D01*
X80657482Y-67887909D01*
X80597872Y-67881500D01*
X77602128Y-67881500D01*
X77542518Y-67887909D01*
X77542516Y-67887909D01*
X77542513Y-67887910D01*
X77407671Y-67938203D01*
X77292454Y-68024454D01*
X77206203Y-68139671D01*
X77155910Y-68274513D01*
X77155909Y-68274516D01*
X77155909Y-68274518D01*
X77149500Y-68334128D01*
X77149500Y-69429872D01*
X77155909Y-69489482D01*
X77155909Y-69489484D01*
X77155910Y-69489486D01*
X77202521Y-69614456D01*
X77206204Y-69624330D01*
X77292454Y-69739546D01*
X77407670Y-69825796D01*
X77542518Y-69876091D01*
X77602128Y-69882500D01*
X77602129Y-69882500D01*
X80597871Y-69882500D01*
X80597872Y-69882500D01*
X80657482Y-69876091D01*
X80696508Y-69861535D01*
X80743547Y-69863214D01*
X80775622Y-69897664D01*
X80779500Y-69919157D01*
X80779500Y-86544842D01*
X80761487Y-86588329D01*
X80718000Y-86606342D01*
X80696509Y-86602465D01*
X80693171Y-86601220D01*
X80657482Y-86587909D01*
X80597872Y-86581500D01*
X77602128Y-86581500D01*
X77542518Y-86587909D01*
X77542516Y-86587909D01*
X77542513Y-86587910D01*
X77407671Y-86638203D01*
X77374356Y-86663143D01*
X77328748Y-86674784D01*
X77288267Y-86650766D01*
X77276000Y-86613910D01*
X77276000Y-72175245D01*
X77276263Y-72171227D01*
X77280901Y-72136000D01*
X77261380Y-71987722D01*
X77204147Y-71849550D01*
X77174915Y-71811454D01*
X77134735Y-71759090D01*
X77134734Y-71759090D01*
X77113103Y-71730899D01*
X77111282Y-71729502D01*
X77084910Y-71709265D01*
X77081892Y-71706619D01*
X76233384Y-70858111D01*
X76230731Y-70855086D01*
X76209102Y-70826898D01*
X76209101Y-70826897D01*
X76090453Y-70735855D01*
X76090451Y-70735854D01*
X76090450Y-70735853D01*
X75952278Y-70678620D01*
X75952275Y-70678619D01*
X75952273Y-70678619D01*
X75841227Y-70664000D01*
X75804000Y-70659099D01*
X75768769Y-70663737D01*
X75764754Y-70664000D01*
X75267934Y-70664000D01*
X75224447Y-70645987D01*
X75218706Y-70639362D01*
X75207546Y-70624454D01*
X75207545Y-70624453D01*
X75092333Y-70538205D01*
X75092328Y-70538203D01*
X74957487Y-70487910D01*
X74957485Y-70487909D01*
X74957483Y-70487909D01*
X74897873Y-70481500D01*
X74897871Y-70481500D01*
X71802127Y-70481500D01*
X71742518Y-70487908D01*
X71742514Y-70487909D01*
X71607671Y-70538203D01*
X71607666Y-70538205D01*
X71492454Y-70624453D01*
X71490643Y-70626873D01*
X71481298Y-70639355D01*
X71440819Y-70663374D01*
X71432066Y-70664000D01*
X67999246Y-70664000D01*
X67995230Y-70663737D01*
X67960000Y-70659099D01*
X67959999Y-70659099D01*
X67922773Y-70664000D01*
X67811726Y-70678619D01*
X67811722Y-70678620D01*
X67673550Y-70735853D01*
X67673546Y-70735855D01*
X67554897Y-70826897D01*
X67533267Y-70855086D01*
X67530612Y-70858113D01*
X66802956Y-71585769D01*
X66783005Y-71599100D01*
X66753162Y-71611461D01*
X66753158Y-71611464D01*
X66627718Y-71707718D01*
X66531466Y-71833155D01*
X66531464Y-71833159D01*
X66470956Y-71979238D01*
X66470955Y-71979242D01*
X66450318Y-72136000D01*
X66470903Y-72292365D01*
X66470956Y-72292762D01*
X66531464Y-72438841D01*
X66627718Y-72564282D01*
X66753159Y-72660536D01*
X66899238Y-72721044D01*
X67056000Y-72741682D01*
X67212762Y-72721044D01*
X67358841Y-72660536D01*
X67484282Y-72564282D01*
X67580536Y-72438841D01*
X67592899Y-72408991D01*
X67606227Y-72389044D01*
X68177259Y-71818013D01*
X68220747Y-71800000D01*
X71432066Y-71800000D01*
X71475553Y-71818013D01*
X71481293Y-71824637D01*
X71485071Y-71829683D01*
X71492454Y-71839546D01*
X71563510Y-71892739D01*
X71607669Y-71925796D01*
X71742517Y-71976091D01*
X71802127Y-71982500D01*
X74897872Y-71982499D01*
X74957483Y-71976091D01*
X75092331Y-71925796D01*
X75207546Y-71839546D01*
X75218701Y-71824644D01*
X75259181Y-71800626D01*
X75267934Y-71800000D01*
X75543253Y-71800000D01*
X75586740Y-71818013D01*
X76121987Y-72353260D01*
X76140000Y-72396747D01*
X76140000Y-86607252D01*
X76121987Y-86650739D01*
X74966740Y-87805987D01*
X74923253Y-87824000D01*
X61220747Y-87824000D01*
X61177260Y-87805987D01*
X60722083Y-87350810D01*
X60704070Y-87307323D01*
X60705252Y-87295324D01*
X60705964Y-87291742D01*
X60705966Y-87291740D01*
X60718729Y-87227577D01*
X60720500Y-87218675D01*
X60720500Y-83530357D01*
X65701914Y-83530357D01*
X65718814Y-83658728D01*
X65720834Y-83674066D01*
X65776303Y-83807982D01*
X65864543Y-83922978D01*
X65965034Y-84000088D01*
X65978303Y-84010270D01*
X65979539Y-84011218D01*
X66113455Y-84066687D01*
X66220936Y-84080837D01*
X66261700Y-84104372D01*
X66273883Y-84133783D01*
X66287609Y-84238034D01*
X66287682Y-84238589D01*
X66343151Y-84372505D01*
X66431391Y-84487501D01*
X66546387Y-84575741D01*
X66680303Y-84631210D01*
X66784859Y-84644975D01*
X66825623Y-84668510D01*
X66837806Y-84697921D01*
X66849484Y-84786619D01*
X66851990Y-84805652D01*
X66907459Y-84939568D01*
X66995699Y-85054564D01*
X67110695Y-85142804D01*
X67244611Y-85198273D01*
X67353774Y-85212644D01*
X67394537Y-85236179D01*
X67406720Y-85265591D01*
X67420128Y-85367439D01*
X67420296Y-85368709D01*
X67475765Y-85502625D01*
X67564005Y-85617621D01*
X67679001Y-85705861D01*
X67812917Y-85761330D01*
X67918575Y-85775240D01*
X67959339Y-85798775D01*
X67971522Y-85828186D01*
X67984373Y-85925794D01*
X67985983Y-85938022D01*
X68026705Y-86036333D01*
X68041452Y-86071937D01*
X68041454Y-86071941D01*
X68066373Y-86104416D01*
X68129692Y-86186934D01*
X68244688Y-86275174D01*
X68378604Y-86330643D01*
X68484748Y-86344617D01*
X68525512Y-86368152D01*
X68537695Y-86397563D01*
X68545204Y-86454601D01*
X68551670Y-86503709D01*
X68605397Y-86633418D01*
X68607139Y-86637624D01*
X68607141Y-86637628D01*
X68607583Y-86638204D01*
X68695379Y-86752621D01*
X68810375Y-86840861D01*
X68944291Y-86896330D01*
X69088000Y-86915250D01*
X69231709Y-86896330D01*
X69365625Y-86840861D01*
X69480621Y-86752621D01*
X69568861Y-86637625D01*
X69624330Y-86503709D01*
X69643250Y-86360000D01*
X69643249Y-86359998D01*
X69643767Y-86356070D01*
X69661252Y-86320612D01*
X70354352Y-85627513D01*
X70397840Y-85609500D01*
X71320674Y-85609500D01*
X71364161Y-85627513D01*
X71378296Y-85649508D01*
X71406202Y-85724328D01*
X71406205Y-85724333D01*
X71423828Y-85747874D01*
X71492454Y-85839546D01*
X71607669Y-85925796D01*
X71742517Y-85976091D01*
X71802127Y-85982500D01*
X74897872Y-85982499D01*
X74957483Y-85976091D01*
X75092331Y-85925796D01*
X75207546Y-85839546D01*
X75293796Y-85724331D01*
X75344091Y-85589483D01*
X75350500Y-85529873D01*
X75350499Y-84934128D01*
X75344091Y-84874517D01*
X75293796Y-84739669D01*
X75207546Y-84624454D01*
X75138314Y-84572627D01*
X75092333Y-84538205D01*
X75092328Y-84538203D01*
X74957487Y-84487910D01*
X74957485Y-84487909D01*
X74957483Y-84487909D01*
X74897873Y-84481500D01*
X74897871Y-84481500D01*
X71802127Y-84481500D01*
X71742518Y-84487908D01*
X71742514Y-84487909D01*
X71607671Y-84538203D01*
X71607666Y-84538205D01*
X71492454Y-84624454D01*
X71406205Y-84739666D01*
X71406202Y-84739671D01*
X71378296Y-84814492D01*
X71346222Y-84848942D01*
X71320674Y-84854500D01*
X70261530Y-84854500D01*
X70248909Y-84853191D01*
X70231816Y-84849607D01*
X70194453Y-84854264D01*
X70190648Y-84854500D01*
X70184719Y-84854500D01*
X70162193Y-84858257D01*
X70160939Y-84858440D01*
X70145771Y-84860331D01*
X70100389Y-84847838D01*
X70077134Y-84806914D01*
X70089627Y-84761532D01*
X70094674Y-84755817D01*
X70178255Y-84672237D01*
X71222978Y-83627513D01*
X71266466Y-83609500D01*
X71320674Y-83609500D01*
X71364161Y-83627513D01*
X71378296Y-83649508D01*
X71406202Y-83724328D01*
X71406205Y-83724333D01*
X71415344Y-83736541D01*
X71492454Y-83839546D01*
X71583286Y-83907543D01*
X71603904Y-83922978D01*
X71607669Y-83925796D01*
X71742517Y-83976091D01*
X71802127Y-83982500D01*
X74897872Y-83982499D01*
X74957483Y-83976091D01*
X75092331Y-83925796D01*
X75207546Y-83839546D01*
X75293796Y-83724331D01*
X75344091Y-83589483D01*
X75350500Y-83529873D01*
X75350499Y-82934128D01*
X75344091Y-82874517D01*
X75293796Y-82739669D01*
X75292568Y-82738029D01*
X75255974Y-82689146D01*
X75207546Y-82624454D01*
X75109673Y-82551186D01*
X75092333Y-82538205D01*
X75092328Y-82538203D01*
X75083740Y-82535000D01*
X75066074Y-82528411D01*
X74957487Y-82487910D01*
X74957485Y-82487909D01*
X74957483Y-82487909D01*
X74897873Y-82481500D01*
X74897871Y-82481500D01*
X71802127Y-82481500D01*
X71742518Y-82487908D01*
X71742514Y-82487909D01*
X71607671Y-82538203D01*
X71607666Y-82538205D01*
X71492454Y-82624454D01*
X71406205Y-82739666D01*
X71406202Y-82739671D01*
X71378296Y-82814492D01*
X71346222Y-82848942D01*
X71320674Y-82854500D01*
X71130156Y-82854500D01*
X71117535Y-82853191D01*
X71100442Y-82849607D01*
X71063079Y-82854264D01*
X71059274Y-82854500D01*
X71053345Y-82854500D01*
X71030819Y-82858257D01*
X71029563Y-82858440D01*
X71010252Y-82860848D01*
X70964871Y-82848353D01*
X70941616Y-82807428D01*
X70954111Y-82762047D01*
X70959151Y-82756339D01*
X71718897Y-81996593D01*
X71762383Y-81978581D01*
X71768959Y-81978934D01*
X71776648Y-81979760D01*
X71802127Y-81982500D01*
X74897872Y-81982499D01*
X74957483Y-81976091D01*
X75092331Y-81925796D01*
X75207546Y-81839546D01*
X75293796Y-81724331D01*
X75344091Y-81589483D01*
X75350500Y-81529873D01*
X75350499Y-80934128D01*
X75344091Y-80874517D01*
X75293796Y-80739669D01*
X75207546Y-80624454D01*
X75129905Y-80566332D01*
X75092333Y-80538205D01*
X75092328Y-80538203D01*
X74957487Y-80487910D01*
X74957485Y-80487909D01*
X74957483Y-80487909D01*
X74897873Y-80481500D01*
X74897871Y-80481500D01*
X71802127Y-80481500D01*
X71742518Y-80487908D01*
X71742514Y-80487909D01*
X71607671Y-80538203D01*
X71607666Y-80538205D01*
X71492454Y-80624454D01*
X71406205Y-80739666D01*
X71406203Y-80739671D01*
X71355910Y-80874512D01*
X71355910Y-80874514D01*
X71355909Y-80874517D01*
X71354545Y-80887203D01*
X71349500Y-80934128D01*
X71349500Y-81272785D01*
X71331487Y-81316272D01*
X68036667Y-84611091D01*
X67993180Y-84629104D01*
X67949693Y-84611091D01*
X67932206Y-84575632D01*
X67926628Y-84533260D01*
X67938811Y-84487796D01*
X67944107Y-84481756D01*
X70846744Y-81579120D01*
X70856583Y-81571131D01*
X70871209Y-81561576D01*
X70894331Y-81531866D01*
X70896857Y-81529008D01*
X70901052Y-81524814D01*
X70914342Y-81506198D01*
X70915072Y-81505220D01*
X70948592Y-81462155D01*
X70948594Y-81462149D01*
X70951018Y-81457671D01*
X70951049Y-81457688D01*
X70953625Y-81452683D01*
X70953593Y-81452668D01*
X70955832Y-81448088D01*
X70956209Y-81446823D01*
X70971412Y-81395750D01*
X70971764Y-81394653D01*
X70989500Y-81342994D01*
X70989500Y-81342987D01*
X70990339Y-81337966D01*
X70990372Y-81337971D01*
X70991184Y-81332401D01*
X70991150Y-81332397D01*
X70991779Y-81327344D01*
X70991781Y-81327340D01*
X70989525Y-81272807D01*
X70989500Y-81271571D01*
X70989500Y-79937839D01*
X71007513Y-79894352D01*
X71274353Y-79627513D01*
X71317840Y-79609500D01*
X71320674Y-79609500D01*
X71364161Y-79627513D01*
X71378296Y-79649508D01*
X71406202Y-79724328D01*
X71406205Y-79724333D01*
X71437493Y-79766128D01*
X71492454Y-79839546D01*
X71571149Y-79898457D01*
X71589727Y-79912365D01*
X71607669Y-79925796D01*
X71742517Y-79976091D01*
X71802127Y-79982500D01*
X74897872Y-79982499D01*
X74957483Y-79976091D01*
X75092331Y-79925796D01*
X75207546Y-79839546D01*
X75293796Y-79724331D01*
X75344091Y-79589483D01*
X75350500Y-79529873D01*
X75350499Y-78934128D01*
X75344091Y-78874517D01*
X75293796Y-78739669D01*
X75207546Y-78624454D01*
X75138314Y-78572627D01*
X75092333Y-78538205D01*
X75092328Y-78538203D01*
X74957487Y-78487910D01*
X74957485Y-78487909D01*
X74957483Y-78487909D01*
X74897873Y-78481500D01*
X74897871Y-78481500D01*
X71802127Y-78481500D01*
X71742518Y-78487908D01*
X71742514Y-78487909D01*
X71607671Y-78538203D01*
X71607666Y-78538205D01*
X71492454Y-78624454D01*
X71406205Y-78739666D01*
X71406202Y-78739671D01*
X71378296Y-78814492D01*
X71346222Y-78848942D01*
X71320674Y-78854500D01*
X71181530Y-78854500D01*
X71168909Y-78853191D01*
X71151816Y-78849607D01*
X71114453Y-78854264D01*
X71110648Y-78854500D01*
X71104719Y-78854500D01*
X71082193Y-78858257D01*
X71080938Y-78858440D01*
X71026801Y-78865189D01*
X71026798Y-78865189D01*
X71026797Y-78865190D01*
X71026796Y-78865190D01*
X71021911Y-78866645D01*
X71021901Y-78866613D01*
X71016538Y-78868331D01*
X71016549Y-78868362D01*
X71011732Y-78870015D01*
X70963753Y-78895980D01*
X70962624Y-78896561D01*
X70913613Y-78920522D01*
X70909462Y-78923486D01*
X70909442Y-78923459D01*
X70904929Y-78926823D01*
X70904950Y-78926850D01*
X70900927Y-78929980D01*
X70863970Y-78970126D01*
X70863090Y-78971043D01*
X70586487Y-79247647D01*
X70543000Y-79265660D01*
X70499513Y-79247647D01*
X70481500Y-79204160D01*
X70481500Y-78413839D01*
X70499513Y-78370352D01*
X71242352Y-77627513D01*
X71285839Y-77609500D01*
X71320674Y-77609500D01*
X71364161Y-77627513D01*
X71378296Y-77649508D01*
X71406202Y-77724328D01*
X71406204Y-77724331D01*
X71492454Y-77839546D01*
X71607669Y-77925796D01*
X71742517Y-77976091D01*
X71802127Y-77982500D01*
X74897872Y-77982499D01*
X74957483Y-77976091D01*
X75092331Y-77925796D01*
X75207546Y-77839546D01*
X75293796Y-77724331D01*
X75344091Y-77589483D01*
X75350500Y-77529873D01*
X75350499Y-76934128D01*
X75350471Y-76933872D01*
X75345153Y-76884393D01*
X75344091Y-76874517D01*
X75341962Y-76868810D01*
X75334948Y-76850003D01*
X75293796Y-76739669D01*
X75207546Y-76624454D01*
X75128489Y-76565272D01*
X75092333Y-76538205D01*
X75092328Y-76538203D01*
X74957487Y-76487910D01*
X74957485Y-76487909D01*
X74957483Y-76487909D01*
X74897873Y-76481500D01*
X74897871Y-76481500D01*
X71802127Y-76481500D01*
X71742518Y-76487908D01*
X71742514Y-76487909D01*
X71607671Y-76538203D01*
X71607666Y-76538205D01*
X71492454Y-76624454D01*
X71406205Y-76739666D01*
X71406202Y-76739671D01*
X71378296Y-76814492D01*
X71346222Y-76848942D01*
X71320674Y-76854500D01*
X71149530Y-76854500D01*
X71136909Y-76853191D01*
X71119816Y-76849607D01*
X71082453Y-76854264D01*
X71078648Y-76854500D01*
X71072719Y-76854500D01*
X71050193Y-76858257D01*
X71048937Y-76858440D01*
X70994796Y-76865189D01*
X70989919Y-76866642D01*
X70989910Y-76866611D01*
X70984534Y-76868333D01*
X70984545Y-76868364D01*
X70979730Y-76870016D01*
X70931764Y-76895974D01*
X70930634Y-76896555D01*
X70881613Y-76920521D01*
X70877462Y-76923485D01*
X70877443Y-76923459D01*
X70872926Y-76926828D01*
X70872946Y-76926854D01*
X70868927Y-76929981D01*
X70831993Y-76970102D01*
X70831113Y-76971019D01*
X70132487Y-77669646D01*
X70089000Y-77687659D01*
X70045513Y-77669646D01*
X70027500Y-77626159D01*
X70027500Y-76835839D01*
X70045513Y-76792352D01*
X71210353Y-75627513D01*
X71253840Y-75609500D01*
X71320674Y-75609500D01*
X71364161Y-75627513D01*
X71378296Y-75649508D01*
X71406202Y-75724328D01*
X71406205Y-75724333D01*
X71437762Y-75766487D01*
X71492454Y-75839546D01*
X71607669Y-75925796D01*
X71742517Y-75976091D01*
X71802127Y-75982500D01*
X74897872Y-75982499D01*
X74957483Y-75976091D01*
X75092331Y-75925796D01*
X75207546Y-75839546D01*
X75293796Y-75724331D01*
X75344091Y-75589483D01*
X75350500Y-75529873D01*
X75350499Y-74934128D01*
X75344091Y-74874517D01*
X75293796Y-74739669D01*
X75207546Y-74624454D01*
X75123317Y-74561400D01*
X75092333Y-74538205D01*
X75092328Y-74538203D01*
X75083740Y-74535000D01*
X75066074Y-74528411D01*
X74957487Y-74487910D01*
X74957485Y-74487909D01*
X74957483Y-74487909D01*
X74897873Y-74481500D01*
X74897871Y-74481500D01*
X71802127Y-74481500D01*
X71742518Y-74487908D01*
X71742514Y-74487909D01*
X71607671Y-74538203D01*
X71607666Y-74538205D01*
X71492454Y-74624454D01*
X71406205Y-74739666D01*
X71406202Y-74739671D01*
X71378296Y-74814492D01*
X71346222Y-74848942D01*
X71320674Y-74854500D01*
X71117530Y-74854500D01*
X71104909Y-74853191D01*
X71087816Y-74849607D01*
X71050453Y-74854264D01*
X71046648Y-74854500D01*
X71040719Y-74854500D01*
X71018193Y-74858257D01*
X71016937Y-74858440D01*
X70962796Y-74865189D01*
X70957919Y-74866642D01*
X70957910Y-74866611D01*
X70952534Y-74868333D01*
X70952545Y-74868364D01*
X70947730Y-74870016D01*
X70899764Y-74895974D01*
X70898634Y-74896555D01*
X70849613Y-74920521D01*
X70845462Y-74923485D01*
X70845443Y-74923459D01*
X70840926Y-74926828D01*
X70840946Y-74926854D01*
X70836927Y-74929981D01*
X70799993Y-74970102D01*
X70799113Y-74971019D01*
X69415259Y-76354873D01*
X69405413Y-76362869D01*
X69390793Y-76372421D01*
X69390791Y-76372423D01*
X69367670Y-76402128D01*
X69365148Y-76404985D01*
X69360948Y-76409185D01*
X69347677Y-76427771D01*
X69346919Y-76428788D01*
X69313410Y-76471842D01*
X69310984Y-76476326D01*
X69310954Y-76476310D01*
X69308377Y-76481317D01*
X69308406Y-76481332D01*
X69306168Y-76485908D01*
X69290603Y-76538191D01*
X69290215Y-76539400D01*
X69272500Y-76591004D01*
X69271661Y-76596035D01*
X69271627Y-76596029D01*
X69270815Y-76601600D01*
X69270849Y-76601605D01*
X69270218Y-76606660D01*
X69270955Y-76624454D01*
X69272474Y-76661192D01*
X69272500Y-76662427D01*
X69272500Y-79955680D01*
X69254487Y-79999167D01*
X66296551Y-82957102D01*
X66261092Y-82974589D01*
X66113459Y-82994026D01*
X66113455Y-82994027D01*
X65979539Y-83049496D01*
X65979535Y-83049498D01*
X65864543Y-83137736D01*
X65776305Y-83252728D01*
X65776303Y-83252732D01*
X65720834Y-83386648D01*
X65720833Y-83386652D01*
X65701914Y-83530357D01*
X60720500Y-83530357D01*
X60720500Y-83469322D01*
X60705967Y-83396261D01*
X60692172Y-83375615D01*
X60650601Y-83313399D01*
X60609028Y-83285621D01*
X60567738Y-83258032D01*
X60494677Y-83243500D01*
X60494674Y-83243500D01*
X59345326Y-83243500D01*
X59345323Y-83243500D01*
X59272261Y-83258032D01*
X59189399Y-83313399D01*
X59134032Y-83396261D01*
X59119500Y-83469322D01*
X59119500Y-87218677D01*
X59134032Y-87291738D01*
X59144446Y-87307323D01*
X59189399Y-87374601D01*
X59272260Y-87429966D01*
X59290761Y-87433646D01*
X59316428Y-87438752D01*
X59355565Y-87464902D01*
X59365404Y-87491043D01*
X59366620Y-87500278D01*
X59423853Y-87638450D01*
X59514898Y-87757102D01*
X59543090Y-87778735D01*
X59546112Y-87781385D01*
X60530620Y-88765893D01*
X60533267Y-88768913D01*
X60545740Y-88785167D01*
X60554898Y-88797102D01*
X60584686Y-88819959D01*
X60584687Y-88819960D01*
X60673550Y-88888147D01*
X60811722Y-88945380D01*
X60960000Y-88964901D01*
X60995230Y-88960262D01*
X60999246Y-88960000D01*
X75144754Y-88960000D01*
X75148769Y-88960262D01*
X75184000Y-88964901D01*
X75332278Y-88945380D01*
X75470450Y-88888147D01*
X75559313Y-88819960D01*
X75570689Y-88811231D01*
X75570691Y-88811229D01*
X75575882Y-88807245D01*
X75589102Y-88797102D01*
X75610735Y-88768908D01*
X75613379Y-88765892D01*
X77044514Y-87334758D01*
X77088000Y-87316746D01*
X77131487Y-87334759D01*
X77149500Y-87378246D01*
X77149500Y-88129872D01*
X77155909Y-88189482D01*
X77206204Y-88324330D01*
X77292454Y-88439546D01*
X77407670Y-88525796D01*
X77542518Y-88576091D01*
X77602128Y-88582500D01*
X77602129Y-88582500D01*
X80597871Y-88582500D01*
X80597872Y-88582500D01*
X80657482Y-88576091D01*
X80696508Y-88561535D01*
X80743547Y-88563214D01*
X80775622Y-88597664D01*
X80779500Y-88619157D01*
X80779500Y-90878000D01*
X80761487Y-90921487D01*
X80718000Y-90939500D01*
X31042000Y-90939500D01*
X30998513Y-90921487D01*
X30980500Y-90878000D01*
X30980500Y-86298677D01*
X33251500Y-86298677D01*
X33266032Y-86371738D01*
X33283288Y-86397563D01*
X33321399Y-86454601D01*
X33375127Y-86490500D01*
X33404261Y-86509967D01*
X33462473Y-86521545D01*
X33477322Y-86524499D01*
X33477323Y-86524500D01*
X33477326Y-86524500D01*
X35726677Y-86524500D01*
X35726677Y-86524499D01*
X35755980Y-86518670D01*
X35799738Y-86509967D01*
X35799739Y-86509966D01*
X35799740Y-86509966D01*
X35882601Y-86454601D01*
X35937966Y-86371740D01*
X35937966Y-86371739D01*
X35937967Y-86371738D01*
X35946670Y-86327980D01*
X35952499Y-86298677D01*
X35952500Y-86298677D01*
X35952500Y-84449322D01*
X35937967Y-84376261D01*
X35915400Y-84342487D01*
X35882601Y-84293399D01*
X35825900Y-84255513D01*
X35799738Y-84238032D01*
X35726677Y-84223500D01*
X35726674Y-84223500D01*
X33477326Y-84223500D01*
X33477323Y-84223500D01*
X33404261Y-84238032D01*
X33321399Y-84293399D01*
X33266032Y-84376261D01*
X33251500Y-84449322D01*
X33251500Y-86298677D01*
X30980500Y-86298677D01*
X30980500Y-76850003D01*
X34546353Y-76850003D01*
X34566835Y-76992460D01*
X34566836Y-76992464D01*
X34626622Y-77123374D01*
X34626622Y-77123375D01*
X34626623Y-77123376D01*
X34720872Y-77232146D01*
X34841947Y-77309956D01*
X34980039Y-77350503D01*
X35123961Y-77350503D01*
X35262053Y-77309956D01*
X35383128Y-77232146D01*
X35477377Y-77123376D01*
X35537165Y-76992460D01*
X35549847Y-76904247D01*
X35573865Y-76863767D01*
X35610721Y-76851500D01*
X36890000Y-76851500D01*
X36933487Y-76869513D01*
X36951500Y-76913000D01*
X36951500Y-77148677D01*
X36964096Y-77212001D01*
X36964096Y-77235997D01*
X36951500Y-77299322D01*
X36951500Y-77648677D01*
X36964096Y-77712002D01*
X36964096Y-77735998D01*
X36951500Y-77799322D01*
X36951500Y-78148677D01*
X36964096Y-78212002D01*
X36964096Y-78235998D01*
X36951500Y-78299322D01*
X36951500Y-78648677D01*
X36964096Y-78712002D01*
X36964096Y-78735998D01*
X36951500Y-78799322D01*
X36951500Y-79148677D01*
X36964096Y-79212002D01*
X36964096Y-79235998D01*
X36951500Y-79299322D01*
X36951500Y-79648677D01*
X36964096Y-79712002D01*
X36964096Y-79735998D01*
X36951500Y-79799322D01*
X36951500Y-80148677D01*
X36964096Y-80212002D01*
X36964096Y-80235998D01*
X36951500Y-80299322D01*
X36951500Y-80648677D01*
X36964096Y-80712002D01*
X36964096Y-80735998D01*
X36951500Y-80799322D01*
X36951500Y-81148677D01*
X36964096Y-81212002D01*
X36964096Y-81235998D01*
X36951500Y-81299322D01*
X36951500Y-81648677D01*
X36964096Y-81712002D01*
X36964096Y-81735998D01*
X36951500Y-81799322D01*
X36951500Y-82032599D01*
X36933487Y-82076086D01*
X36897608Y-82093627D01*
X36885567Y-82095128D01*
X36876452Y-82096264D01*
X36872649Y-82096500D01*
X36866719Y-82096500D01*
X36844193Y-82100257D01*
X36842938Y-82100440D01*
X36788801Y-82107189D01*
X36788798Y-82107189D01*
X36788797Y-82107190D01*
X36788796Y-82107190D01*
X36783911Y-82108645D01*
X36783901Y-82108613D01*
X36778538Y-82110331D01*
X36778549Y-82110362D01*
X36773732Y-82112015D01*
X36725753Y-82137980D01*
X36724624Y-82138561D01*
X36675613Y-82162522D01*
X36671462Y-82165486D01*
X36671442Y-82165459D01*
X36666929Y-82168823D01*
X36666950Y-82168850D01*
X36662927Y-82171980D01*
X36625970Y-82212126D01*
X36625090Y-82213043D01*
X36341257Y-82496875D01*
X36331410Y-82504872D01*
X36316790Y-82514424D01*
X36293670Y-82544128D01*
X36291150Y-82546981D01*
X36286954Y-82551178D01*
X36286948Y-82551185D01*
X36273677Y-82569771D01*
X36272919Y-82570788D01*
X36239410Y-82613842D01*
X36236984Y-82618326D01*
X36236954Y-82618310D01*
X36234377Y-82623317D01*
X36234406Y-82623332D01*
X36232168Y-82627908D01*
X36216603Y-82680191D01*
X36216215Y-82681400D01*
X36198500Y-82733004D01*
X36197661Y-82738035D01*
X36197627Y-82738029D01*
X36196815Y-82743600D01*
X36196849Y-82743605D01*
X36196218Y-82748660D01*
X36197497Y-82779566D01*
X36198474Y-82803192D01*
X36198500Y-82804427D01*
X36198500Y-87838469D01*
X36197191Y-87851089D01*
X36193607Y-87868179D01*
X36193607Y-87868185D01*
X36198264Y-87905545D01*
X36198500Y-87909352D01*
X36198500Y-87915281D01*
X36202259Y-87937811D01*
X36202438Y-87939041D01*
X36209190Y-87993203D01*
X36209190Y-87993204D01*
X36209191Y-87993206D01*
X36210644Y-87998087D01*
X36210612Y-87998096D01*
X36212331Y-88003461D01*
X36212363Y-88003451D01*
X36214017Y-88008269D01*
X36239985Y-88056255D01*
X36240567Y-88057385D01*
X36264524Y-88106390D01*
X36267484Y-88110535D01*
X36267456Y-88110554D01*
X36270823Y-88115070D01*
X36270850Y-88115050D01*
X36273979Y-88119070D01*
X36314126Y-88156028D01*
X36315019Y-88156884D01*
X38193598Y-90035464D01*
X38816873Y-90658739D01*
X38824871Y-90668588D01*
X38834424Y-90683209D01*
X38864132Y-90706332D01*
X38866987Y-90708853D01*
X38871186Y-90713052D01*
X38889795Y-90726339D01*
X38890782Y-90727074D01*
X38933845Y-90760592D01*
X38933846Y-90760592D01*
X38933847Y-90760593D01*
X38938328Y-90763018D01*
X38938310Y-90763049D01*
X38943314Y-90765624D01*
X38943330Y-90765593D01*
X38947906Y-90767830D01*
X38947909Y-90767831D01*
X38947911Y-90767832D01*
X39000196Y-90783397D01*
X39001376Y-90783775D01*
X39053006Y-90801500D01*
X39053013Y-90801500D01*
X39058035Y-90802339D01*
X39058029Y-90802372D01*
X39063599Y-90803183D01*
X39063604Y-90803150D01*
X39068659Y-90803780D01*
X39068659Y-90803779D01*
X39068660Y-90803780D01*
X39123178Y-90801525D01*
X39124413Y-90801500D01*
X46690470Y-90801500D01*
X46703090Y-90802808D01*
X46720184Y-90806393D01*
X46757546Y-90801735D01*
X46761352Y-90801500D01*
X46767279Y-90801500D01*
X46767281Y-90801500D01*
X46789818Y-90797738D01*
X46791021Y-90797562D01*
X46845203Y-90790810D01*
X46845206Y-90790808D01*
X46850093Y-90789354D01*
X46850103Y-90789387D01*
X46855459Y-90787671D01*
X46855448Y-90787637D01*
X46860263Y-90785983D01*
X46860269Y-90785983D01*
X46908265Y-90760007D01*
X46909368Y-90759439D01*
X46958389Y-90735476D01*
X46962536Y-90732515D01*
X46962557Y-90732544D01*
X46967069Y-90729179D01*
X46967048Y-90729152D01*
X46971067Y-90726023D01*
X46971068Y-90726021D01*
X46971071Y-90726020D01*
X47008047Y-90685851D01*
X47008884Y-90684979D01*
X47417244Y-90276620D01*
X47427083Y-90268631D01*
X47441709Y-90259076D01*
X47464832Y-90229366D01*
X47467358Y-90226507D01*
X47471552Y-90222314D01*
X47484842Y-90203698D01*
X47485572Y-90202720D01*
X47519092Y-90159655D01*
X47519094Y-90159649D01*
X47521518Y-90155171D01*
X47521549Y-90155188D01*
X47524125Y-90150183D01*
X47524093Y-90150168D01*
X47526328Y-90145593D01*
X47526332Y-90145589D01*
X47541896Y-90093307D01*
X47542281Y-90092106D01*
X47559999Y-90040497D01*
X47560839Y-90035464D01*
X47560874Y-90035469D01*
X47561685Y-90029902D01*
X47561649Y-90029898D01*
X47562280Y-90024837D01*
X47562138Y-90021400D01*
X47578338Y-89977205D01*
X47602093Y-89961235D01*
X47602477Y-89961091D01*
X47602483Y-89961091D01*
X47737331Y-89910796D01*
X47852546Y-89824546D01*
X47938796Y-89709331D01*
X47989091Y-89574483D01*
X47995500Y-89514873D01*
X47995499Y-87269128D01*
X47989091Y-87209517D01*
X47938796Y-87074669D01*
X47852546Y-86959454D01*
X47783314Y-86907627D01*
X47737333Y-86873205D01*
X47737328Y-86873203D01*
X47600008Y-86821985D01*
X47565558Y-86789911D01*
X47560000Y-86764363D01*
X47560000Y-86603339D01*
X47578013Y-86559852D01*
X47578014Y-86559851D01*
X47606354Y-86531512D01*
X47649840Y-86513500D01*
X48272667Y-86513500D01*
X48316154Y-86531513D01*
X48332653Y-86548012D01*
X48441491Y-86601220D01*
X48512051Y-86611500D01*
X49055948Y-86611499D01*
X49126509Y-86601220D01*
X49235347Y-86548012D01*
X49321012Y-86462347D01*
X49374220Y-86353509D01*
X49384500Y-86282949D01*
X49384499Y-85989052D01*
X49374220Y-85918491D01*
X49321012Y-85809653D01*
X49235347Y-85723988D01*
X49235346Y-85723987D01*
X49126510Y-85670780D01*
X49116429Y-85669311D01*
X49055949Y-85660500D01*
X49055943Y-85660500D01*
X48512056Y-85660500D01*
X48512052Y-85660501D01*
X48465011Y-85667353D01*
X48441489Y-85670780D01*
X48332653Y-85723987D01*
X48316154Y-85740487D01*
X48272667Y-85758500D01*
X47513530Y-85758500D01*
X47500909Y-85757191D01*
X47483816Y-85753607D01*
X47446453Y-85758264D01*
X47442648Y-85758500D01*
X47436719Y-85758500D01*
X47414193Y-85762257D01*
X47412938Y-85762440D01*
X47358801Y-85769189D01*
X47358798Y-85769189D01*
X47358797Y-85769190D01*
X47358796Y-85769190D01*
X47353911Y-85770645D01*
X47353901Y-85770613D01*
X47348538Y-85772331D01*
X47348549Y-85772362D01*
X47343732Y-85774015D01*
X47295753Y-85799980D01*
X47294624Y-85800561D01*
X47245613Y-85824522D01*
X47241462Y-85827486D01*
X47241442Y-85827459D01*
X47236932Y-85830821D01*
X47236953Y-85830848D01*
X47232928Y-85833981D01*
X47195971Y-85874124D01*
X47195092Y-85875040D01*
X46947757Y-86122375D01*
X46937910Y-86130372D01*
X46923290Y-86139924D01*
X46900170Y-86169628D01*
X46897650Y-86172481D01*
X46893454Y-86176678D01*
X46893448Y-86176685D01*
X46880177Y-86195271D01*
X46879419Y-86196288D01*
X46845910Y-86239342D01*
X46843484Y-86243826D01*
X46843454Y-86243810D01*
X46840877Y-86248817D01*
X46840906Y-86248832D01*
X46838668Y-86253408D01*
X46823103Y-86305691D01*
X46822715Y-86306900D01*
X46805000Y-86358504D01*
X46804161Y-86363535D01*
X46804127Y-86363529D01*
X46803315Y-86369100D01*
X46803349Y-86369105D01*
X46802718Y-86374160D01*
X46803687Y-86397563D01*
X46804974Y-86428692D01*
X46805000Y-86429927D01*
X46805000Y-86764363D01*
X46786987Y-86807850D01*
X46764992Y-86821985D01*
X46627671Y-86873203D01*
X46627666Y-86873205D01*
X46512454Y-86959454D01*
X46426205Y-87074666D01*
X46426203Y-87074671D01*
X46375910Y-87209512D01*
X46375910Y-87209514D01*
X46375909Y-87209517D01*
X46371514Y-87250393D01*
X46369500Y-87269128D01*
X46369500Y-89514872D01*
X46375908Y-89574481D01*
X46375909Y-89574485D01*
X46375910Y-89574487D01*
X46426204Y-89709331D01*
X46512454Y-89824546D01*
X46620988Y-89905795D01*
X46645006Y-89946275D01*
X46633365Y-89991883D01*
X46627620Y-89998513D01*
X46597648Y-90028486D01*
X46554161Y-90046500D01*
X44787935Y-90046500D01*
X44744448Y-90028487D01*
X44726435Y-89985000D01*
X44744448Y-89941513D01*
X44766443Y-89927378D01*
X44812086Y-89910353D01*
X44812091Y-89910351D01*
X44927188Y-89824188D01*
X45013351Y-89709091D01*
X45013353Y-89709086D01*
X45063596Y-89574380D01*
X45070000Y-89514825D01*
X45070000Y-88642000D01*
X43445000Y-88642000D01*
X43445000Y-89514825D01*
X43451403Y-89574380D01*
X43501646Y-89709086D01*
X43501648Y-89709091D01*
X43587811Y-89824188D01*
X43702908Y-89910351D01*
X43702913Y-89910353D01*
X43748557Y-89927378D01*
X43783007Y-89959452D01*
X43784687Y-90006492D01*
X43752613Y-90040942D01*
X43727065Y-90046500D01*
X39297840Y-90046500D01*
X39254353Y-90028487D01*
X36971513Y-87745647D01*
X36953500Y-87702160D01*
X36953500Y-83874290D01*
X36971513Y-83830803D01*
X37015000Y-83812790D01*
X37049167Y-83823154D01*
X37104260Y-83859966D01*
X37177322Y-83874499D01*
X37177323Y-83874500D01*
X37177326Y-83874500D01*
X38526677Y-83874500D01*
X38526677Y-83874499D01*
X38555980Y-83868670D01*
X38599738Y-83859967D01*
X38599739Y-83859966D01*
X38599740Y-83859966D01*
X38682601Y-83804601D01*
X38737966Y-83721740D01*
X38737966Y-83721739D01*
X38737967Y-83721738D01*
X38752499Y-83648677D01*
X38752500Y-83648677D01*
X38752500Y-83413000D01*
X38770513Y-83369513D01*
X38814000Y-83351500D01*
X39104161Y-83351500D01*
X39147648Y-83369513D01*
X39736487Y-83958352D01*
X39754500Y-84001839D01*
X39754500Y-85298469D01*
X39753191Y-85311089D01*
X39749607Y-85328179D01*
X39749607Y-85328185D01*
X39754264Y-85365545D01*
X39754500Y-85369352D01*
X39754500Y-85375281D01*
X39758259Y-85397811D01*
X39758438Y-85399041D01*
X39765190Y-85453203D01*
X39765190Y-85453204D01*
X39765191Y-85453206D01*
X39766644Y-85458087D01*
X39766612Y-85458096D01*
X39768331Y-85463461D01*
X39768363Y-85463451D01*
X39770017Y-85468269D01*
X39795985Y-85516255D01*
X39796567Y-85517385D01*
X39820524Y-85566390D01*
X39823484Y-85570535D01*
X39823456Y-85570554D01*
X39826823Y-85575070D01*
X39826850Y-85575050D01*
X39829979Y-85579070D01*
X39829980Y-85579071D01*
X39841295Y-85589487D01*
X39870126Y-85616028D01*
X39871019Y-85616884D01*
X40614135Y-86360000D01*
X41356870Y-87102735D01*
X41364868Y-87112583D01*
X41374424Y-87127209D01*
X41404137Y-87150336D01*
X41406992Y-87152857D01*
X41411186Y-87157051D01*
X41429786Y-87170332D01*
X41430787Y-87171079D01*
X41473843Y-87204591D01*
X41478326Y-87207017D01*
X41478310Y-87207046D01*
X41483320Y-87209625D01*
X41483335Y-87209595D01*
X41487910Y-87211832D01*
X41540185Y-87227394D01*
X41541398Y-87227782D01*
X41593006Y-87245500D01*
X41593009Y-87245500D01*
X41598034Y-87246339D01*
X41598028Y-87246372D01*
X41603596Y-87247184D01*
X41603601Y-87247150D01*
X41608659Y-87247780D01*
X41608659Y-87247779D01*
X41608660Y-87247780D01*
X41663178Y-87245525D01*
X41664413Y-87245500D01*
X43134470Y-87245500D01*
X43147090Y-87246808D01*
X43164184Y-87250393D01*
X43201546Y-87245735D01*
X43205352Y-87245500D01*
X43211279Y-87245500D01*
X43211281Y-87245500D01*
X43233818Y-87241738D01*
X43235021Y-87241562D01*
X43289203Y-87234810D01*
X43289206Y-87234808D01*
X43294093Y-87233354D01*
X43294103Y-87233387D01*
X43299459Y-87231671D01*
X43299448Y-87231637D01*
X43304263Y-87229983D01*
X43304269Y-87229983D01*
X43352265Y-87204007D01*
X43353369Y-87203439D01*
X43357482Y-87201428D01*
X43404461Y-87198516D01*
X43439741Y-87229675D01*
X43445636Y-87263255D01*
X43445000Y-87269171D01*
X43445000Y-88142000D01*
X44007500Y-88142000D01*
X44007500Y-86817000D01*
X44507500Y-86817000D01*
X44507500Y-88142000D01*
X45070000Y-88142000D01*
X45070000Y-87269174D01*
X45063596Y-87209619D01*
X45013353Y-87074913D01*
X45013351Y-87074908D01*
X44927188Y-86959811D01*
X44812091Y-86873648D01*
X44812086Y-86873646D01*
X44677380Y-86823403D01*
X44617826Y-86817000D01*
X44507500Y-86817000D01*
X44007500Y-86817000D01*
X43913338Y-86817000D01*
X43869851Y-86798987D01*
X43851838Y-86755500D01*
X43869851Y-86712013D01*
X43907081Y-86674784D01*
X44269352Y-86312512D01*
X44312840Y-86294499D01*
X44402872Y-86294499D01*
X44462483Y-86288091D01*
X44597331Y-86237796D01*
X44712546Y-86151546D01*
X44798796Y-86036331D01*
X44849091Y-85901483D01*
X44855500Y-85841873D01*
X44855499Y-85338499D01*
X44873512Y-85295013D01*
X44916999Y-85277000D01*
X48377720Y-85277000D01*
X48404731Y-85283249D01*
X48441491Y-85301220D01*
X48512051Y-85311500D01*
X49055948Y-85311499D01*
X49126509Y-85301220D01*
X49235347Y-85248012D01*
X49321012Y-85162347D01*
X49367065Y-85068143D01*
X49402347Y-85036987D01*
X49449327Y-85039904D01*
X49465803Y-85051668D01*
X50134873Y-85720738D01*
X50142871Y-85730586D01*
X50152425Y-85745209D01*
X50182133Y-85768332D01*
X50184988Y-85770853D01*
X50189187Y-85775052D01*
X50207796Y-85788339D01*
X50208783Y-85789074D01*
X50228923Y-85804750D01*
X50251847Y-85822593D01*
X50255701Y-85824678D01*
X50269921Y-85835280D01*
X50332653Y-85898012D01*
X50441491Y-85951220D01*
X50512051Y-85961500D01*
X51055948Y-85961499D01*
X51126509Y-85951220D01*
X51235347Y-85898012D01*
X51251846Y-85881512D01*
X51295333Y-85863500D01*
X52420470Y-85863500D01*
X52433090Y-85864808D01*
X52450184Y-85868393D01*
X52487546Y-85863735D01*
X52491352Y-85863500D01*
X52497279Y-85863500D01*
X52497281Y-85863500D01*
X52519818Y-85859738D01*
X52521021Y-85859562D01*
X52575203Y-85852810D01*
X52575206Y-85852808D01*
X52580093Y-85851354D01*
X52580103Y-85851387D01*
X52585459Y-85849671D01*
X52585448Y-85849637D01*
X52590263Y-85847983D01*
X52590269Y-85847983D01*
X52638265Y-85822007D01*
X52639368Y-85821439D01*
X52688389Y-85797476D01*
X52692536Y-85794515D01*
X52692557Y-85794544D01*
X52697069Y-85791179D01*
X52697048Y-85791152D01*
X52701067Y-85788023D01*
X52701068Y-85788021D01*
X52701071Y-85788020D01*
X52738045Y-85747853D01*
X52738884Y-85746979D01*
X52746354Y-85739509D01*
X52789838Y-85721500D01*
X56058000Y-85721500D01*
X56101487Y-85739513D01*
X56119500Y-85783000D01*
X56119500Y-87218677D01*
X56134032Y-87291738D01*
X56144446Y-87307323D01*
X56189399Y-87374601D01*
X56251615Y-87416172D01*
X56272261Y-87429967D01*
X56330473Y-87441545D01*
X56345322Y-87444499D01*
X56345323Y-87444500D01*
X56345326Y-87444500D01*
X57494677Y-87444500D01*
X57494677Y-87444499D01*
X57523980Y-87438670D01*
X57567738Y-87429967D01*
X57567739Y-87429966D01*
X57567740Y-87429966D01*
X57650601Y-87374601D01*
X57705966Y-87291740D01*
X57705966Y-87291739D01*
X57705967Y-87291738D01*
X57717580Y-87233354D01*
X57720499Y-87218677D01*
X57720500Y-87218677D01*
X57720500Y-83469323D01*
X57720499Y-83469322D01*
X57705967Y-83396261D01*
X57692172Y-83375615D01*
X57650601Y-83313399D01*
X57609028Y-83285621D01*
X57567738Y-83258032D01*
X57494677Y-83243500D01*
X57494674Y-83243500D01*
X56345326Y-83243500D01*
X56345323Y-83243500D01*
X56272261Y-83258032D01*
X56189399Y-83313399D01*
X56134032Y-83396261D01*
X56119500Y-83469322D01*
X56119500Y-84905000D01*
X56101487Y-84948487D01*
X56058000Y-84966500D01*
X52653530Y-84966500D01*
X52640909Y-84965191D01*
X52623817Y-84961607D01*
X52623816Y-84961607D01*
X52586455Y-84966264D01*
X52582650Y-84966500D01*
X52576719Y-84966500D01*
X52563080Y-84968775D01*
X52554206Y-84970256D01*
X52552950Y-84970439D01*
X52498798Y-84977190D01*
X52493912Y-84978645D01*
X52493902Y-84978613D01*
X52488539Y-84980331D01*
X52488550Y-84980362D01*
X52483732Y-84982015D01*
X52435754Y-85007979D01*
X52434625Y-85008561D01*
X52385611Y-85032523D01*
X52381461Y-85035486D01*
X52381442Y-85035460D01*
X52376926Y-85038828D01*
X52376946Y-85038854D01*
X52372927Y-85041981D01*
X52335993Y-85082102D01*
X52335115Y-85083017D01*
X52327649Y-85090484D01*
X52284163Y-85108500D01*
X51295333Y-85108500D01*
X51251846Y-85090487D01*
X51235346Y-85073987D01*
X51126510Y-85020780D01*
X51114749Y-85019066D01*
X51055949Y-85010500D01*
X51055944Y-85010500D01*
X50517841Y-85010500D01*
X50474354Y-84992487D01*
X49305382Y-83823515D01*
X49287369Y-83780028D01*
X49305382Y-83736541D01*
X49322730Y-83725394D01*
X49322465Y-83724908D01*
X49326325Y-83722799D01*
X49326327Y-83722797D01*
X49326331Y-83722796D01*
X49441546Y-83636546D01*
X49527796Y-83521331D01*
X49578091Y-83386483D01*
X49584500Y-83326873D01*
X49584499Y-82281128D01*
X49578091Y-82221517D01*
X49574725Y-82212492D01*
X49576404Y-82165453D01*
X49610854Y-82133378D01*
X49632347Y-82129500D01*
X49935653Y-82129500D01*
X49979140Y-82147513D01*
X49997153Y-82191000D01*
X49993275Y-82212491D01*
X49989909Y-82221517D01*
X49983500Y-82281127D01*
X49983500Y-82281128D01*
X49983500Y-83326872D01*
X49989908Y-83386481D01*
X49989909Y-83386485D01*
X49999799Y-83413000D01*
X50040114Y-83521091D01*
X50040203Y-83521328D01*
X50040205Y-83521333D01*
X50060154Y-83547981D01*
X50126454Y-83636546D01*
X50205515Y-83695731D01*
X50241074Y-83722351D01*
X50241669Y-83722796D01*
X50376517Y-83773091D01*
X50436127Y-83779500D01*
X51031872Y-83779499D01*
X51091483Y-83773091D01*
X51226331Y-83722796D01*
X51341546Y-83636546D01*
X51427796Y-83521331D01*
X51478091Y-83386483D01*
X51484500Y-83326873D01*
X51484500Y-83306499D01*
X51502513Y-83263013D01*
X51546000Y-83245000D01*
X52805513Y-83245000D01*
X52808958Y-83245194D01*
X52815580Y-83245939D01*
X52848676Y-83249669D01*
X52905348Y-83238945D01*
X52906464Y-83238757D01*
X52922513Y-83236337D01*
X52963455Y-83230167D01*
X52963726Y-83230036D01*
X52978998Y-83225011D01*
X52979076Y-83224995D01*
X52979298Y-83224954D01*
X53030304Y-83197994D01*
X53031246Y-83197519D01*
X53083230Y-83172487D01*
X53083456Y-83172276D01*
X53096561Y-83162978D01*
X53096833Y-83162835D01*
X53137633Y-83122033D01*
X53138418Y-83121278D01*
X53180682Y-83082065D01*
X53180835Y-83081798D01*
X53190611Y-83069055D01*
X55657154Y-80602512D01*
X55700640Y-80584500D01*
X55737495Y-80596767D01*
X55806182Y-80648185D01*
X55806774Y-80648628D01*
X55934886Y-80696412D01*
X55991515Y-80702500D01*
X56532484Y-80702499D01*
X56589114Y-80696412D01*
X56717226Y-80648628D01*
X56826687Y-80566687D01*
X56908628Y-80457226D01*
X56956412Y-80329114D01*
X56962500Y-80272485D01*
X56962500Y-80102000D01*
X58862001Y-80102000D01*
X58862001Y-80272436D01*
X58868081Y-80329007D01*
X58868082Y-80329008D01*
X58915814Y-80456982D01*
X58915816Y-80456986D01*
X58997667Y-80566327D01*
X58997672Y-80566332D01*
X59107013Y-80648183D01*
X59107017Y-80648185D01*
X59234988Y-80695916D01*
X59291564Y-80701999D01*
X59312000Y-80701999D01*
X59312000Y-80102000D01*
X59812000Y-80102000D01*
X59812000Y-80701999D01*
X59832436Y-80701999D01*
X59889007Y-80695918D01*
X59889008Y-80695917D01*
X60016982Y-80648185D01*
X60016986Y-80648183D01*
X60126327Y-80566332D01*
X60126332Y-80566327D01*
X60208183Y-80456986D01*
X60208185Y-80456982D01*
X60255916Y-80329011D01*
X60262000Y-80272435D01*
X60262000Y-80102000D01*
X59812000Y-80102000D01*
X59312000Y-80102000D01*
X58862001Y-80102000D01*
X56962500Y-80102000D01*
X56962499Y-79602000D01*
X58862000Y-79602000D01*
X59312000Y-79602000D01*
X59312000Y-79002000D01*
X59812000Y-79002000D01*
X59812000Y-79602000D01*
X60261998Y-79602000D01*
X60261999Y-79431563D01*
X60255918Y-79374992D01*
X60255917Y-79374991D01*
X60208185Y-79247017D01*
X60208183Y-79247013D01*
X60126332Y-79137672D01*
X60126327Y-79137667D01*
X60016986Y-79055816D01*
X60016982Y-79055814D01*
X59889011Y-79008083D01*
X59832436Y-79002000D01*
X59812000Y-79002000D01*
X59312000Y-79002000D01*
X59291564Y-79002000D01*
X59234992Y-79008081D01*
X59234991Y-79008082D01*
X59107017Y-79055814D01*
X59107013Y-79055816D01*
X58997672Y-79137667D01*
X58997667Y-79137672D01*
X58915816Y-79247013D01*
X58915814Y-79247017D01*
X58868083Y-79374988D01*
X58862000Y-79431564D01*
X58862000Y-79602000D01*
X56962499Y-79602000D01*
X56962499Y-79431516D01*
X56956412Y-79374886D01*
X56908628Y-79246774D01*
X56901676Y-79237487D01*
X56826689Y-79137315D01*
X56826687Y-79137313D01*
X56727644Y-79063170D01*
X56703626Y-79022689D01*
X56703000Y-79013937D01*
X56703000Y-77340061D01*
X56721013Y-77296574D01*
X56727632Y-77290837D01*
X56826687Y-77216687D01*
X56908628Y-77107226D01*
X56956412Y-76979114D01*
X56962500Y-76922485D01*
X56962499Y-76081516D01*
X56956412Y-76024886D01*
X56908628Y-75896774D01*
X56881166Y-75860089D01*
X56826689Y-75787315D01*
X56826684Y-75787310D01*
X56717228Y-75705373D01*
X56717226Y-75705372D01*
X56589118Y-75657589D01*
X56589116Y-75657588D01*
X56589114Y-75657588D01*
X56532485Y-75651500D01*
X56532483Y-75651500D01*
X55991515Y-75651500D01*
X55934886Y-75657587D01*
X55934884Y-75657588D01*
X55806776Y-75705371D01*
X55806771Y-75705373D01*
X55697315Y-75787310D01*
X55697310Y-75787315D01*
X55615373Y-75896771D01*
X55615372Y-75896773D01*
X55567589Y-76024881D01*
X55567588Y-76024884D01*
X55567588Y-76024886D01*
X55564077Y-76057543D01*
X55561500Y-76081516D01*
X55561500Y-76922484D01*
X55567587Y-76979113D01*
X55567588Y-76979115D01*
X55615371Y-77107223D01*
X55615373Y-77107228D01*
X55697310Y-77216684D01*
X55697311Y-77216685D01*
X55697313Y-77216687D01*
X55796356Y-77290829D01*
X55820374Y-77331308D01*
X55821000Y-77340061D01*
X55820999Y-79013937D01*
X55802986Y-79057424D01*
X55796355Y-79063170D01*
X55697312Y-79137313D01*
X55697310Y-79137315D01*
X55615373Y-79246771D01*
X55615372Y-79246773D01*
X55567589Y-79374881D01*
X55567588Y-79374884D01*
X55567588Y-79374886D01*
X55566261Y-79387233D01*
X55561499Y-79431522D01*
X55561412Y-79433154D01*
X55561324Y-79433149D01*
X55561324Y-79433153D01*
X55561255Y-79433145D01*
X55560795Y-79433121D01*
X55543487Y-79474908D01*
X55534645Y-79482234D01*
X55532770Y-79483512D01*
X55532529Y-79483736D01*
X55519457Y-79493011D01*
X55519171Y-79493162D01*
X55519168Y-79493163D01*
X55478389Y-79533941D01*
X55477561Y-79534737D01*
X55435317Y-79573934D01*
X55435315Y-79573938D01*
X55435154Y-79574217D01*
X55425387Y-79586943D01*
X52667345Y-82344987D01*
X52623858Y-82363000D01*
X51545999Y-82363000D01*
X51502512Y-82344987D01*
X51484499Y-82301500D01*
X51484499Y-82281127D01*
X51478091Y-82221517D01*
X51474725Y-82212493D01*
X51476404Y-82165453D01*
X51510854Y-82133378D01*
X51532347Y-82129500D01*
X52314470Y-82129500D01*
X52327090Y-82130808D01*
X52344184Y-82134393D01*
X52381546Y-82129735D01*
X52385352Y-82129500D01*
X52391279Y-82129500D01*
X52391281Y-82129500D01*
X52413818Y-82125738D01*
X52415021Y-82125562D01*
X52469203Y-82118810D01*
X52469206Y-82118808D01*
X52474093Y-82117354D01*
X52474103Y-82117387D01*
X52479459Y-82115671D01*
X52479448Y-82115637D01*
X52484263Y-82113983D01*
X52484269Y-82113983D01*
X52532265Y-82088007D01*
X52533368Y-82087439D01*
X52582389Y-82063476D01*
X52586536Y-82060515D01*
X52586557Y-82060544D01*
X52591069Y-82057179D01*
X52591048Y-82057152D01*
X52595067Y-82054023D01*
X52595068Y-82054021D01*
X52595071Y-82054020D01*
X52632048Y-82013850D01*
X52632885Y-82012978D01*
X53574744Y-81071120D01*
X53584583Y-81063131D01*
X53599209Y-81053576D01*
X53622332Y-81023866D01*
X53624858Y-81021007D01*
X53629052Y-81016814D01*
X53642342Y-80998198D01*
X53643072Y-80997220D01*
X53676592Y-80954155D01*
X53676594Y-80954149D01*
X53679018Y-80949671D01*
X53679049Y-80949688D01*
X53681625Y-80944683D01*
X53681593Y-80944668D01*
X53683828Y-80940093D01*
X53683832Y-80940089D01*
X53699396Y-80887807D01*
X53699781Y-80886605D01*
X53703933Y-80874512D01*
X53717500Y-80834994D01*
X53717500Y-80834990D01*
X53718339Y-80829966D01*
X53718372Y-80829971D01*
X53719183Y-80824400D01*
X53719150Y-80824396D01*
X53719780Y-80819340D01*
X53718435Y-80786825D01*
X53717525Y-80764820D01*
X53717500Y-80763586D01*
X53717500Y-74857839D01*
X53735513Y-74814352D01*
X55002352Y-73547513D01*
X55045839Y-73529500D01*
X55501637Y-73529500D01*
X55545124Y-73547513D01*
X55562785Y-73584428D01*
X55567587Y-73629113D01*
X55567588Y-73629115D01*
X55615371Y-73757223D01*
X55615373Y-73757228D01*
X55697310Y-73866684D01*
X55697315Y-73866689D01*
X55806771Y-73948626D01*
X55806774Y-73948628D01*
X55934886Y-73996412D01*
X55991515Y-74002500D01*
X56532484Y-74002499D01*
X56589114Y-73996412D01*
X56717226Y-73948628D01*
X56826687Y-73866687D01*
X56908628Y-73757226D01*
X56956412Y-73629114D01*
X56962500Y-73572485D01*
X56962499Y-72731516D01*
X56960116Y-72709350D01*
X56956412Y-72674886D01*
X56956411Y-72674884D01*
X56956410Y-72674881D01*
X56908628Y-72546774D01*
X56902545Y-72538648D01*
X56826689Y-72437315D01*
X56826684Y-72437310D01*
X56717228Y-72355373D01*
X56717226Y-72355372D01*
X56589118Y-72307589D01*
X56589116Y-72307588D01*
X56589114Y-72307588D01*
X56532485Y-72301500D01*
X56532483Y-72301500D01*
X55991515Y-72301500D01*
X55934886Y-72307587D01*
X55934884Y-72307588D01*
X55806776Y-72355371D01*
X55806771Y-72355373D01*
X55697315Y-72437310D01*
X55697310Y-72437315D01*
X55615373Y-72546771D01*
X55615372Y-72546773D01*
X55567589Y-72674881D01*
X55567588Y-72674884D01*
X55567588Y-72674886D01*
X55563883Y-72709350D01*
X55562784Y-72719574D01*
X55540225Y-72760887D01*
X55501636Y-72774500D01*
X54909525Y-72774500D01*
X54896905Y-72773191D01*
X54879816Y-72769608D01*
X54842460Y-72774264D01*
X54838655Y-72774500D01*
X54832719Y-72774500D01*
X54822192Y-72776256D01*
X54810188Y-72778259D01*
X54808931Y-72778442D01*
X54754795Y-72785191D01*
X54749910Y-72786646D01*
X54749900Y-72786614D01*
X54744539Y-72788331D01*
X54744550Y-72788362D01*
X54739732Y-72790015D01*
X54691754Y-72815979D01*
X54690625Y-72816561D01*
X54641611Y-72840523D01*
X54637461Y-72843486D01*
X54637442Y-72843460D01*
X54632926Y-72846828D01*
X54632946Y-72846854D01*
X54628927Y-72849981D01*
X54591993Y-72890102D01*
X54591113Y-72891019D01*
X53105259Y-74376873D01*
X53095413Y-74384869D01*
X53080793Y-74394421D01*
X53080791Y-74394423D01*
X53057670Y-74424128D01*
X53055148Y-74426985D01*
X53050948Y-74431185D01*
X53037677Y-74449771D01*
X53036919Y-74450788D01*
X53003410Y-74493842D01*
X53000984Y-74498326D01*
X53000954Y-74498310D01*
X52998377Y-74503317D01*
X52998406Y-74503332D01*
X52996168Y-74507908D01*
X52980603Y-74560191D01*
X52980215Y-74561400D01*
X52962500Y-74613004D01*
X52961661Y-74618035D01*
X52961627Y-74618029D01*
X52960815Y-74623600D01*
X52960849Y-74623605D01*
X52960218Y-74628660D01*
X52961047Y-74648674D01*
X52962474Y-74683192D01*
X52962500Y-74684427D01*
X52962500Y-80590160D01*
X52944487Y-80633647D01*
X52221647Y-81356487D01*
X52178160Y-81374500D01*
X49357530Y-81374500D01*
X49344909Y-81373191D01*
X49327817Y-81369607D01*
X49327816Y-81369607D01*
X49290455Y-81374264D01*
X49286650Y-81374500D01*
X49280719Y-81374500D01*
X49267080Y-81376775D01*
X49258206Y-81378256D01*
X49256950Y-81378439D01*
X49202798Y-81385190D01*
X49197912Y-81386645D01*
X49197902Y-81386613D01*
X49192539Y-81388331D01*
X49192550Y-81388362D01*
X49187732Y-81390015D01*
X49139749Y-81415982D01*
X49138620Y-81416564D01*
X49089612Y-81440523D01*
X49085462Y-81443486D01*
X49085442Y-81443459D01*
X49080929Y-81446823D01*
X49080950Y-81446850D01*
X49076927Y-81449980D01*
X49039970Y-81490126D01*
X49039090Y-81491043D01*
X48719645Y-81810487D01*
X48676158Y-81828500D01*
X48536127Y-81828500D01*
X48476518Y-81834908D01*
X48476514Y-81834909D01*
X48341671Y-81885203D01*
X48341666Y-81885205D01*
X48226454Y-81971454D01*
X48140205Y-82086666D01*
X48140203Y-82086671D01*
X48089910Y-82221512D01*
X48083500Y-82281128D01*
X48083500Y-83326872D01*
X48089908Y-83386481D01*
X48089909Y-83386485D01*
X48099799Y-83413000D01*
X48140114Y-83521091D01*
X48140203Y-83521328D01*
X48140205Y-83521333D01*
X48160154Y-83547981D01*
X48226454Y-83636546D01*
X48341669Y-83722796D01*
X48416493Y-83750703D01*
X48450942Y-83782777D01*
X48456500Y-83808325D01*
X48456500Y-83840469D01*
X48455191Y-83853089D01*
X48451607Y-83870179D01*
X48451607Y-83870184D01*
X48456264Y-83907543D01*
X48456500Y-83911350D01*
X48456500Y-83917283D01*
X48460257Y-83939795D01*
X48460440Y-83941052D01*
X48467191Y-83995204D01*
X48467191Y-83995205D01*
X48467192Y-83995208D01*
X48468645Y-84000088D01*
X48468613Y-84000097D01*
X48470331Y-84005460D01*
X48470363Y-84005450D01*
X48472017Y-84010270D01*
X48497987Y-84058258D01*
X48498569Y-84059389D01*
X48522524Y-84108390D01*
X48525484Y-84112535D01*
X48525456Y-84112554D01*
X48528823Y-84117070D01*
X48528850Y-84117050D01*
X48531979Y-84121070D01*
X48572126Y-84158028D01*
X48573019Y-84158884D01*
X48637635Y-84223500D01*
X48669648Y-84255513D01*
X48687661Y-84299000D01*
X48669648Y-84342487D01*
X48626162Y-84360500D01*
X48512056Y-84360500D01*
X48512052Y-84360501D01*
X48465011Y-84367353D01*
X48441489Y-84370780D01*
X48404731Y-84388751D01*
X48377720Y-84395000D01*
X44626986Y-84395000D01*
X44623541Y-84394806D01*
X44583822Y-84390330D01*
X44527177Y-84401048D01*
X44526043Y-84401240D01*
X44499062Y-84405307D01*
X44468409Y-84402118D01*
X44462488Y-84399910D01*
X44462484Y-84399909D01*
X44462483Y-84399909D01*
X44402873Y-84393500D01*
X44402871Y-84393500D01*
X43782127Y-84393500D01*
X43722518Y-84399908D01*
X43722514Y-84399909D01*
X43587671Y-84450203D01*
X43587666Y-84450205D01*
X43472454Y-84536454D01*
X43386205Y-84651666D01*
X43386203Y-84651671D01*
X43335910Y-84786512D01*
X43335909Y-84786515D01*
X43335909Y-84786517D01*
X43329500Y-84846127D01*
X43329500Y-84846128D01*
X43329500Y-85841872D01*
X43335908Y-85901481D01*
X43335909Y-85901485D01*
X43379287Y-86017786D01*
X43386114Y-86036091D01*
X43386203Y-86036328D01*
X43386205Y-86036333D01*
X43393483Y-86046055D01*
X43405123Y-86091663D01*
X43387736Y-86126397D01*
X43041647Y-86472487D01*
X42998160Y-86490500D01*
X41837840Y-86490500D01*
X41794353Y-86472487D01*
X40915867Y-85594000D01*
X41505000Y-85594000D01*
X41505000Y-85841825D01*
X41511403Y-85901380D01*
X41561646Y-86036086D01*
X41561648Y-86036091D01*
X41647811Y-86151188D01*
X41762908Y-86237351D01*
X41762913Y-86237353D01*
X41897619Y-86287596D01*
X41957174Y-86294000D01*
X42017500Y-86294000D01*
X42017500Y-85594000D01*
X42517500Y-85594000D01*
X42517500Y-86294000D01*
X42577826Y-86294000D01*
X42637380Y-86287596D01*
X42772086Y-86237353D01*
X42772091Y-86237351D01*
X42887188Y-86151188D01*
X42973351Y-86036091D01*
X42973353Y-86036086D01*
X43023596Y-85901380D01*
X43030000Y-85841825D01*
X43030000Y-85594000D01*
X42517500Y-85594000D01*
X42017500Y-85594000D01*
X41505000Y-85594000D01*
X40915867Y-85594000D01*
X40527513Y-85205646D01*
X40509500Y-85162159D01*
X40509500Y-85094000D01*
X41505000Y-85094000D01*
X42017500Y-85094000D01*
X42017500Y-84394000D01*
X42517500Y-84394000D01*
X42517500Y-85094000D01*
X43030000Y-85094000D01*
X43030000Y-84846174D01*
X43023596Y-84786619D01*
X42973353Y-84651913D01*
X42973351Y-84651908D01*
X42887188Y-84536811D01*
X42772091Y-84450648D01*
X42772086Y-84450646D01*
X42637380Y-84400403D01*
X42577826Y-84394000D01*
X42517500Y-84394000D01*
X42017500Y-84394000D01*
X41957174Y-84394000D01*
X41897619Y-84400403D01*
X41762913Y-84450646D01*
X41762908Y-84450648D01*
X41647811Y-84536811D01*
X41561648Y-84651908D01*
X41561646Y-84651913D01*
X41511403Y-84786619D01*
X41505000Y-84846174D01*
X41505000Y-85094000D01*
X40509500Y-85094000D01*
X40509500Y-83865530D01*
X40510809Y-83852909D01*
X40514392Y-83835819D01*
X40514393Y-83835816D01*
X40509735Y-83798452D01*
X40509500Y-83794647D01*
X40509500Y-83788719D01*
X40508508Y-83782777D01*
X40505736Y-83766167D01*
X40505559Y-83764946D01*
X40504425Y-83755847D01*
X40498810Y-83710797D01*
X40498808Y-83710794D01*
X40497355Y-83705911D01*
X40497388Y-83705901D01*
X40495671Y-83700541D01*
X40495639Y-83700553D01*
X40493984Y-83695734D01*
X40493983Y-83695732D01*
X40493983Y-83695731D01*
X40468000Y-83647720D01*
X40467457Y-83646665D01*
X40443477Y-83597611D01*
X40443475Y-83597609D01*
X40443474Y-83597606D01*
X40440513Y-83593458D01*
X40440539Y-83593438D01*
X40437175Y-83588927D01*
X40437148Y-83588949D01*
X40434018Y-83584927D01*
X40393884Y-83547981D01*
X40392966Y-83547100D01*
X39585125Y-82739259D01*
X39577126Y-82729408D01*
X39567578Y-82714793D01*
X39567574Y-82714788D01*
X39537872Y-82691670D01*
X39535012Y-82689146D01*
X39530816Y-82684949D01*
X39512220Y-82671672D01*
X39511217Y-82670924D01*
X39468155Y-82637408D01*
X39468154Y-82637407D01*
X39468152Y-82637406D01*
X39463671Y-82634981D01*
X39463686Y-82634951D01*
X39458681Y-82632375D01*
X39458666Y-82632406D01*
X39454086Y-82630166D01*
X39401814Y-82614605D01*
X39400604Y-82614217D01*
X39348994Y-82596500D01*
X39343965Y-82595661D01*
X39343970Y-82595627D01*
X39338399Y-82594815D01*
X39338395Y-82594849D01*
X39333339Y-82594218D01*
X39301144Y-82595550D01*
X39278807Y-82596474D01*
X39277571Y-82596500D01*
X38814000Y-82596500D01*
X38770513Y-82578487D01*
X38752500Y-82535000D01*
X38752500Y-82299324D01*
X38739903Y-82235998D01*
X38739903Y-82212000D01*
X38744081Y-82191000D01*
X38752500Y-82148674D01*
X38752500Y-81912999D01*
X38770513Y-81869513D01*
X38814000Y-81851500D01*
X39194106Y-81851500D01*
X39237593Y-81869513D01*
X40406818Y-83038739D01*
X40414816Y-83048588D01*
X40424367Y-83063206D01*
X40424369Y-83063209D01*
X40454074Y-83086330D01*
X40456925Y-83088846D01*
X40461131Y-83093052D01*
X40479740Y-83106339D01*
X40480727Y-83107074D01*
X40523790Y-83140592D01*
X40523791Y-83140592D01*
X40523792Y-83140593D01*
X40528273Y-83143018D01*
X40528255Y-83143049D01*
X40533259Y-83145624D01*
X40533275Y-83145593D01*
X40537851Y-83147830D01*
X40537854Y-83147831D01*
X40537856Y-83147832D01*
X40590140Y-83163397D01*
X40591332Y-83163779D01*
X40616095Y-83172280D01*
X40642951Y-83181500D01*
X40642952Y-83181500D01*
X40647979Y-83182339D01*
X40647973Y-83182372D01*
X40653545Y-83183184D01*
X40653550Y-83183151D01*
X40658605Y-83183781D01*
X40713137Y-83181525D01*
X40714374Y-83181500D01*
X41418001Y-83181500D01*
X41461488Y-83199513D01*
X41479501Y-83243000D01*
X41479501Y-83326872D01*
X41485908Y-83386481D01*
X41485909Y-83386485D01*
X41495799Y-83413000D01*
X41536114Y-83521091D01*
X41536203Y-83521328D01*
X41536205Y-83521333D01*
X41556154Y-83547981D01*
X41622454Y-83636546D01*
X41701515Y-83695731D01*
X41737074Y-83722351D01*
X41737669Y-83722796D01*
X41872517Y-83773091D01*
X41932127Y-83779500D01*
X42527872Y-83779499D01*
X42587483Y-83773091D01*
X42722331Y-83722796D01*
X42837546Y-83636546D01*
X42923796Y-83521331D01*
X42974091Y-83386483D01*
X42980500Y-83326873D01*
X42980500Y-83054000D01*
X43380000Y-83054000D01*
X43380000Y-83326825D01*
X43386403Y-83386380D01*
X43436646Y-83521086D01*
X43436648Y-83521091D01*
X43522811Y-83636188D01*
X43637908Y-83722351D01*
X43637913Y-83722353D01*
X43772619Y-83772596D01*
X43832174Y-83779000D01*
X43880000Y-83779000D01*
X43880000Y-83054000D01*
X44380000Y-83054000D01*
X44380000Y-83779000D01*
X44427826Y-83779000D01*
X44487380Y-83772596D01*
X44622086Y-83722353D01*
X44622091Y-83722351D01*
X44737188Y-83636188D01*
X44823351Y-83521091D01*
X44823353Y-83521086D01*
X44873596Y-83386380D01*
X44880000Y-83326825D01*
X44880000Y-83054000D01*
X44380000Y-83054000D01*
X43880000Y-83054000D01*
X43380000Y-83054000D01*
X42980500Y-83054000D01*
X42980499Y-82554000D01*
X43380000Y-82554000D01*
X43880000Y-82554000D01*
X43880000Y-81829000D01*
X44380000Y-81829000D01*
X44380000Y-82554000D01*
X44880000Y-82554000D01*
X44880000Y-82281174D01*
X44873596Y-82221619D01*
X44823353Y-82086913D01*
X44823351Y-82086908D01*
X44737188Y-81971811D01*
X44622091Y-81885648D01*
X44622086Y-81885646D01*
X44487380Y-81835403D01*
X44427826Y-81829000D01*
X44380000Y-81829000D01*
X43880000Y-81829000D01*
X43832174Y-81829000D01*
X43772619Y-81835403D01*
X43637913Y-81885646D01*
X43637908Y-81885648D01*
X43522811Y-81971811D01*
X43436648Y-82086908D01*
X43436646Y-82086913D01*
X43386403Y-82221619D01*
X43380000Y-82281174D01*
X43380000Y-82554000D01*
X42980499Y-82554000D01*
X42980499Y-82281128D01*
X42974091Y-82221517D01*
X42970761Y-82212590D01*
X42953193Y-82165486D01*
X42923796Y-82086669D01*
X42837546Y-81971454D01*
X42759462Y-81913000D01*
X42722333Y-81885205D01*
X42722328Y-81885203D01*
X42587487Y-81834910D01*
X42587485Y-81834909D01*
X42587483Y-81834909D01*
X42527873Y-81828500D01*
X42527871Y-81828500D01*
X41932127Y-81828500D01*
X41872518Y-81834908D01*
X41872514Y-81834909D01*
X41737671Y-81885203D01*
X41737666Y-81885205D01*
X41622454Y-81971454D01*
X41536205Y-82086666D01*
X41536203Y-82086671D01*
X41485910Y-82221512D01*
X41479500Y-82281128D01*
X41479500Y-82365000D01*
X41461487Y-82408487D01*
X41418000Y-82426500D01*
X40887784Y-82426500D01*
X40844297Y-82408487D01*
X40189151Y-81753340D01*
X40171138Y-81709853D01*
X40189151Y-81666366D01*
X40225030Y-81648825D01*
X40241203Y-81646810D01*
X40241208Y-81646807D01*
X40246093Y-81645354D01*
X40246103Y-81645387D01*
X40251459Y-81643671D01*
X40251448Y-81643637D01*
X40256263Y-81641983D01*
X40256269Y-81641983D01*
X40304265Y-81616007D01*
X40305368Y-81615439D01*
X40354389Y-81591476D01*
X40358536Y-81588515D01*
X40358557Y-81588544D01*
X40363069Y-81585179D01*
X40363048Y-81585152D01*
X40367067Y-81582023D01*
X40367068Y-81582021D01*
X40367071Y-81582020D01*
X40404048Y-81541850D01*
X40404885Y-81540978D01*
X41286352Y-80659513D01*
X41329840Y-80641500D01*
X41443001Y-80641500D01*
X41486488Y-80659513D01*
X41504501Y-80703000D01*
X41504501Y-80761872D01*
X41510908Y-80821481D01*
X41510909Y-80821485D01*
X41535198Y-80886605D01*
X41561114Y-80956091D01*
X41561203Y-80956328D01*
X41561205Y-80956333D01*
X41592177Y-80997705D01*
X41647454Y-81071546D01*
X41739934Y-81140776D01*
X41762074Y-81157351D01*
X41762669Y-81157796D01*
X41897517Y-81208091D01*
X41957127Y-81214500D01*
X42577872Y-81214499D01*
X42637483Y-81208091D01*
X42772331Y-81157796D01*
X42887546Y-81071546D01*
X42973796Y-80956331D01*
X43024091Y-80821483D01*
X43030500Y-80761873D01*
X43030500Y-80514000D01*
X43330000Y-80514000D01*
X43330000Y-80761825D01*
X43336403Y-80821380D01*
X43386646Y-80956086D01*
X43386648Y-80956091D01*
X43472811Y-81071188D01*
X43587908Y-81157351D01*
X43587913Y-81157353D01*
X43722619Y-81207596D01*
X43782174Y-81214000D01*
X43842500Y-81214000D01*
X43842500Y-80514000D01*
X44342500Y-80514000D01*
X44342500Y-81214000D01*
X44402826Y-81214000D01*
X44462380Y-81207596D01*
X44597086Y-81157353D01*
X44597091Y-81157351D01*
X44712188Y-81071188D01*
X44798351Y-80956091D01*
X44798353Y-80956086D01*
X44848596Y-80821380D01*
X44855000Y-80761825D01*
X44855000Y-80514000D01*
X48084000Y-80514000D01*
X48084000Y-80786825D01*
X48090403Y-80846380D01*
X48140646Y-80981086D01*
X48140648Y-80981091D01*
X48226811Y-81096188D01*
X48341908Y-81182351D01*
X48341913Y-81182353D01*
X48476619Y-81232596D01*
X48536174Y-81239000D01*
X48584000Y-81239000D01*
X48584000Y-80514000D01*
X49084000Y-80514000D01*
X49084000Y-81239000D01*
X49131826Y-81239000D01*
X49191380Y-81232596D01*
X49326086Y-81182353D01*
X49326091Y-81182351D01*
X49441188Y-81096188D01*
X49527351Y-80981091D01*
X49527353Y-80981086D01*
X49577596Y-80846380D01*
X49583995Y-80786872D01*
X49983500Y-80786872D01*
X49989908Y-80846481D01*
X49989909Y-80846485D01*
X50030068Y-80954155D01*
X50040114Y-80981091D01*
X50040203Y-80981328D01*
X50040205Y-80981333D01*
X50069905Y-81021007D01*
X50126454Y-81096546D01*
X50218934Y-81165776D01*
X50241074Y-81182351D01*
X50241669Y-81182796D01*
X50376517Y-81233091D01*
X50436127Y-81239500D01*
X51031872Y-81239499D01*
X51091483Y-81233091D01*
X51226331Y-81182796D01*
X51341546Y-81096546D01*
X51427796Y-80981331D01*
X51478091Y-80846483D01*
X51484500Y-80786873D01*
X51484500Y-80702999D01*
X51502513Y-80659513D01*
X51546000Y-80641500D01*
X51770470Y-80641500D01*
X51783090Y-80642808D01*
X51800184Y-80646393D01*
X51837546Y-80641735D01*
X51841352Y-80641500D01*
X51847279Y-80641500D01*
X51847281Y-80641500D01*
X51869818Y-80637738D01*
X51871021Y-80637562D01*
X51925203Y-80630810D01*
X51925206Y-80630808D01*
X51930093Y-80629354D01*
X51930103Y-80629387D01*
X51935459Y-80627671D01*
X51935448Y-80627637D01*
X51940263Y-80625983D01*
X51940269Y-80625983D01*
X51988265Y-80600007D01*
X51989368Y-80599439D01*
X52038389Y-80575476D01*
X52042536Y-80572515D01*
X52042557Y-80572544D01*
X52047069Y-80569179D01*
X52047048Y-80569152D01*
X52051067Y-80566023D01*
X52051068Y-80566021D01*
X52051071Y-80566020D01*
X52088048Y-80525850D01*
X52088862Y-80525001D01*
X52339351Y-80274513D01*
X52382839Y-80256500D01*
X52395961Y-80256500D01*
X52534053Y-80215953D01*
X52655128Y-80138143D01*
X52749377Y-80029373D01*
X52809165Y-79898457D01*
X52829647Y-79756000D01*
X52809165Y-79613543D01*
X52803893Y-79602000D01*
X52772990Y-79534331D01*
X52749377Y-79482627D01*
X52655128Y-79373857D01*
X52655125Y-79373855D01*
X52655124Y-79373854D01*
X52534055Y-79296048D01*
X52534048Y-79296045D01*
X52430563Y-79265660D01*
X52395961Y-79255500D01*
X52252039Y-79255500D01*
X52113951Y-79296045D01*
X52113944Y-79296048D01*
X51992875Y-79373854D01*
X51992874Y-79373855D01*
X51992872Y-79373856D01*
X51992872Y-79373857D01*
X51991889Y-79374992D01*
X51898622Y-79482627D01*
X51898622Y-79482628D01*
X51838836Y-79613538D01*
X51838835Y-79613542D01*
X51826004Y-79702782D01*
X51808617Y-79737516D01*
X51677647Y-79868487D01*
X51634160Y-79886500D01*
X51545999Y-79886500D01*
X51502512Y-79868487D01*
X51484499Y-79825000D01*
X51484499Y-79741127D01*
X51478091Y-79681518D01*
X51478090Y-79681514D01*
X51443766Y-79589487D01*
X51427796Y-79546669D01*
X51341546Y-79431454D01*
X51265974Y-79374881D01*
X51226333Y-79345205D01*
X51226328Y-79345203D01*
X51091487Y-79294910D01*
X51091485Y-79294909D01*
X51091483Y-79294909D01*
X51031873Y-79288500D01*
X51031871Y-79288500D01*
X50436127Y-79288500D01*
X50376518Y-79294908D01*
X50376514Y-79294909D01*
X50241671Y-79345203D01*
X50241666Y-79345205D01*
X50126454Y-79431454D01*
X50040205Y-79546666D01*
X50040203Y-79546671D01*
X49989910Y-79681512D01*
X49989910Y-79681514D01*
X49989909Y-79681517D01*
X49983888Y-79737516D01*
X49983500Y-79741128D01*
X49983500Y-80786872D01*
X49583995Y-80786872D01*
X49584000Y-80786825D01*
X49584000Y-80514000D01*
X49084000Y-80514000D01*
X48584000Y-80514000D01*
X48084000Y-80514000D01*
X44855000Y-80514000D01*
X44342500Y-80514000D01*
X43842500Y-80514000D01*
X43330000Y-80514000D01*
X43030500Y-80514000D01*
X43030499Y-79766128D01*
X43024091Y-79706517D01*
X42973796Y-79571669D01*
X42887546Y-79456454D01*
X42795079Y-79387233D01*
X42771061Y-79346752D01*
X42782702Y-79301144D01*
X42823183Y-79277126D01*
X42831935Y-79276500D01*
X43528899Y-79276500D01*
X43572386Y-79294513D01*
X43590399Y-79338000D01*
X43572386Y-79381487D01*
X43565755Y-79387233D01*
X43472811Y-79456811D01*
X43386648Y-79571908D01*
X43386646Y-79571913D01*
X43336403Y-79706619D01*
X43330000Y-79766174D01*
X43330000Y-80014000D01*
X44855000Y-80014000D01*
X44855000Y-79766174D01*
X44848596Y-79706619D01*
X44798353Y-79571913D01*
X44798351Y-79571908D01*
X44712188Y-79456811D01*
X44619245Y-79387233D01*
X44595227Y-79346752D01*
X44606868Y-79301144D01*
X44647349Y-79277126D01*
X44656101Y-79276500D01*
X44681161Y-79276500D01*
X44724647Y-79294512D01*
X45204617Y-79774483D01*
X45222004Y-79809217D01*
X45234834Y-79898457D01*
X45234836Y-79898461D01*
X45294622Y-80029371D01*
X45294622Y-80029372D01*
X45294623Y-80029373D01*
X45388872Y-80138143D01*
X45509947Y-80215953D01*
X45648039Y-80256500D01*
X45791961Y-80256500D01*
X45930053Y-80215953D01*
X46051128Y-80138143D01*
X46145377Y-80029373D01*
X46152398Y-80014000D01*
X48084000Y-80014000D01*
X48584000Y-80014000D01*
X48584000Y-79289000D01*
X49084000Y-79289000D01*
X49084000Y-80014000D01*
X49584000Y-80014000D01*
X49584000Y-79741174D01*
X49577596Y-79681619D01*
X49527353Y-79546913D01*
X49527351Y-79546908D01*
X49441188Y-79431811D01*
X49326091Y-79345648D01*
X49326086Y-79345646D01*
X49191380Y-79295403D01*
X49131826Y-79289000D01*
X49084000Y-79289000D01*
X48584000Y-79289000D01*
X48536174Y-79289000D01*
X48476619Y-79295403D01*
X48341913Y-79345646D01*
X48341908Y-79345648D01*
X48226811Y-79431811D01*
X48140648Y-79546908D01*
X48140646Y-79546913D01*
X48090403Y-79681619D01*
X48084000Y-79741174D01*
X48084000Y-80014000D01*
X46152398Y-80014000D01*
X46205165Y-79898457D01*
X46225647Y-79756000D01*
X46205165Y-79613543D01*
X46199893Y-79602000D01*
X46168990Y-79534331D01*
X46145377Y-79482627D01*
X46051128Y-79373857D01*
X46051125Y-79373855D01*
X46051124Y-79373854D01*
X45930055Y-79296048D01*
X45930048Y-79296045D01*
X45826563Y-79265660D01*
X45791961Y-79255500D01*
X45791960Y-79255500D01*
X45778839Y-79255500D01*
X45735352Y-79237487D01*
X45162127Y-78664261D01*
X45154129Y-78654412D01*
X45146538Y-78642794D01*
X45144576Y-78639791D01*
X45144576Y-78639790D01*
X45114870Y-78616669D01*
X45112011Y-78614145D01*
X45107816Y-78609949D01*
X45089220Y-78596672D01*
X45088217Y-78595924D01*
X45045155Y-78562408D01*
X45045154Y-78562407D01*
X45045152Y-78562406D01*
X45040671Y-78559981D01*
X45040686Y-78559951D01*
X45035681Y-78557375D01*
X45035666Y-78557406D01*
X45031086Y-78555166D01*
X44978814Y-78539605D01*
X44977604Y-78539217D01*
X44925994Y-78521500D01*
X44920965Y-78520661D01*
X44920970Y-78520627D01*
X44915399Y-78519815D01*
X44915395Y-78519849D01*
X44910338Y-78519218D01*
X44884917Y-78520270D01*
X44840723Y-78504070D01*
X44820929Y-78461364D01*
X44824754Y-78437331D01*
X44873596Y-78306380D01*
X44880000Y-78246825D01*
X44880000Y-77974000D01*
X43380000Y-77974000D01*
X43380000Y-78246825D01*
X43386403Y-78306380D01*
X43435684Y-78438508D01*
X43434004Y-78485548D01*
X43399554Y-78517622D01*
X43378062Y-78521500D01*
X42982471Y-78521500D01*
X42938984Y-78503487D01*
X42920971Y-78460000D01*
X42924849Y-78438508D01*
X42950269Y-78370352D01*
X42974091Y-78306483D01*
X42980500Y-78246873D01*
X42980499Y-77474000D01*
X43380000Y-77474000D01*
X43880000Y-77474000D01*
X43880000Y-76749000D01*
X44380000Y-76749000D01*
X44380000Y-77474000D01*
X44880000Y-77474000D01*
X44880000Y-77201174D01*
X44873596Y-77141619D01*
X44823353Y-77006913D01*
X44823351Y-77006908D01*
X44737188Y-76891811D01*
X44622091Y-76805648D01*
X44622086Y-76805646D01*
X44487380Y-76755403D01*
X44427826Y-76749000D01*
X44380000Y-76749000D01*
X43880000Y-76749000D01*
X43832174Y-76749000D01*
X43772619Y-76755403D01*
X43637913Y-76805646D01*
X43637908Y-76805648D01*
X43522811Y-76891811D01*
X43436648Y-77006908D01*
X43436646Y-77006913D01*
X43386403Y-77141619D01*
X43380000Y-77201174D01*
X43380000Y-77474000D01*
X42980499Y-77474000D01*
X42980499Y-77201128D01*
X42974091Y-77141517D01*
X42923796Y-77006669D01*
X42837546Y-76891454D01*
X42758485Y-76832269D01*
X42722333Y-76805205D01*
X42722328Y-76805203D01*
X42719164Y-76804023D01*
X42687873Y-76792352D01*
X42587487Y-76754910D01*
X42587485Y-76754909D01*
X42587483Y-76754909D01*
X42527873Y-76748500D01*
X42527871Y-76748500D01*
X41932127Y-76748500D01*
X41872518Y-76754908D01*
X41804852Y-76780145D01*
X41757812Y-76778464D01*
X41739874Y-76766009D01*
X41575470Y-76601605D01*
X41392814Y-76418948D01*
X41392813Y-76418947D01*
X41391657Y-76417791D01*
X41391646Y-76417781D01*
X41213127Y-76239261D01*
X41205129Y-76229412D01*
X41200870Y-76222895D01*
X41195576Y-76214791D01*
X41195574Y-76214789D01*
X41176572Y-76199999D01*
X41165866Y-76191666D01*
X41163010Y-76189144D01*
X41157657Y-76183791D01*
X41157646Y-76183781D01*
X40713127Y-75739261D01*
X40705129Y-75729412D01*
X40700870Y-75722895D01*
X40695576Y-75714791D01*
X40685401Y-75706871D01*
X40665870Y-75691669D01*
X40663011Y-75689145D01*
X40658816Y-75684949D01*
X40640653Y-75671981D01*
X40640210Y-75671665D01*
X40639217Y-75670924D01*
X40596155Y-75637408D01*
X40596154Y-75637407D01*
X40596152Y-75637406D01*
X40591671Y-75634981D01*
X40591686Y-75634951D01*
X40586681Y-75632375D01*
X40586666Y-75632406D01*
X40582086Y-75630166D01*
X40529814Y-75614605D01*
X40528604Y-75614217D01*
X40476994Y-75596500D01*
X40471965Y-75595661D01*
X40471970Y-75595627D01*
X40466399Y-75594815D01*
X40466395Y-75594849D01*
X40461339Y-75594218D01*
X40429144Y-75595550D01*
X40406807Y-75596474D01*
X40405571Y-75596500D01*
X38631066Y-75596500D01*
X38605943Y-75588879D01*
X38605334Y-75590351D01*
X38599738Y-75588032D01*
X38526677Y-75573500D01*
X38526674Y-75573500D01*
X37177326Y-75573500D01*
X37177323Y-75573500D01*
X37104261Y-75588032D01*
X37098666Y-75590351D01*
X37098056Y-75588879D01*
X37072934Y-75596500D01*
X35323530Y-75596500D01*
X35310909Y-75595191D01*
X35293817Y-75591607D01*
X35293816Y-75591607D01*
X35256455Y-75596264D01*
X35252650Y-75596500D01*
X35246719Y-75596500D01*
X35233080Y-75598775D01*
X35224206Y-75600256D01*
X35222950Y-75600439D01*
X35168798Y-75607190D01*
X35163912Y-75608645D01*
X35163902Y-75608613D01*
X35158539Y-75610331D01*
X35158550Y-75610362D01*
X35153732Y-75612015D01*
X35105754Y-75637979D01*
X35104625Y-75638561D01*
X35055611Y-75662523D01*
X35051461Y-75665486D01*
X35051442Y-75665460D01*
X35046930Y-75668825D01*
X35046950Y-75668851D01*
X35042929Y-75671979D01*
X35042929Y-75671980D01*
X35035865Y-75679653D01*
X34993160Y-75699447D01*
X34990619Y-75699500D01*
X34980039Y-75699500D01*
X34841951Y-75740045D01*
X34841944Y-75740048D01*
X34720875Y-75817854D01*
X34720874Y-75817855D01*
X34626622Y-75926627D01*
X34626622Y-75926628D01*
X34566836Y-76057538D01*
X34566835Y-76057542D01*
X34546353Y-76199999D01*
X34546353Y-76200000D01*
X34566835Y-76342457D01*
X34566836Y-76342461D01*
X34616802Y-76451869D01*
X34626623Y-76473373D01*
X34636462Y-76484728D01*
X34651326Y-76529386D01*
X34636463Y-76565272D01*
X34626623Y-76576628D01*
X34566836Y-76707541D01*
X34566835Y-76707545D01*
X34546353Y-76850002D01*
X34546353Y-76850003D01*
X30980500Y-76850003D01*
X30980500Y-75148677D01*
X36951500Y-75148677D01*
X36964351Y-75213284D01*
X36964351Y-75237280D01*
X36952000Y-75299372D01*
X36952000Y-75324000D01*
X37031776Y-75324000D01*
X37065943Y-75334364D01*
X37104261Y-75359967D01*
X37162473Y-75371545D01*
X37177322Y-75374499D01*
X37177323Y-75374500D01*
X37177326Y-75374500D01*
X38526677Y-75374500D01*
X38526677Y-75374499D01*
X38555980Y-75368670D01*
X38599738Y-75359967D01*
X38605334Y-75357649D01*
X38605943Y-75359120D01*
X38631066Y-75351500D01*
X40756160Y-75351500D01*
X40799647Y-75369513D01*
X40848873Y-75418739D01*
X40856871Y-75428588D01*
X40866422Y-75443206D01*
X40866424Y-75443209D01*
X40896129Y-75466330D01*
X40898980Y-75468846D01*
X40903186Y-75473052D01*
X40921795Y-75486339D01*
X40922782Y-75487074D01*
X40965845Y-75520592D01*
X40965846Y-75520592D01*
X40965847Y-75520593D01*
X40970328Y-75523018D01*
X40970310Y-75523049D01*
X40975314Y-75525624D01*
X40975330Y-75525593D01*
X40979906Y-75527830D01*
X40979909Y-75527831D01*
X40979911Y-75527832D01*
X41032195Y-75543397D01*
X41033387Y-75543779D01*
X41062132Y-75553647D01*
X41085006Y-75561500D01*
X41085007Y-75561500D01*
X41090034Y-75562339D01*
X41090028Y-75562372D01*
X41095600Y-75563184D01*
X41095605Y-75563151D01*
X41100660Y-75563781D01*
X41155192Y-75561525D01*
X41156429Y-75561500D01*
X41418001Y-75561500D01*
X41461488Y-75579513D01*
X41479501Y-75623000D01*
X41479501Y-75706872D01*
X41485908Y-75766481D01*
X41485909Y-75766485D01*
X41526068Y-75874155D01*
X41536114Y-75901091D01*
X41536203Y-75901328D01*
X41536205Y-75901333D01*
X41565905Y-75941007D01*
X41622454Y-76016546D01*
X41677218Y-76057542D01*
X41737074Y-76102351D01*
X41737669Y-76102796D01*
X41872517Y-76153091D01*
X41932127Y-76159500D01*
X42527872Y-76159499D01*
X42587483Y-76153091D01*
X42722331Y-76102796D01*
X42837546Y-76016546D01*
X42923796Y-75901331D01*
X42974091Y-75766483D01*
X42980500Y-75706873D01*
X42980500Y-75434000D01*
X43380000Y-75434000D01*
X43380000Y-75706825D01*
X43386403Y-75766380D01*
X43436646Y-75901086D01*
X43436648Y-75901091D01*
X43522811Y-76016188D01*
X43637908Y-76102351D01*
X43637913Y-76102353D01*
X43772619Y-76152596D01*
X43832174Y-76159000D01*
X43880000Y-76159000D01*
X43880000Y-75434000D01*
X44380000Y-75434000D01*
X44380000Y-76159000D01*
X44427826Y-76159000D01*
X44487380Y-76152596D01*
X44622086Y-76102353D01*
X44622091Y-76102351D01*
X44737188Y-76016188D01*
X44823351Y-75901091D01*
X44823353Y-75901086D01*
X44873596Y-75766380D01*
X44880000Y-75706825D01*
X44880000Y-75434000D01*
X44380000Y-75434000D01*
X43880000Y-75434000D01*
X43380000Y-75434000D01*
X42980500Y-75434000D01*
X42980499Y-74934000D01*
X43380000Y-74934000D01*
X43880000Y-74934000D01*
X43880000Y-74209000D01*
X44380000Y-74209000D01*
X44380000Y-74934000D01*
X44880000Y-74934000D01*
X44880000Y-74661174D01*
X44873596Y-74601619D01*
X44823353Y-74466913D01*
X44823351Y-74466908D01*
X44737188Y-74351811D01*
X44622091Y-74265648D01*
X44622086Y-74265646D01*
X44487380Y-74215403D01*
X44427826Y-74209000D01*
X44380000Y-74209000D01*
X43880000Y-74209000D01*
X43832174Y-74209000D01*
X43772619Y-74215403D01*
X43637913Y-74265646D01*
X43637908Y-74265648D01*
X43522811Y-74351811D01*
X43436648Y-74466908D01*
X43436646Y-74466913D01*
X43386403Y-74601619D01*
X43380000Y-74661174D01*
X43380000Y-74934000D01*
X42980499Y-74934000D01*
X42980499Y-74661128D01*
X42974091Y-74601517D01*
X42923796Y-74466669D01*
X42911907Y-74450788D01*
X42897233Y-74431185D01*
X42837546Y-74351454D01*
X42749411Y-74285476D01*
X42722333Y-74265205D01*
X42722328Y-74265203D01*
X42587487Y-74214910D01*
X42587485Y-74214909D01*
X42587483Y-74214909D01*
X42527873Y-74208500D01*
X42527871Y-74208500D01*
X41932127Y-74208500D01*
X41872518Y-74214908D01*
X41872514Y-74214909D01*
X41737671Y-74265203D01*
X41737666Y-74265205D01*
X41622454Y-74351454D01*
X41536205Y-74466666D01*
X41536203Y-74466671D01*
X41485910Y-74601512D01*
X41485910Y-74601514D01*
X41485909Y-74601517D01*
X41482050Y-74637408D01*
X41479500Y-74661128D01*
X41479500Y-74745000D01*
X41461487Y-74788487D01*
X41418000Y-74806500D01*
X41329840Y-74806500D01*
X41286353Y-74788487D01*
X41237127Y-74739261D01*
X41229129Y-74729412D01*
X41222874Y-74719839D01*
X41219576Y-74714791D01*
X41219576Y-74714790D01*
X41189870Y-74691669D01*
X41187011Y-74689145D01*
X41182816Y-74684949D01*
X41164220Y-74671672D01*
X41163217Y-74670924D01*
X41120155Y-74637408D01*
X41120154Y-74637407D01*
X41120152Y-74637406D01*
X41115671Y-74634981D01*
X41115686Y-74634951D01*
X41110681Y-74632375D01*
X41110666Y-74632406D01*
X41106086Y-74630166D01*
X41053814Y-74614605D01*
X41052604Y-74614217D01*
X41000994Y-74596500D01*
X40995965Y-74595661D01*
X40995970Y-74595627D01*
X40990399Y-74594815D01*
X40990395Y-74594849D01*
X40985339Y-74594218D01*
X40953144Y-74595550D01*
X40930807Y-74596474D01*
X40929571Y-74596500D01*
X38814000Y-74596500D01*
X38770513Y-74578487D01*
X38752500Y-74535000D01*
X38752500Y-74413000D01*
X38770513Y-74369513D01*
X38814000Y-74351500D01*
X39772470Y-74351500D01*
X39785090Y-74352808D01*
X39802184Y-74356393D01*
X39839546Y-74351735D01*
X39843352Y-74351500D01*
X39849279Y-74351500D01*
X39849281Y-74351500D01*
X39871818Y-74347738D01*
X39873021Y-74347562D01*
X39927203Y-74340810D01*
X39927206Y-74340808D01*
X39932093Y-74339354D01*
X39932103Y-74339387D01*
X39937459Y-74337671D01*
X39937448Y-74337637D01*
X39942263Y-74335983D01*
X39942269Y-74335983D01*
X39990265Y-74310007D01*
X39991368Y-74309439D01*
X40040389Y-74285476D01*
X40044536Y-74282515D01*
X40044557Y-74282544D01*
X40049069Y-74279179D01*
X40049048Y-74279152D01*
X40053067Y-74276023D01*
X40053068Y-74276021D01*
X40053071Y-74276020D01*
X40090048Y-74235850D01*
X40090885Y-74234978D01*
X41286352Y-73039513D01*
X41329840Y-73021500D01*
X41418001Y-73021500D01*
X41461488Y-73039513D01*
X41479501Y-73083000D01*
X41479501Y-73166872D01*
X41485908Y-73226481D01*
X41485909Y-73226485D01*
X41529287Y-73342786D01*
X41536204Y-73361331D01*
X41622454Y-73476546D01*
X41694940Y-73530809D01*
X41737074Y-73562351D01*
X41737669Y-73562796D01*
X41872517Y-73613091D01*
X41932127Y-73619500D01*
X42527872Y-73619499D01*
X42587483Y-73613091D01*
X42722331Y-73562796D01*
X42837546Y-73476546D01*
X42923796Y-73361331D01*
X42974091Y-73226483D01*
X42980500Y-73166873D01*
X42980500Y-72894000D01*
X43380000Y-72894000D01*
X43380000Y-73166825D01*
X43386403Y-73226380D01*
X43436646Y-73361086D01*
X43436648Y-73361091D01*
X43522811Y-73476188D01*
X43637908Y-73562351D01*
X43637913Y-73562353D01*
X43772619Y-73612596D01*
X43832174Y-73619000D01*
X43880000Y-73619000D01*
X43880000Y-72894000D01*
X44380000Y-72894000D01*
X44380000Y-73619000D01*
X44427826Y-73619000D01*
X44487380Y-73612596D01*
X44622086Y-73562353D01*
X44622091Y-73562351D01*
X44737188Y-73476188D01*
X44823351Y-73361091D01*
X44823353Y-73361086D01*
X44873596Y-73226380D01*
X44880000Y-73166825D01*
X44880000Y-72894000D01*
X44380000Y-72894000D01*
X43880000Y-72894000D01*
X43380000Y-72894000D01*
X42980500Y-72894000D01*
X42980499Y-72394000D01*
X43380000Y-72394000D01*
X43880000Y-72394000D01*
X43880000Y-71669000D01*
X44380000Y-71669000D01*
X44380000Y-72394000D01*
X44880000Y-72394000D01*
X44880000Y-72121174D01*
X44873596Y-72061619D01*
X44823353Y-71926913D01*
X44823351Y-71926908D01*
X44737188Y-71811811D01*
X44622091Y-71725648D01*
X44622086Y-71725646D01*
X44487380Y-71675403D01*
X44427826Y-71669000D01*
X44380000Y-71669000D01*
X43880000Y-71669000D01*
X43832174Y-71669000D01*
X43772619Y-71675403D01*
X43637913Y-71725646D01*
X43637908Y-71725648D01*
X43522811Y-71811811D01*
X43436648Y-71926908D01*
X43436646Y-71926913D01*
X43386403Y-72061619D01*
X43380000Y-72121174D01*
X43380000Y-72394000D01*
X42980499Y-72394000D01*
X42980499Y-72121128D01*
X42974091Y-72061517D01*
X42923796Y-71926669D01*
X42923142Y-71925796D01*
X42887121Y-71877678D01*
X42837546Y-71811454D01*
X42729939Y-71730899D01*
X42722333Y-71725205D01*
X42722328Y-71725203D01*
X42587487Y-71674910D01*
X42587485Y-71674909D01*
X42587483Y-71674909D01*
X42527873Y-71668500D01*
X42527871Y-71668500D01*
X41932127Y-71668500D01*
X41872518Y-71674908D01*
X41872514Y-71674909D01*
X41737671Y-71725203D01*
X41737666Y-71725205D01*
X41622454Y-71811454D01*
X41536205Y-71926666D01*
X41536203Y-71926671D01*
X41485910Y-72061512D01*
X41479500Y-72121128D01*
X41479500Y-72205000D01*
X41461487Y-72248487D01*
X41418000Y-72266500D01*
X41193530Y-72266500D01*
X41180909Y-72265191D01*
X41163817Y-72261607D01*
X41163816Y-72261607D01*
X41126455Y-72266264D01*
X41122650Y-72266500D01*
X41116715Y-72266500D01*
X41094184Y-72270258D01*
X41092932Y-72270441D01*
X41086614Y-72271229D01*
X41041231Y-72258738D01*
X41017973Y-72217816D01*
X41017500Y-72210202D01*
X41017500Y-69777839D01*
X41035513Y-69734352D01*
X41794353Y-68975513D01*
X41837840Y-68957500D01*
X45030161Y-68957500D01*
X45073648Y-68975513D01*
X45324487Y-69226352D01*
X45342500Y-69269839D01*
X45342500Y-76662469D01*
X45341191Y-76675089D01*
X45337607Y-76692179D01*
X45337607Y-76692185D01*
X45342264Y-76729545D01*
X45342500Y-76733352D01*
X45342500Y-76739283D01*
X45342565Y-76739671D01*
X45346259Y-76761811D01*
X45346438Y-76763041D01*
X45349125Y-76784594D01*
X45353190Y-76817203D01*
X45353190Y-76817204D01*
X45353191Y-76817206D01*
X45354644Y-76822087D01*
X45354612Y-76822096D01*
X45356331Y-76827461D01*
X45356363Y-76827451D01*
X45358017Y-76832269D01*
X45383985Y-76880255D01*
X45384567Y-76881385D01*
X45408524Y-76930390D01*
X45411484Y-76934535D01*
X45411456Y-76934554D01*
X45414823Y-76939070D01*
X45414850Y-76939050D01*
X45417979Y-76943070D01*
X45458126Y-76980028D01*
X45459019Y-76980884D01*
X46199874Y-77721740D01*
X46436873Y-77958739D01*
X46444871Y-77968588D01*
X46454422Y-77983206D01*
X46454424Y-77983209D01*
X46484129Y-78006330D01*
X46486980Y-78008846D01*
X46491186Y-78013052D01*
X46509795Y-78026339D01*
X46510782Y-78027074D01*
X46553845Y-78060592D01*
X46553846Y-78060592D01*
X46553847Y-78060593D01*
X46558328Y-78063018D01*
X46558310Y-78063049D01*
X46563314Y-78065624D01*
X46563330Y-78065593D01*
X46567906Y-78067830D01*
X46567909Y-78067831D01*
X46567911Y-78067832D01*
X46620195Y-78083397D01*
X46621387Y-78083779D01*
X46652817Y-78094569D01*
X46673006Y-78101500D01*
X46673007Y-78101500D01*
X46678034Y-78102339D01*
X46678028Y-78102372D01*
X46683600Y-78103184D01*
X46683605Y-78103151D01*
X46688660Y-78103781D01*
X46743192Y-78101525D01*
X46744429Y-78101500D01*
X48022001Y-78101500D01*
X48065488Y-78119513D01*
X48083501Y-78163000D01*
X48083501Y-78246872D01*
X48089908Y-78306481D01*
X48089909Y-78306485D01*
X48120449Y-78388365D01*
X48140114Y-78441091D01*
X48140203Y-78441328D01*
X48140205Y-78441333D01*
X48170275Y-78481501D01*
X48226454Y-78556546D01*
X48297790Y-78609948D01*
X48341074Y-78642351D01*
X48341669Y-78642796D01*
X48476517Y-78693091D01*
X48536127Y-78699500D01*
X49131872Y-78699499D01*
X49191483Y-78693091D01*
X49326331Y-78642796D01*
X49441546Y-78556546D01*
X49527796Y-78441331D01*
X49578091Y-78306483D01*
X49584500Y-78246873D01*
X49584500Y-77974000D01*
X49984000Y-77974000D01*
X49984000Y-78246825D01*
X49990403Y-78306380D01*
X50040646Y-78441086D01*
X50040648Y-78441091D01*
X50126811Y-78556188D01*
X50241908Y-78642351D01*
X50241913Y-78642353D01*
X50376619Y-78692596D01*
X50436174Y-78699000D01*
X50484000Y-78699000D01*
X50484000Y-77974000D01*
X50984000Y-77974000D01*
X50984000Y-78699000D01*
X51031826Y-78699000D01*
X51091380Y-78692596D01*
X51226086Y-78642353D01*
X51226091Y-78642351D01*
X51341188Y-78556188D01*
X51427351Y-78441091D01*
X51427353Y-78441086D01*
X51477596Y-78306380D01*
X51484000Y-78246825D01*
X51484000Y-77974000D01*
X50984000Y-77974000D01*
X50484000Y-77974000D01*
X49984000Y-77974000D01*
X49584500Y-77974000D01*
X49584499Y-77201128D01*
X49578091Y-77141517D01*
X49574725Y-77132492D01*
X49576404Y-77085453D01*
X49610854Y-77053378D01*
X49632347Y-77049500D01*
X49936186Y-77049500D01*
X49979673Y-77067513D01*
X49997686Y-77111000D01*
X49993808Y-77132493D01*
X49990403Y-77141621D01*
X49984000Y-77201174D01*
X49984000Y-77474000D01*
X51484000Y-77474000D01*
X51484000Y-77201174D01*
X51477596Y-77141620D01*
X51461319Y-77097980D01*
X51462998Y-77050940D01*
X51489668Y-77022401D01*
X51516283Y-77007997D01*
X51517350Y-77007449D01*
X51566389Y-76983476D01*
X51570536Y-76980515D01*
X51570557Y-76980544D01*
X51575069Y-76977179D01*
X51575048Y-76977152D01*
X51579067Y-76974023D01*
X51579068Y-76974021D01*
X51579071Y-76974020D01*
X51616047Y-76933851D01*
X51616884Y-76932979D01*
X52050744Y-76499120D01*
X52060583Y-76491131D01*
X52075209Y-76481576D01*
X52098332Y-76451866D01*
X52100858Y-76449007D01*
X52105052Y-76444814D01*
X52118342Y-76426198D01*
X52119072Y-76425220D01*
X52123954Y-76418948D01*
X52152592Y-76382155D01*
X52152594Y-76382149D01*
X52155018Y-76377671D01*
X52155049Y-76377688D01*
X52157625Y-76372683D01*
X52157593Y-76372668D01*
X52159832Y-76368088D01*
X52160209Y-76366823D01*
X52175412Y-76315750D01*
X52175764Y-76314653D01*
X52193500Y-76262994D01*
X52193500Y-76262987D01*
X52194339Y-76257966D01*
X52194372Y-76257971D01*
X52195184Y-76252401D01*
X52195150Y-76252397D01*
X52195779Y-76247344D01*
X52195781Y-76247340D01*
X52193525Y-76192807D01*
X52193500Y-76191571D01*
X52193500Y-74349839D01*
X52211513Y-74306352D01*
X54494353Y-72023513D01*
X54537840Y-72005500D01*
X60270161Y-72005500D01*
X60313648Y-72023513D01*
X60564487Y-72274352D01*
X60582500Y-72317839D01*
X60582500Y-72462160D01*
X60564487Y-72505647D01*
X60360783Y-72709350D01*
X60317296Y-72727363D01*
X60273809Y-72709350D01*
X60258938Y-72678246D01*
X60257298Y-72678634D01*
X60256412Y-72674890D01*
X60256412Y-72674886D01*
X60208628Y-72546774D01*
X60202545Y-72538648D01*
X60126689Y-72437315D01*
X60126684Y-72437310D01*
X60017228Y-72355373D01*
X60017226Y-72355372D01*
X59889118Y-72307589D01*
X59889116Y-72307588D01*
X59889114Y-72307588D01*
X59832485Y-72301500D01*
X59832483Y-72301500D01*
X59291515Y-72301500D01*
X59234886Y-72307587D01*
X59234884Y-72307588D01*
X59106776Y-72355371D01*
X59106771Y-72355373D01*
X58997315Y-72437310D01*
X58997310Y-72437315D01*
X58915373Y-72546771D01*
X58915372Y-72546773D01*
X58867589Y-72674881D01*
X58867588Y-72674884D01*
X58867588Y-72674886D01*
X58861500Y-72731515D01*
X58861500Y-72731516D01*
X58861500Y-73572484D01*
X58867587Y-73629113D01*
X58867588Y-73629115D01*
X58915371Y-73757223D01*
X58915373Y-73757228D01*
X58997310Y-73866684D01*
X58997315Y-73866689D01*
X59106771Y-73948626D01*
X59106774Y-73948628D01*
X59234886Y-73996412D01*
X59291515Y-74002500D01*
X59832484Y-74002499D01*
X59889114Y-73996412D01*
X60017226Y-73948628D01*
X60126687Y-73866687D01*
X60208628Y-73757226D01*
X60256412Y-73629114D01*
X60261216Y-73584425D01*
X60283775Y-73543113D01*
X60322364Y-73529500D01*
X60406470Y-73529500D01*
X60419090Y-73530808D01*
X60436184Y-73534393D01*
X60473546Y-73529735D01*
X60477352Y-73529500D01*
X60483279Y-73529500D01*
X60483281Y-73529500D01*
X60505818Y-73525738D01*
X60507021Y-73525562D01*
X60561203Y-73518810D01*
X60561206Y-73518808D01*
X60566093Y-73517354D01*
X60566103Y-73517387D01*
X60571459Y-73515671D01*
X60571448Y-73515637D01*
X60576263Y-73513983D01*
X60576269Y-73513983D01*
X60624265Y-73488007D01*
X60625368Y-73487439D01*
X60674389Y-73463476D01*
X60678536Y-73460515D01*
X60678557Y-73460544D01*
X60683069Y-73457179D01*
X60683048Y-73457152D01*
X60687067Y-73454023D01*
X60687068Y-73454021D01*
X60687071Y-73454020D01*
X60724048Y-73413850D01*
X60724885Y-73412978D01*
X60985514Y-73152350D01*
X61029000Y-73134338D01*
X61072487Y-73152351D01*
X61090500Y-73195838D01*
X61090500Y-75510160D01*
X61072487Y-75553647D01*
X60519647Y-76106487D01*
X60476160Y-76124500D01*
X60322363Y-76124500D01*
X60278876Y-76106487D01*
X60261215Y-76069572D01*
X60256412Y-76024886D01*
X60256411Y-76024884D01*
X60253301Y-76016545D01*
X60208628Y-75896774D01*
X60181166Y-75860089D01*
X60126689Y-75787315D01*
X60126684Y-75787310D01*
X60017228Y-75705373D01*
X60017226Y-75705372D01*
X59889118Y-75657589D01*
X59889116Y-75657588D01*
X59889114Y-75657588D01*
X59832485Y-75651500D01*
X59832483Y-75651500D01*
X59291515Y-75651500D01*
X59234886Y-75657587D01*
X59234884Y-75657588D01*
X59106776Y-75705371D01*
X59106771Y-75705373D01*
X58997315Y-75787310D01*
X58997310Y-75787315D01*
X58915373Y-75896771D01*
X58915372Y-75896773D01*
X58867589Y-76024881D01*
X58867588Y-76024884D01*
X58867588Y-76024886D01*
X58864077Y-76057543D01*
X58861500Y-76081516D01*
X58861500Y-76922484D01*
X58867587Y-76979113D01*
X58867588Y-76979115D01*
X58915371Y-77107223D01*
X58915373Y-77107228D01*
X58997310Y-77216684D01*
X58997315Y-77216689D01*
X59023108Y-77235997D01*
X59106774Y-77298628D01*
X59234886Y-77346412D01*
X59291515Y-77352500D01*
X59832484Y-77352499D01*
X59889114Y-77346412D01*
X60017226Y-77298628D01*
X60126687Y-77216687D01*
X60208628Y-77107226D01*
X60256412Y-76979114D01*
X60261216Y-76934425D01*
X60283775Y-76893113D01*
X60322364Y-76879500D01*
X60612470Y-76879500D01*
X60625090Y-76880808D01*
X60642184Y-76884393D01*
X60679546Y-76879735D01*
X60683352Y-76879500D01*
X60689279Y-76879500D01*
X60689281Y-76879500D01*
X60711818Y-76875738D01*
X60713021Y-76875562D01*
X60767203Y-76868810D01*
X60767206Y-76868808D01*
X60772093Y-76867354D01*
X60772103Y-76867387D01*
X60777459Y-76865671D01*
X60777448Y-76865637D01*
X60782263Y-76863983D01*
X60782269Y-76863983D01*
X60830265Y-76838007D01*
X60831368Y-76837439D01*
X60880389Y-76813476D01*
X60884536Y-76810515D01*
X60884557Y-76810544D01*
X60889069Y-76807179D01*
X60889048Y-76807152D01*
X60893067Y-76804023D01*
X60893068Y-76804021D01*
X60893071Y-76804020D01*
X60930048Y-76763850D01*
X60930885Y-76762978D01*
X61702744Y-75991120D01*
X61712583Y-75983131D01*
X61727209Y-75973576D01*
X61750332Y-75943866D01*
X61752858Y-75941007D01*
X61757052Y-75936814D01*
X61770342Y-75918198D01*
X61771072Y-75917220D01*
X61804592Y-75874155D01*
X61804594Y-75874149D01*
X61807018Y-75869671D01*
X61807049Y-75869688D01*
X61809625Y-75864683D01*
X61809593Y-75864668D01*
X61811832Y-75860088D01*
X61827412Y-75807750D01*
X61827764Y-75806653D01*
X61845500Y-75754994D01*
X61845500Y-75754987D01*
X61846339Y-75749966D01*
X61846372Y-75749971D01*
X61847184Y-75744401D01*
X61847150Y-75744397D01*
X61847778Y-75739349D01*
X61847781Y-75739340D01*
X61845524Y-75684807D01*
X61845499Y-75683569D01*
X61845499Y-73866684D01*
X61845499Y-73482000D01*
X71350000Y-73482000D01*
X71350000Y-73529825D01*
X71356403Y-73589380D01*
X71406646Y-73724086D01*
X71406648Y-73724091D01*
X71492811Y-73839188D01*
X71607908Y-73925351D01*
X71607913Y-73925353D01*
X71742619Y-73975596D01*
X71802174Y-73982000D01*
X73100000Y-73982000D01*
X73100000Y-73482000D01*
X73600000Y-73482000D01*
X73600000Y-73982000D01*
X74897826Y-73982000D01*
X74957380Y-73975596D01*
X75092086Y-73925353D01*
X75092091Y-73925351D01*
X75207188Y-73839188D01*
X75293351Y-73724091D01*
X75293353Y-73724086D01*
X75343596Y-73589380D01*
X75350000Y-73529825D01*
X75350000Y-73482000D01*
X73600000Y-73482000D01*
X73100000Y-73482000D01*
X71350000Y-73482000D01*
X61845499Y-73482000D01*
X61845499Y-72982000D01*
X71350000Y-72982000D01*
X73100000Y-72982000D01*
X73100000Y-72482000D01*
X73600000Y-72482000D01*
X73600000Y-72982000D01*
X75350000Y-72982000D01*
X75350000Y-72934174D01*
X75343596Y-72874619D01*
X75293353Y-72739913D01*
X75293351Y-72739908D01*
X75207188Y-72624811D01*
X75092091Y-72538648D01*
X75092086Y-72538646D01*
X74957380Y-72488403D01*
X74897826Y-72482000D01*
X73600000Y-72482000D01*
X73100000Y-72482000D01*
X71802174Y-72482000D01*
X71742619Y-72488403D01*
X71607913Y-72538646D01*
X71607908Y-72538648D01*
X71492811Y-72624811D01*
X71406648Y-72739908D01*
X71406646Y-72739913D01*
X71356403Y-72874619D01*
X71350000Y-72934174D01*
X71350000Y-72982000D01*
X61845499Y-72982000D01*
X61845499Y-72047468D01*
X61846808Y-72034860D01*
X61850393Y-72017764D01*
X61845736Y-71980403D01*
X61845500Y-71976596D01*
X61845500Y-71970667D01*
X61842745Y-71954160D01*
X61841735Y-71948111D01*
X61841557Y-71946882D01*
X61841426Y-71945836D01*
X61834809Y-71892744D01*
X61834807Y-71892739D01*
X61833354Y-71887855D01*
X61833387Y-71887845D01*
X61831670Y-71882484D01*
X61831636Y-71882496D01*
X61829983Y-71877682D01*
X61829983Y-71877679D01*
X61804009Y-71829683D01*
X61803437Y-71828573D01*
X61779476Y-71779558D01*
X61779475Y-71779557D01*
X61779475Y-71779556D01*
X61776514Y-71775408D01*
X61776541Y-71775388D01*
X61773175Y-71770875D01*
X61773148Y-71770897D01*
X61770018Y-71766875D01*
X61729884Y-71729929D01*
X61728966Y-71729048D01*
X60939177Y-70939259D01*
X60931178Y-70929408D01*
X60921630Y-70914793D01*
X60921626Y-70914788D01*
X60891924Y-70891670D01*
X60889064Y-70889146D01*
X60884868Y-70884949D01*
X60873709Y-70876982D01*
X60866262Y-70871665D01*
X60865269Y-70870924D01*
X60822207Y-70837408D01*
X60822206Y-70837407D01*
X60822204Y-70837406D01*
X60817723Y-70834981D01*
X60817738Y-70834951D01*
X60812733Y-70832375D01*
X60812718Y-70832406D01*
X60808138Y-70830166D01*
X60755866Y-70814605D01*
X60754656Y-70814217D01*
X60703046Y-70796500D01*
X60698017Y-70795661D01*
X60698022Y-70795627D01*
X60692451Y-70794815D01*
X60692447Y-70794849D01*
X60687391Y-70794218D01*
X60655196Y-70795550D01*
X60632859Y-70796474D01*
X60631623Y-70796500D01*
X51525101Y-70796500D01*
X51481614Y-70778487D01*
X51463601Y-70735000D01*
X51467478Y-70713508D01*
X51477597Y-70686377D01*
X51484000Y-70626825D01*
X51484000Y-70354000D01*
X49984000Y-70354000D01*
X49984000Y-70626825D01*
X49990403Y-70686380D01*
X50040646Y-70821087D01*
X50043716Y-70825188D01*
X50055357Y-70870796D01*
X50039732Y-70903695D01*
X50031984Y-70912112D01*
X50031103Y-70913030D01*
X49276053Y-71668080D01*
X49232566Y-71686093D01*
X49211075Y-71682216D01*
X49192807Y-71675403D01*
X49191483Y-71674909D01*
X49131873Y-71668500D01*
X49131871Y-71668500D01*
X48536127Y-71668500D01*
X48476518Y-71674908D01*
X48476514Y-71674909D01*
X48341671Y-71725203D01*
X48341666Y-71725205D01*
X48226454Y-71811454D01*
X48140205Y-71926666D01*
X48140203Y-71926671D01*
X48089910Y-72061512D01*
X48083500Y-72121128D01*
X48083500Y-72205000D01*
X48065487Y-72248487D01*
X48022000Y-72266500D01*
X47425840Y-72266500D01*
X47382353Y-72248487D01*
X47266717Y-72132851D01*
X47131511Y-71997645D01*
X47113499Y-71954162D01*
X47113499Y-69237683D01*
X47131513Y-69194196D01*
X47175000Y-69176183D01*
X47218486Y-69194195D01*
X47356487Y-69332197D01*
X47372516Y-69370893D01*
X47374290Y-69370747D01*
X47374500Y-69373281D01*
X47378259Y-69395811D01*
X47378438Y-69397041D01*
X47385190Y-69451203D01*
X47385190Y-69451204D01*
X47385191Y-69451206D01*
X47386644Y-69456087D01*
X47386612Y-69456096D01*
X47388331Y-69461461D01*
X47388363Y-69461451D01*
X47390017Y-69466269D01*
X47415985Y-69514255D01*
X47416567Y-69515385D01*
X47440524Y-69564390D01*
X47443484Y-69568535D01*
X47443456Y-69568554D01*
X47446823Y-69573069D01*
X47446850Y-69573049D01*
X47449979Y-69577070D01*
X47490125Y-69614028D01*
X47491042Y-69614908D01*
X48065487Y-70189353D01*
X48083500Y-70232840D01*
X48083500Y-70626872D01*
X48089908Y-70686481D01*
X48089909Y-70686485D01*
X48140203Y-70821328D01*
X48140205Y-70821333D01*
X48167738Y-70858112D01*
X48226454Y-70936546D01*
X48341669Y-71022796D01*
X48476517Y-71073091D01*
X48536127Y-71079500D01*
X49131872Y-71079499D01*
X49191483Y-71073091D01*
X49326331Y-71022796D01*
X49441546Y-70936546D01*
X49527796Y-70821331D01*
X49578091Y-70686483D01*
X49584500Y-70626873D01*
X49584499Y-69854000D01*
X49984000Y-69854000D01*
X50484000Y-69854000D01*
X50484000Y-69129000D01*
X50984000Y-69129000D01*
X50984000Y-69854000D01*
X51484000Y-69854000D01*
X51484000Y-69581174D01*
X51477596Y-69521619D01*
X51427353Y-69386913D01*
X51427351Y-69386908D01*
X51341188Y-69271811D01*
X51226091Y-69185648D01*
X51226086Y-69185646D01*
X51091380Y-69135403D01*
X51031826Y-69129000D01*
X50984000Y-69129000D01*
X50484000Y-69129000D01*
X50436174Y-69129000D01*
X50376619Y-69135403D01*
X50241913Y-69185646D01*
X50241908Y-69185648D01*
X50126811Y-69271811D01*
X50040648Y-69386908D01*
X50040646Y-69386913D01*
X49990403Y-69521619D01*
X49984000Y-69581174D01*
X49984000Y-69854000D01*
X49584499Y-69854000D01*
X49584499Y-69581128D01*
X49578091Y-69521517D01*
X49575382Y-69514255D01*
X49557485Y-69466269D01*
X49527796Y-69386669D01*
X49441546Y-69271454D01*
X49338343Y-69194196D01*
X49326333Y-69185205D01*
X49326328Y-69185203D01*
X49191487Y-69134910D01*
X49191485Y-69134909D01*
X49191483Y-69134909D01*
X49131873Y-69128500D01*
X49131871Y-69128500D01*
X48536127Y-69128500D01*
X48476518Y-69134908D01*
X48476514Y-69134909D01*
X48341671Y-69185203D01*
X48341666Y-69185205D01*
X48262747Y-69244284D01*
X48217139Y-69255925D01*
X48182404Y-69238538D01*
X48147513Y-69203647D01*
X48131483Y-69164948D01*
X48129710Y-69165095D01*
X48129500Y-69162569D01*
X48129500Y-69162563D01*
X48125735Y-69140009D01*
X48125558Y-69138792D01*
X48118809Y-69084640D01*
X48118807Y-69084635D01*
X48117354Y-69079751D01*
X48117387Y-69079741D01*
X48115670Y-69074380D01*
X48115636Y-69074392D01*
X48113983Y-69069578D01*
X48113983Y-69069575D01*
X48088009Y-69021579D01*
X48087437Y-69020469D01*
X48063476Y-68971454D01*
X48063475Y-68971453D01*
X48063475Y-68971452D01*
X48060514Y-68967304D01*
X48060541Y-68967284D01*
X48057175Y-68962771D01*
X48057148Y-68962793D01*
X48054018Y-68958771D01*
X48013884Y-68921825D01*
X48012966Y-68920944D01*
X45967281Y-66875259D01*
X45959282Y-66865408D01*
X45949734Y-66850793D01*
X45949730Y-66850788D01*
X45920028Y-66827670D01*
X45917168Y-66825146D01*
X45912972Y-66820949D01*
X45901813Y-66812982D01*
X45894366Y-66807665D01*
X45893373Y-66806924D01*
X45850311Y-66773408D01*
X45850310Y-66773407D01*
X45850308Y-66773406D01*
X45845827Y-66770981D01*
X45845842Y-66770951D01*
X45840837Y-66768375D01*
X45840822Y-66768406D01*
X45836242Y-66766166D01*
X45783970Y-66750605D01*
X45782760Y-66750217D01*
X45731150Y-66732500D01*
X45726121Y-66731661D01*
X45726126Y-66731627D01*
X45720555Y-66730815D01*
X45720551Y-66730849D01*
X45715495Y-66730218D01*
X45683300Y-66731550D01*
X45660963Y-66732474D01*
X45659727Y-66732500D01*
X41245373Y-66732500D01*
X41232752Y-66731191D01*
X41215659Y-66727607D01*
X41178296Y-66732264D01*
X41174491Y-66732500D01*
X41168562Y-66732500D01*
X41146036Y-66736257D01*
X41144781Y-66736440D01*
X41090644Y-66743189D01*
X41090641Y-66743189D01*
X41090640Y-66743190D01*
X41090639Y-66743190D01*
X41085754Y-66744645D01*
X41085744Y-66744613D01*
X41080381Y-66746331D01*
X41080392Y-66746362D01*
X41075575Y-66748015D01*
X41027596Y-66773980D01*
X41026467Y-66774561D01*
X40977456Y-66798522D01*
X40973305Y-66801486D01*
X40973285Y-66801459D01*
X40968772Y-66804823D01*
X40968793Y-66804850D01*
X40964771Y-66807980D01*
X40927825Y-66848114D01*
X40926945Y-66849031D01*
X38989259Y-68786717D01*
X38979413Y-68794713D01*
X38964793Y-68804265D01*
X38964791Y-68804267D01*
X38941670Y-68833972D01*
X38939148Y-68836829D01*
X38934948Y-68841029D01*
X38921677Y-68859615D01*
X38920919Y-68860632D01*
X38887410Y-68903686D01*
X38884984Y-68908170D01*
X38884954Y-68908154D01*
X38882377Y-68913161D01*
X38882406Y-68913176D01*
X38880168Y-68917752D01*
X38864603Y-68970035D01*
X38864215Y-68971244D01*
X38846500Y-69022848D01*
X38845661Y-69027879D01*
X38845627Y-69027873D01*
X38844815Y-69033444D01*
X38844849Y-69033449D01*
X38844218Y-69038504D01*
X38845497Y-69069410D01*
X38846474Y-69093036D01*
X38846500Y-69094271D01*
X38846500Y-71337899D01*
X38828487Y-71381386D01*
X38641418Y-71568455D01*
X38597931Y-71586468D01*
X38585934Y-71585286D01*
X38526679Y-71573500D01*
X38526674Y-71573500D01*
X37177326Y-71573500D01*
X37177323Y-71573500D01*
X37104261Y-71588032D01*
X37021399Y-71643399D01*
X36966032Y-71726261D01*
X36951500Y-71799322D01*
X36951500Y-72148677D01*
X36964096Y-72212001D01*
X36964096Y-72235997D01*
X36951500Y-72299322D01*
X36951500Y-72648677D01*
X36964096Y-72712001D01*
X36964096Y-72735997D01*
X36951500Y-72799322D01*
X36951500Y-73148677D01*
X36964096Y-73212001D01*
X36964096Y-73235997D01*
X36951500Y-73299322D01*
X36951500Y-73648677D01*
X36964096Y-73712001D01*
X36964096Y-73735997D01*
X36951500Y-73799322D01*
X36951500Y-74148677D01*
X36964096Y-74212001D01*
X36964096Y-74235997D01*
X36951500Y-74299322D01*
X36951500Y-74648677D01*
X36964096Y-74712001D01*
X36964096Y-74735997D01*
X36951500Y-74799322D01*
X36951500Y-75148677D01*
X30980500Y-75148677D01*
X30980500Y-70998677D01*
X33251500Y-70998677D01*
X33266032Y-71071738D01*
X33293621Y-71113028D01*
X33321399Y-71154601D01*
X33383615Y-71196172D01*
X33404261Y-71209967D01*
X33462473Y-71221545D01*
X33477322Y-71224499D01*
X33477323Y-71224500D01*
X33477326Y-71224500D01*
X35726677Y-71224500D01*
X35726677Y-71224499D01*
X35755980Y-71218670D01*
X35799738Y-71209967D01*
X35799739Y-71209966D01*
X35799740Y-71209966D01*
X35882601Y-71154601D01*
X35937966Y-71071740D01*
X35937966Y-71071739D01*
X35937967Y-71071738D01*
X35952499Y-70998677D01*
X35952500Y-70998677D01*
X35952500Y-69149322D01*
X35937967Y-69076261D01*
X35924172Y-69055615D01*
X35882601Y-68993399D01*
X35830776Y-68958771D01*
X35799738Y-68938032D01*
X35726677Y-68923500D01*
X35726674Y-68923500D01*
X33477326Y-68923500D01*
X33477323Y-68923500D01*
X33404261Y-68938032D01*
X33321399Y-68993399D01*
X33266032Y-69076261D01*
X33251500Y-69149322D01*
X33251500Y-70998677D01*
X30980500Y-70998677D01*
X30980500Y-65078000D01*
X30998513Y-65034513D01*
X31042000Y-65016500D01*
X80718000Y-65016500D01*
X80761487Y-65034513D01*
G37*
%TD.AperFunction*%
%TD*%
M02*
